# MagicaVoxel @ ephtracy

# material
mtllib Bauer.mtl
usemtl palette

# normals
vn -1 0 0
vn 1 0 0
vn 0 0 1
vn 0 0 -1
vn 0 -1 0
vn 0 1 0

# texcoords
vt 0.0175781 0.5
vt 0.794922 0.5
vt 0.798828 0.5
vt 0.912109 0.5
vt 0.919922 0.5
vt 0.958984 0.5
vt 0.970703 0.5
vt 0.982422 0.5
vt 0.994141 0.5

# verts
v -4.5 9 2.5
v -4.5 9 1.5
v -4.5 10 2.5
v -4.5 10 1.5
v -3.5 1 0.5
v -3.5 1 -0.5
v -3.5 2 2.5
v -3.5 2 0.5
v -3.5 2 -0.5
v -3.5 2 -1.5
v -3.5 2 -2.5
v -3.5 5 0.5
v -3.5 5 -0.5
v -3.5 6 0.5
v -3.5 6 -1.5
v -3.5 9 2.5
v -3.5 9 1.5
v -3.5 10 1.5
v -3.5 10 -2.5
v -2.5 0 0.5
v -2.5 0 -0.5
v -2.5 1 1.5
v -2.5 1 0.5
v -2.5 1 -0.5
v -2.5 1 -1.5
v -2.5 2 1.5
v -2.5 2 0.5
v -2.5 2 -0.5
v -2.5 2 -1.5
v -2.5 5 0.5
v -2.5 5 -0.5
v -2.5 5 -2.5
v -2.5 5 -3.5
v -2.5 6 0.5
v -2.5 6 -1.5
v -2.5 10 2.5
v -2.5 10 -2.5
v -2.5 10 -3.5
v -2.5 11 2.5
v -2.5 11 -2.5
v -1.5 2 3.5
v -1.5 2 2.5
v -1.5 5 2.5
v -1.5 7 3.5
v -1.5 7 2.5
v -1.5 11 1.5
v -1.5 11 -2.5
v -1.5 12 0.5
v -1.5 12 -2.5
v -1.5 13 1.5
v -1.5 13 0.5
v -0.5 10 -2.5
v -0.5 10 -3.5
v -0.5 11 2.5
v -0.5 11 1.5
v -0.5 11 -2.5
v -0.5 11 -3.5
v -0.5 12 2.5
v -0.5 12 1.5
v -0.5 12 0.5
v -0.5 12 -1.5
v -0.5 13 1.5
v -0.5 13 0.5
v -0.5 13 -1.5
v -0.5 14 1.5
v -0.5 14 0.5
v 0.5 2 3.5
v 0.5 2 2.5
v 0.5 5 2.5
v 0.5 6 3.5
v 0.5 6 2.5
v 0.5 11 -1.5
v 0.5 11 -2.5
v 0.5 12 -1.5
v 0.5 12 -2.5
v 1.5 0 0.5
v 1.5 0 -0.5
v 1.5 1 0.5
v 1.5 1 -0.5
v 2.5 2 2.5
v 2.5 2 1.5
v 2.5 5 2.5
v 2.5 5 1.5
v -2.5 2 2.5
v -2.5 2 1.5
v -2.5 5 2.5
v -2.5 5 1.5
v -1.5 0 0.5
v -1.5 0 -0.5
v -1.5 1 0.5
v -1.5 1 -0.5
v -0.5 2 3.5
v -0.5 2 2.5
v -0.5 5 2.5
v -0.5 6 3.5
v -0.5 6 2.5
v -0.5 11 -1.5
v -0.5 11 -2.5
v -0.5 12 -1.5
v -0.5 12 -2.5
v 0.5 10 -2.5
v 0.5 10 -3.5
v 0.5 11 2.5
v 0.5 11 1.5
v 0.5 11 -2.5
v 0.5 11 -3.5
v 0.5 12 2.5
v 0.5 12 1.5
v 0.5 12 0.5
v 0.5 12 -1.5
v 0.5 13 1.5
v 0.5 13 0.5
v 0.5 13 -1.5
v 0.5 14 1.5
v 0.5 14 0.5
v 1.5 2 3.5
v 1.5 2 2.5
v 1.5 5 2.5
v 1.5 7 3.5
v 1.5 7 2.5
v 1.5 11 1.5
v 1.5 11 -2.5
v 1.5 12 0.5
v 1.5 12 -2.5
v 1.5 13 1.5
v 1.5 13 0.5
v 2.5 0 0.5
v 2.5 0 -0.5
v 2.5 1 1.5
v 2.5 1 0.5
v 2.5 1 -0.5
v 2.5 1 -1.5
v 2.5 2 1.5
v 2.5 2 0.5
v 2.5 2 -0.5
v 2.5 2 -1.5
v 2.5 5 0.5
v 2.5 5 -0.5
v 2.5 5 -2.5
v 2.5 5 -3.5
v 2.5 6 0.5
v 2.5 6 -1.5
v 2.5 10 2.5
v 2.5 10 -2.5
v 2.5 10 -3.5
v 2.5 11 2.5
v 2.5 11 -2.5
v 3.5 1 0.5
v 3.5 1 -0.5
v 3.5 2 2.5
v 3.5 2 0.5
v 3.5 2 -0.5
v 3.5 2 -1.5
v 3.5 2 -2.5
v 3.5 5 0.5
v 3.5 5 -0.5
v 3.5 6 0.5
v 3.5 6 -1.5
v 3.5 9 2.5
v 3.5 9 1.5
v 3.5 10 1.5
v 3.5 10 -2.5
v 4.5 9 2.5
v 4.5 9 1.5
v 4.5 10 2.5
v 4.5 10 1.5
v -1.5 2 3.5
v -1.5 7 3.5
v -0.5 2 3.5
v -0.5 6 3.5
v 0.5 2 3.5
v 0.5 6 3.5
v 1.5 2 3.5
v 1.5 7 3.5
v -4.5 9 2.5
v -4.5 10 2.5
v -3.5 2 2.5
v -3.5 9 2.5
v -2.5 2 2.5
v -2.5 5 2.5
v -2.5 8 2.5
v -2.5 9 2.5
v -2.5 10 2.5
v -2.5 11 2.5
v -1.5 5 2.5
v -1.5 7 2.5
v -1.5 8 2.5
v -1.5 9 2.5
v -0.5 5 2.5
v -0.5 6 2.5
v -0.5 11 2.5
v -0.5 12 2.5
v 0.5 5 2.5
v 0.5 6 2.5
v 0.5 11 2.5
v 0.5 12 2.5
v 1.5 5 2.5
v 1.5 7 2.5
v 1.5 8 2.5
v 1.5 9 2.5
v 2.5 2 2.5
v 2.5 5 2.5
v 2.5 8 2.5
v 2.5 9 2.5
v 2.5 10 2.5
v 2.5 11 2.5
v 3.5 2 2.5
v 3.5 9 2.5
v 4.5 9 2.5
v 4.5 10 2.5
v -2.5 1 1.5
v -2.5 2 1.5
v -2.5 5 1.5
v -1.5 5 1.5
v -1.5 11 1.5
v -1.5 13 1.5
v -0.5 5 1.5
v -0.5 11 1.5
v -0.5 12 1.5
v -0.5 13 1.5
v -0.5 14 1.5
v 0.5 5 1.5
v 0.5 11 1.5
v 0.5 12 1.5
v 0.5 13 1.5
v 0.5 14 1.5
v 1.5 5 1.5
v 1.5 11 1.5
v 1.5 13 1.5
v 2.5 1 1.5
v 2.5 2 1.5
v 2.5 5 1.5
v -3.5 1 0.5
v -3.5 2 0.5
v -2.5 0 0.5
v -2.5 1 0.5
v -2.5 2 0.5
v -1.5 0 0.5
v -1.5 1 0.5
v 1.5 0 0.5
v 1.5 1 0.5
v 2.5 0 0.5
v 2.5 1 0.5
v 2.5 2 0.5
v 3.5 1 0.5
v 3.5 2 0.5
v -3.5 2 -1.5
v -3.5 6 -1.5
v -2.5 2 -1.5
v -2.5 6 -1.5
v 2.5 2 -1.5
v 2.5 6 -1.5
v 3.5 2 -1.5
v 3.5 6 -1.5
v -1.5 2 2.5
v -1.5 5 2.5
v -0.5 2 2.5
v -0.5 5 2.5
v 0.5 2 2.5
v 0.5 5 2.5
v 1.5 2 2.5
v 1.5 5 2.5
v -4.5 9 1.5
v -4.5 10 1.5
v -3.5 9 1.5
v -3.5 10 1.5
v 3.5 9 1.5
v 3.5 10 1.5
v 4.5 9 1.5
v 4.5 10 1.5
v -3.5 5 0.5
v -3.5 6 0.5
v -2.5 5 0.5
v -2.5 6 0.5
v -1.5 12 0.5
v -1.5 13 0.5
v -0.5 12 0.5
v -0.5 13 0.5
v -0.5 14 0.5
v 0.5 12 0.5
v 0.5 13 0.5
v 0.5 14 0.5
v 1.5 12 0.5
v 1.5 13 0.5
v 2.5 5 0.5
v 2.5 6 0.5
v 3.5 5 0.5
v 3.5 6 0.5
v -3.5 1 -0.5
v -3.5 2 -0.5
v -3.5 5 -0.5
v -2.5 0 -0.5
v -2.5 1 -0.5
v -2.5 2 -0.5
v -2.5 5 -0.5
v -1.5 0 -0.5
v -1.5 1 -0.5
v 1.5 0 -0.5
v 1.5 1 -0.5
v 2.5 0 -0.5
v 2.5 1 -0.5
v 2.5 2 -0.5
v 2.5 5 -0.5
v 3.5 1 -0.5
v 3.5 2 -0.5
v 3.5 5 -0.5
v -2.5 1 -1.5
v -2.5 2 -1.5
v -0.5 11 -1.5
v -0.5 12 -1.5
v -0.5 13 -1.5
v 0.5 11 -1.5
v 0.5 12 -1.5
v 0.5 13 -1.5
v 2.5 1 -1.5
v 2.5 2 -1.5
v -3.5 2 -2.5
v -3.5 10 -2.5
v -2.5 5 -2.5
v -2.5 10 -2.5
v -2.5 11 -2.5
v -1.5 11 -2.5
v -1.5 12 -2.5
v -0.5 10 -2.5
v -0.5 11 -2.5
v -0.5 12 -2.5
v 0.5 10 -2.5
v 0.5 11 -2.5
v 0.5 12 -2.5
v 1.5 11 -2.5
v 1.5 12 -2.5
v 2.5 5 -2.5
v 2.5 10 -2.5
v 2.5 11 -2.5
v 3.5 2 -2.5
v 3.5 10 -2.5
v -2.5 5 -3.5
v -2.5 10 -3.5
v -0.5 10 -3.5
v -0.5 11 -3.5
v 0.5 10 -3.5
v 0.5 11 -3.5
v 2.5 5 -3.5
v 2.5 10 -3.5
v -2.5 0 0.5
v -1.5 0 0.5
v 1.5 0 0.5
v 2.5 0 0.5
v -2.5 0 -0.5
v -1.5 0 -0.5
v 1.5 0 -0.5
v 2.5 0 -0.5
v -2.5 1 1.5
v 2.5 1 1.5
v -3.5 1 0.5
v -2.5 1 0.5
v -1.5 1 0.5
v 1.5 1 0.5
v 2.5 1 0.5
v 3.5 1 0.5
v -3.5 1 -0.5
v -2.5 1 -0.5
v -1.5 1 -0.5
v 1.5 1 -0.5
v 2.5 1 -0.5
v 3.5 1 -0.5
v -2.5 1 -1.5
v 2.5 1 -1.5
v -1.5 2 3.5
v -0.5 2 3.5
v 0.5 2 3.5
v 1.5 2 3.5
v -3.5 2 2.5
v -2.5 2 2.5
v -1.5 2 2.5
v -0.5 2 2.5
v 0.5 2 2.5
v 1.5 2 2.5
v 2.5 2 2.5
v 3.5 2 2.5
v -2.5 2 1.5
v 2.5 2 1.5
v -3.5 2 0.5
v -2.5 2 0.5
v 2.5 2 0.5
v 3.5 2 0.5
v -3.5 2 -1.5
v -2.5 2 -1.5
v 2.5 2 -1.5
v 3.5 2 -1.5
v -3.5 2 -2.5
v 3.5 2 -2.5
v -2.5 5 2.5
v -1.5 5 2.5
v -0.5 5 2.5
v 0.5 5 2.5
v 1.5 5 2.5
v 2.5 5 2.5
v -2.5 5 1.5
v -1.5 5 1.5
v -0.5 5 1.5
v 0.5 5 1.5
v 1.5 5 1.5
v 2.5 5 1.5
v -2.5 5 -2.5
v 2.5 5 -2.5
v -2.5 5 -3.5
v 2.5 5 -3.5
v -0.5 6 3.5
v 0.5 6 3.5
v -0.5 6 2.5
v 0.5 6 2.5
v -3.5 6 0.5
v -2.5 6 0.5
v 2.5 6 0.5
v 3.5 6 0.5
v -3.5 6 -1.5
v -2.5 6 -1.5
v 2.5 6 -1.5
v 3.5 6 -1.5
v -4.5 9 2.5
v -3.5 9 2.5
v 3.5 9 2.5
v 4.5 9 2.5
v -4.5 9 1.5
v -3.5 9 1.5
v 3.5 9 1.5
v 4.5 9 1.5
v -3.5 5 0.5
v -2.5 5 0.5
v 2.5 5 0.5
v 3.5 5 0.5
v -3.5 5 -0.5
v -2.5 5 -0.5
v 2.5 5 -0.5
v 3.5 5 -0.5
v -1.5 7 3.5
v 1.5 7 3.5
v -1.5 7 2.5
v 1.5 7 2.5
v -4.5 10 2.5
v -2.5 10 2.5
v 2.5 10 2.5
v 4.5 10 2.5
v -4.5 10 1.5
v -3.5 10 1.5
v 3.5 10 1.5
v 4.5 10 1.5
v -3.5 10 -2.5
v -2.5 10 -2.5
v -0.5 10 -2.5
v 0.5 10 -2.5
v 2.5 10 -2.5
v 3.5 10 -2.5
v -2.5 10 -3.5
v -0.5 10 -3.5
v 0.5 10 -3.5
v 2.5 10 -3.5
v -2.5 11 2.5
v -0.5 11 2.5
v 0.5 11 2.5
v 2.5 11 2.5
v -1.5 11 1.5
v -0.5 11 1.5
v 0.5 11 1.5
v 1.5 11 1.5
v -0.5 11 -1.5
v 0.5 11 -1.5
v -2.5 11 -2.5
v -1.5 11 -2.5
v -0.5 11 -2.5
v 0.5 11 -2.5
v 1.5 11 -2.5
v 2.5 11 -2.5
v -0.5 11 -3.5
v 0.5 11 -3.5
v -0.5 12 2.5
v 0.5 12 2.5
v -0.5 12 1.5
v 0.5 12 1.5
v -1.5 12 0.5
v -0.5 12 0.5
v 0.5 12 0.5
v 1.5 12 0.5
v -0.5 12 -1.5
v 0.5 12 -1.5
v -1.5 12 -2.5
v -0.5 12 -2.5
v 0.5 12 -2.5
v 1.5 12 -2.5
v -1.5 13 1.5
v -0.5 13 1.5
v 0.5 13 1.5
v 1.5 13 1.5
v -1.5 13 0.5
v -0.5 13 0.5
v 0.5 13 0.5
v 1.5 13 0.5
v -0.5 13 -1.5
v 0.5 13 -1.5
v -0.5 14 1.5
v 0.5 14 1.5
v -0.5 14 0.5
v 0.5 14 0.5

# faces
f 3/7/1 2/7/1 1/7/1
f 4/7/1 2/7/1 3/7/1
f 8/6/1 6/6/1 5/6/1
f 9/6/1 6/6/1 8/6/1
f 12/7/1 8/7/1 7/7/1
f 12/8/1 9/8/1 8/8/1
f 13/8/1 9/8/1 12/8/1
f 14/7/1 12/7/1 7/7/1
f 15/7/1 11/7/1 10/7/1
f 16/7/1 14/7/1 7/7/1
f 16/7/1 15/7/1 14/7/1
f 17/7/1 15/7/1 16/7/1
f 18/7/1 15/7/1 17/7/1
f 19/7/1 11/7/1 15/7/1
f 19/7/1 15/7/1 18/7/1
f 23/9/1 21/9/1 20/9/1
f 24/9/1 21/9/1 23/9/1
f 26/9/1 23/9/1 22/9/1
f 27/9/1 23/9/1 26/9/1
f 28/9/1 25/9/1 24/9/1
f 29/9/1 25/9/1 28/9/1
f 31/8/1 29/8/1 28/8/1
f 34/8/1 31/8/1 30/8/1
f 35/8/1 29/8/1 31/8/1
f 35/8/1 31/8/1 34/8/1
f 37/7/1 33/7/1 32/7/1
f 38/7/1 33/7/1 37/7/1
f 39/7/1 37/7/1 36/7/1
f 40/7/1 37/7/1 39/7/1
f 43/7/1 42/7/1 41/7/1
f 44/7/1 43/7/1 41/7/1
f 45/7/1 43/7/1 44/7/1
f 48/7/1 47/7/1 46/7/1
f 49/7/1 47/7/1 48/7/1
f 50/7/1 48/7/1 46/7/1
f 51/7/1 48/7/1 50/7/1
f 56/7/1 53/7/1 52/7/1
f 57/7/1 53/7/1 56/7/1
f 58/7/1 55/7/1 54/7/1
f 59/7/1 55/7/1 58/7/1
f 63/7/1 61/7/1 60/7/1
f 64/7/1 61/7/1 63/7/1
f 65/7/1 63/7/1 62/7/1
f 66/7/1 63/7/1 65/7/1
f 69/7/1 68/7/1 67/7/1
f 70/7/1 69/7/1 67/7/1
f 71/7/1 69/7/1 70/7/1
f 74/7/1 73/7/1 72/7/1
f 75/7/1 73/7/1 74/7/1
f 78/9/1 77/9/1 76/9/1
f 79/9/1 77/9/1 78/9/1
f 82/7/1 81/7/1 80/7/1
f 83/7/1 81/7/1 82/7/1
f 84/7/2 85/7/2 86/7/2
f 86/7/2 85/7/2 87/7/2
f 88/9/2 89/9/2 90/9/2
f 90/9/2 89/9/2 91/9/2
f 92/7/2 93/7/2 94/7/2
f 92/7/2 94/7/2 95/7/2
f 95/7/2 94/7/2 96/7/2
f 97/7/2 98/7/2 99/7/2
f 99/7/2 98/7/2 100/7/2
f 101/7/2 102/7/2 105/7/2
f 105/7/2 102/7/2 106/7/2
f 103/7/2 104/7/2 107/7/2
f 107/7/2 104/7/2 108/7/2
f 109/7/2 110/7/2 112/7/2
f 112/7/2 110/7/2 113/7/2
f 111/7/2 112/7/2 114/7/2
f 114/7/2 112/7/2 115/7/2
f 116/7/2 117/7/2 118/7/2
f 116/7/2 118/7/2 119/7/2
f 119/7/2 118/7/2 120/7/2
f 121/7/2 122/7/2 123/7/2
f 123/7/2 122/7/2 124/7/2
f 121/7/2 123/7/2 125/7/2
f 125/7/2 123/7/2 126/7/2
f 127/9/2 128/9/2 130/9/2
f 130/9/2 128/9/2 131/9/2
f 129/9/2 130/9/2 133/9/2
f 133/9/2 130/9/2 134/9/2
f 131/9/2 132/9/2 135/9/2
f 135/9/2 132/9/2 136/9/2
f 135/8/2 136/8/2 138/8/2
f 137/8/2 138/8/2 141/8/2
f 138/8/2 136/8/2 142/8/2
f 141/8/2 138/8/2 142/8/2
f 139/7/2 140/7/2 144/7/2
f 144/7/2 140/7/2 145/7/2
f 143/7/2 144/7/2 146/7/2
f 146/7/2 144/7/2 147/7/2
f 148/6/2 149/6/2 151/6/2
f 151/6/2 149/6/2 152/6/2
f 150/7/2 151/7/2 155/7/2
f 151/8/2 152/8/2 155/8/2
f 155/8/2 152/8/2 156/8/2
f 150/7/2 155/7/2 157/7/2
f 153/7/2 154/7/2 158/7/2
f 150/7/2 157/7/2 159/7/2
f 157/7/2 158/7/2 159/7/2
f 159/7/2 158/7/2 160/7/2
f 160/7/2 158/7/2 161/7/2
f 158/7/2 154/7/2 162/7/2
f 161/7/2 158/7/2 162/7/2
f 163/7/2 164/7/2 165/7/2
f 165/7/2 164/7/2 166/7/2
f 169/7/3 168/7/3 167/7/3
f 170/7/3 168/7/3 169/7/3
f 172/7/3 168/7/3 170/7/3
f 173/7/3 172/7/3 171/7/3
f 174/7/3 168/7/3 172/7/3
f 174/7/3 172/7/3 173/7/3
f 178/7/3 176/7/3 175/7/3
f 179/7/3 178/7/3 177/7/3
f 180/7/3 178/7/3 179/7/3
f 181/7/3 178/7/3 180/7/3
f 182/7/3 176/7/3 178/7/3
f 182/7/3 178/7/3 181/7/3
f 183/7/3 176/7/3 182/7/3
f 185/6/3 181/6/3 180/6/3
f 186/6/3 181/6/3 185/6/3
f 187/2/3 182/2/3 181/2/3
f 187/6/3 181/6/3 186/6/3
f 188/7/3 184/7/3 183/7/3
f 188/2/3 182/2/3 187/2/3
f 188/7/3 183/7/3 182/7/3
f 191/7/3 184/7/3 188/7/3
f 193/3/3 190/3/3 189/3/3
f 194/3/3 190/3/3 193/3/3
f 195/7/3 192/7/3 191/7/3
f 195/7/3 191/7/3 188/7/3
f 196/7/3 192/7/3 195/7/3
f 198/6/3 187/6/3 186/6/3
f 198/6/3 188/6/3 187/6/3
f 199/6/3 188/6/3 198/6/3
f 200/7/3 195/7/3 188/7/3
f 200/6/3 188/6/3 199/6/3
f 202/6/3 199/6/3 198/6/3
f 202/6/3 198/6/3 197/6/3
f 203/2/3 200/2/3 199/2/3
f 203/6/3 199/6/3 202/6/3
f 204/7/3 195/7/3 200/7/3
f 204/2/3 200/2/3 203/2/3
f 205/7/3 195/7/3 204/7/3
f 206/7/3 195/7/3 205/7/3
f 207/7/3 203/7/3 202/7/3
f 207/7/3 202/7/3 201/7/3
f 207/7/3 205/7/3 204/7/3
f 207/7/3 204/7/3 203/7/3
f 208/7/3 205/7/3 207/7/3
f 209/7/3 205/7/3 208/7/3
f 210/7/3 205/7/3 209/7/3
f 214/8/3 213/8/3 212/8/3
f 217/8/3 214/8/3 212/8/3
f 218/7/3 216/7/3 215/7/3
f 219/7/3 216/7/3 218/7/3
f 220/7/3 216/7/3 219/7/3
f 222/8/3 217/8/3 212/8/3
f 224/7/3 221/7/3 220/7/3
f 224/7/3 220/7/3 219/7/3
f 225/7/3 221/7/3 224/7/3
f 226/7/3 221/7/3 225/7/3
f 227/8/3 222/8/3 212/8/3
f 228/7/3 224/7/3 223/7/3
f 228/7/3 225/7/3 224/7/3
f 229/7/3 225/7/3 228/7/3
f 230/9/3 212/9/3 211/9/3
f 231/8/3 227/8/3 212/8/3
f 231/9/3 212/9/3 230/9/3
f 232/8/3 227/8/3 231/8/3
f 236/6/3 234/6/3 233/6/3
f 237/6/3 234/6/3 236/6/3
f 238/9/3 236/9/3 235/9/3
f 239/9/3 236/9/3 238/9/3
f 242/9/3 241/9/3 240/9/3
f 243/9/3 241/9/3 242/9/3
f 245/6/3 244/6/3 243/6/3
f 246/6/3 244/6/3 245/6/3
f 249/7/3 248/7/3 247/7/3
f 250/7/3 248/7/3 249/7/3
f 253/7/3 252/7/3 251/7/3
f 254/7/3 252/7/3 253/7/3
f 255/7/4 256/7/4 257/7/4
f 257/7/4 256/7/4 258/7/4
f 259/7/4 260/7/4 261/7/4
f 261/7/4 260/7/4 262/7/4
f 263/7/4 264/7/4 265/7/4
f 265/7/4 264/7/4 266/7/4
f 267/7/4 268/7/4 269/7/4
f 269/7/4 268/7/4 270/7/4
f 271/7/4 272/7/4 273/7/4
f 273/7/4 272/7/4 274/7/4
f 275/7/4 276/7/4 277/7/4
f 277/7/4 276/7/4 278/7/4
f 278/7/4 279/7/4 281/7/4
f 281/7/4 279/7/4 282/7/4
f 280/7/4 281/7/4 283/7/4
f 283/7/4 281/7/4 284/7/4
f 285/7/4 286/7/4 287/7/4
f 287/7/4 286/7/4 288/7/4
f 289/6/4 290/6/4 293/6/4
f 290/8/4 291/8/4 294/8/4
f 293/6/4 290/6/4 294/6/4
f 294/8/4 291/8/4 295/8/4
f 292/9/4 293/9/4 296/9/4
f 296/9/4 293/9/4 297/9/4
f 298/9/4 299/9/4 300/9/4
f 300/9/4 299/9/4 301/9/4
f 301/6/4 302/6/4 304/6/4
f 302/8/4 303/8/4 305/8/4
f 304/6/4 302/6/4 305/6/4
f 305/8/4 303/8/4 306/8/4
f 309/7/4 310/7/4 312/7/4
f 310/7/4 311/7/4 312/7/4
f 312/7/4 311/7/4 313/7/4
f 313/7/4 311/7/4 314/7/4
f 307/9/4 308/9/4 315/9/4
f 315/9/4 308/9/4 316/9/4
f 317/7/4 318/7/4 319/7/4
f 319/7/4 318/7/4 320/7/4
f 320/7/4 321/7/4 322/7/4
f 320/7/4 322/7/4 324/7/4
f 322/7/4 323/7/4 324/7/4
f 324/7/4 323/7/4 325/7/4
f 325/7/4 323/7/4 326/7/4
f 327/7/4 328/7/4 330/7/4
f 328/7/4 329/7/4 330/7/4
f 330/7/4 329/7/4 331/7/4
f 317/7/4 319/7/4 332/7/4
f 327/7/4 330/7/4 333/7/4
f 333/7/4 330/7/4 334/7/4
f 317/7/4 332/7/4 335/7/4
f 332/7/4 333/7/4 335/7/4
f 335/7/4 333/7/4 336/7/4
f 337/7/4 338/7/4 339/7/4
f 337/7/4 339/7/4 341/7/4
f 339/7/4 340/7/4 341/7/4
f 341/7/4 340/7/4 342/7/4
f 337/7/4 341/7/4 343/7/4
f 343/7/4 341/7/4 344/7/4
f 349/9/5 346/9/5 345/9/5
f 350/9/5 346/9/5 349/9/5
f 351/9/5 348/9/5 347/9/5
f 352/9/5 348/9/5 351/9/5
f 356/9/5 354/9/5 353/9/5
f 357/9/5 354/9/5 356/9/5
f 358/9/5 354/9/5 357/9/5
f 359/9/5 354/9/5 358/9/5
f 361/6/5 356/6/5 355/6/5
f 362/6/5 356/6/5 361/6/5
f 363/1/5 358/1/5 357/1/5
f 364/1/5 358/1/5 363/1/5
f 365/6/5 360/6/5 359/6/5
f 366/6/5 360/6/5 365/6/5
f 367/9/5 364/9/5 363/9/5
f 367/9/5 365/9/5 364/9/5
f 367/9/5 363/9/5 362/9/5
f 368/9/5 365/9/5 367/9/5
f 375/7/5 370/7/5 369/7/5
f 376/7/5 370/7/5 375/7/5
f 377/7/5 372/7/5 371/7/5
f 378/7/5 372/7/5 377/7/5
f 381/7/5 374/7/5 373/7/5
f 382/7/5 380/7/5 379/7/5
f 383/7/5 381/7/5 373/7/5
f 384/7/5 381/7/5 383/7/5
f 385/7/5 380/7/5 382/7/5
f 386/7/5 380/7/5 385/7/5
f 391/7/5 388/7/5 387/7/5
f 391/7/5 390/7/5 389/7/5
f 391/7/5 389/7/5 388/7/5
f 392/7/5 390/7/5 391/7/5
f 399/6/5 394/6/5 393/6/5
f 400/1/5 395/1/5 394/1/5
f 400/6/5 394/6/5 399/6/5
f 401/3/5 396/3/5 395/3/5
f 401/1/5 395/1/5 400/1/5
f 402/1/5 397/1/5 396/1/5
f 402/3/5 396/3/5 401/3/5
f 403/6/5 398/6/5 397/6/5
f 403/1/5 397/1/5 402/1/5
f 404/6/5 398/6/5 403/6/5
f 407/7/5 406/7/5 405/7/5
f 408/7/5 406/7/5 407/7/5
f 411/7/5 410/7/5 409/7/5
f 412/7/5 410/7/5 411/7/5
f 417/7/5 414/7/5 413/7/5
f 418/7/5 414/7/5 417/7/5
f 419/7/5 416/7/5 415/7/5
f 420/7/5 416/7/5 419/7/5
f 425/7/5 422/7/5 421/7/5
f 426/7/5 422/7/5 425/7/5
f 427/7/5 424/7/5 423/7/5
f 428/7/5 424/7/5 427/7/5
f 429/8/6 430/8/6 433/8/6
f 433/8/6 430/8/6 434/8/6
f 431/8/6 432/8/6 435/8/6
f 435/8/6 432/8/6 436/8/6
f 437/7/6 438/7/6 439/7/6
f 439/7/6 438/7/6 440/7/6
f 441/7/6 442/7/6 445/7/6
f 445/7/6 442/7/6 446/7/6
f 443/7/6 444/7/6 447/7/6
f 447/7/6 444/7/6 448/7/6
f 446/7/6 442/7/6 449/7/6
f 449/7/6 442/7/6 450/7/6
f 443/7/6 447/7/6 453/7/6
f 453/7/6 447/7/6 454/7/6
f 450/7/6 451/7/6 455/7/6
f 455/7/6 451/7/6 456/7/6
f 452/7/6 453/7/6 457/7/6
f 457/7/6 453/7/6 458/7/6
f 459/7/6 460/7/6 463/7/6
f 463/7/6 460/7/6 464/7/6
f 461/7/6 462/7/6 465/7/6
f 465/7/6 462/7/6 466/7/6
f 459/7/6 463/7/6 469/7/6
f 469/7/6 463/7/6 470/7/6
f 467/7/6 468/7/6 471/7/6
f 471/7/6 468/7/6 472/7/6
f 466/7/6 462/7/6 473/7/6
f 473/7/6 462/7/6 474/7/6
f 471/7/6 472/7/6 475/7/6
f 475/7/6 472/7/6 476/7/6
f 477/7/6 478/7/6 479/7/6
f 479/7/6 478/7/6 480/7/6
f 481/7/6 482/7/6 485/7/6
f 483/7/6 484/7/6 486/7/6
f 481/7/6 485/7/6 487/7/6
f 487/7/6 485/7/6 488/7/6
f 486/7/6 484/7/6 489/7/6
f 489/7/6 484/7/6 490/7/6
f 491/7/6 492/7/6 495/7/6
f 495/7/6 492/7/6 496/7/6
f 493/7/6 494/7/6 497/7/6
f 497/7/6 494/7/6 498/7/6
f 496/7/6 497/7/6 499/7/6
f 499/7/6 497/7/6 500/7/6
f 501/7/6 502/7/6 503/7/6
f 503/7/6 502/7/6 504/7/6
