# MagicaVoxel @ ephtracy

# material
mtllib FrauPenyi.mtl
usemtl palette

# normals
vn -1 0 0
vn 1 0 0
vn 0 0 1
vn 0 0 -1
vn 0 -1 0
vn 0 1 0

# texcoords
vt 0.0292969 0.5
vt 0.369141 0.5
vt 0.673828 0.5
vt 0.693359 0.5
vt 0.732422 0.5
vt 0.798828 0.5
vt 0.818359 0.5
vt 0.958984 0.5
vt 0.970703 0.5
vt 0.978516 0.5
vt 0.982422 0.5

# verts
v -9 8 1
v -9 8 -0
v -9 10 1
v -9 10 -0
v -8 10 1
v -8 10 -0
v -8 11 1
v -8 11 -0
v -6 8 4
v -6 8 -2
v -6 10 4
v -6 10 3
v -6 10 1
v -6 10 -0
v -6 10 -1
v -6 10 -2
v -6 11 1
v -6 11 -0
v -6 12 3
v -6 12 -1
v -5 12 3
v -5 12 -1
v -5 13 3
v -5 13 -1
v -4 13 3
v -4 13 -0
v -4 14 3
v -4 14 -0
v -3 16 3
v -3 16 -5
v -3 18 5
v -3 18 3
v -3 20 5
v -3 20 -5
v -1 0 1
v -1 0 -1
v -1 4 3
v -1 4 1
v -1 4 -1
v -1 4 -3
v -1 8 3
v -1 8 -0
v -1 8 -2
v -1 10 3
v -1 10 -0
v -1 10 -2
v -1 12 3
v -1 12 -3
v -1 15 4
v -1 15 3
v -1 16 3
v -1 16 -3
v -1 18 4
v -1 18 3
v -1 20 1
v -1 20 -5
v -1 22 1
v -1 22 -5
v 1 16 4
v 1 16 3
v 1 17 4
v 1 17 3
v 1 22 -1
v 1 22 -5
v 1 24 -1
v 1 24 -5
v 3 0 5
v 3 0 3
v 3 4 3
v 3 9 5
v 3 9 3
v 3 11 5
v 3 11 3
v 4 15 4
v 4 15 3
v 4 16 4
v 4 16 3
v 4 17 4
v 4 17 3
v 4 18 4
v 4 18 3
v 5 0 1
v 5 0 -1
v 5 4 1
v 5 4 -1
v 6 16 4
v 6 16 3
v 6 17 4
v 6 17 3
v -8 8 1
v -8 8 -0
v -8 9 1
v -8 9 -0
v -7 9 1
v -7 9 -0
v -7 10 1
v -7 10 -0
v -4 8 2
v -4 8 -0
v -4 9 2
v -4 9 -0
v -3 8 3
v -3 8 2
v -3 9 2
v -3 10 3
v -3 10 2
v -2 9 2
v -2 9 -0
v -2 10 3
v -2 10 2
v -2 10 -0
v -2 10 -1
v -2 13 -0
v -2 13 -1
v -2 14 3
v -2 14 -0
v -1 8 4
v -1 8 3
v -1 10 4
v -1 10 3
v 0 16 4
v 0 16 3
v 0 17 4
v 0 17 3
v 1 0 1
v 1 0 -1
v 1 4 1
v 1 4 -1
v 2 15 4
v 2 15 3
v 2 16 4
v 2 16 3
v 2 17 4
v 2 17 3
v 2 18 4
v 2 18 3
v 4 0 5
v 4 0 3
v 4 4 3
v 4 9 5
v 4 9 3
v 5 16 4
v 5 16 3
v 5 17 4
v 5 17 3
v 5 22 -1
v 5 22 -5
v 5 24 -1
v 5 24 -5
v 7 0 1
v 7 0 -1
v 7 4 3
v 7 4 1
v 7 4 -1
v 7 4 -3
v 7 9 3
v 7 9 -0
v 7 11 3
v 7 11 -0
v 7 12 3
v 7 12 -3
v 7 15 4
v 7 15 3
v 7 16 3
v 7 16 -3
v 7 18 4
v 7 18 3
v 7 20 1
v 7 20 -5
v 7 22 1
v 7 22 -5
v 9 9 5
v 9 9 -0
v 9 11 5
v 9 11 -0
v 9 16 3
v 9 16 -5
v 9 18 5
v 9 18 3
v 9 20 5
v 9 20 -5
v -3 18 5
v -3 20 5
v 3 0 5
v 3 9 5
v 3 11 5
v 4 0 5
v 4 9 5
v 5 9 5
v 5 11 5
v 9 9 5
v 9 11 5
v 9 18 5
v 9 20 5
v -6 8 4
v -6 10 4
v -3 8 4
v -3 10 4
v -1 8 4
v -1 10 4
v -1 15 4
v -1 18 4
v 0 16 4
v 0 17 4
v 1 16 4
v 1 17 4
v 2 15 4
v 2 16 4
v 2 17 4
v 2 18 4
v 4 15 4
v 4 16 4
v 4 17 4
v 4 18 4
v 5 16 4
v 5 17 4
v 6 16 4
v 6 17 4
v 7 15 4
v 7 18 4
v -6 10 3
v -6 12 3
v -5 12 3
v -5 13 3
v -4 13 3
v -4 14 3
v -3 10 3
v -3 16 3
v -3 18 3
v -2 10 3
v -2 14 3
v -1 4 3
v -1 8 3
v -1 10 3
v -1 12 3
v -1 15 3
v -1 16 3
v -1 18 3
v 0 16 3
v 0 17 3
v 1 12 3
v 1 13 3
v 1 16 3
v 1 17 3
v 2 15 3
v 2 16 3
v 2 17 3
v 2 18 3
v 3 4 3
v 3 9 3
v 3 11 3
v 4 4 3
v 4 9 3
v 4 15 3
v 4 16 3
v 4 17 3
v 4 18 3
v 5 9 3
v 5 11 3
v 5 12 3
v 5 13 3
v 5 16 3
v 5 17 3
v 6 16 3
v 6 17 3
v 7 4 3
v 7 9 3
v 7 11 3
v 7 12 3
v 7 15 3
v 7 16 3
v 7 18 3
v 9 16 3
v 9 18 3
v -3 9 2
v -3 10 2
v -2 9 2
v -2 10 2
v -9 8 1
v -9 10 1
v -8 8 1
v -8 9 1
v -8 10 1
v -8 11 1
v -7 9 1
v -7 10 1
v -6 10 1
v -6 11 1
v -1 0 1
v -1 4 1
v -1 20 1
v -1 22 1
v 1 0 1
v 1 4 1
v 5 0 1
v 5 4 1
v 7 0 1
v 7 4 1
v 7 20 1
v 7 22 1
v -4 8 -0
v -4 9 -0
v -2 9 -0
v -2 10 -0
v -1 8 -0
v -1 10 -0
v 1 22 -1
v 1 24 -1
v 5 22 -1
v 5 24 -1
v -3 8 3
v -3 10 3
v -2 10 3
v -1 8 3
v -1 10 3
v 3 0 3
v 3 4 3
v 4 0 3
v 4 4 3
v -4 8 2
v -4 9 2
v -3 8 2
v -3 9 2
v -9 8 -0
v -9 10 -0
v -8 8 -0
v -8 9 -0
v -8 10 -0
v -8 11 -0
v -7 9 -0
v -7 10 -0
v -6 10 -0
v -6 11 -0
v -4 13 -0
v -4 14 -0
v -2 13 -0
v -2 14 -0
v 7 9 -0
v 7 11 -0
v 9 9 -0
v 9 11 -0
v -6 10 -1
v -6 12 -1
v -5 12 -1
v -5 13 -1
v -2 10 -1
v -2 13 -1
v -1 0 -1
v -1 4 -1
v 1 0 -1
v 1 4 -1
v 5 0 -1
v 5 4 -1
v 7 0 -1
v 7 4 -1
v -6 8 -2
v -6 10 -2
v -1 8 -2
v -1 10 -2
v -1 4 -3
v -1 12 -3
v -1 16 -3
v 7 4 -3
v 7 12 -3
v 7 16 -3
v -3 16 -5
v -3 20 -5
v -1 20 -5
v -1 22 -5
v 1 22 -5
v 1 24 -5
v 5 22 -5
v 5 24 -5
v 7 20 -5
v 7 22 -5
v 9 16 -5
v 9 20 -5
v 3 0 5
v 4 0 5
v 3 0 3
v 4 0 3
v -1 0 1
v 1 0 1
v 5 0 1
v 7 0 1
v -1 0 -1
v 1 0 -1
v 5 0 -1
v 7 0 -1
v -1 4 3
v 3 4 3
v 4 4 3
v 7 4 3
v -1 4 1
v 1 4 1
v 5 4 1
v 7 4 1
v -1 4 -1
v 1 4 -1
v 5 4 -1
v 7 4 -1
v -1 4 -3
v 7 4 -3
v -6 8 4
v -3 8 4
v -1 8 4
v -3 8 3
v -1 8 3
v -4 8 2
v -3 8 2
v -9 8 1
v -8 8 1
v -9 8 -0
v -8 8 -0
v -4 8 -0
v -1 8 -0
v -6 8 -2
v -1 8 -2
v 4 9 5
v 5 9 5
v 9 9 5
v 4 9 3
v 5 9 3
v 7 9 3
v -4 9 2
v -3 9 2
v -2 9 2
v -8 9 1
v -7 9 1
v -8 9 -0
v -7 9 -0
v -4 9 -0
v -2 9 -0
v 7 9 -0
v 9 9 -0
v -3 10 3
v -2 10 3
v -3 10 2
v -2 10 2
v -7 10 1
v -6 10 1
v -7 10 -0
v -6 10 -0
v -1 15 4
v 2 15 4
v 4 15 4
v 7 15 4
v -1 15 3
v 2 15 3
v 4 15 3
v 7 15 3
v 2 16 4
v 4 16 4
v -3 16 3
v -1 16 3
v 2 16 3
v 4 16 3
v 7 16 3
v 9 16 3
v -1 16 -3
v 7 16 -3
v -3 16 -5
v 9 16 -5
v 0 17 4
v 1 17 4
v 5 17 4
v 6 17 4
v 0 17 3
v 1 17 3
v 5 17 3
v 6 17 3
v -3 18 5
v 9 18 5
v -1 18 4
v 2 18 4
v 4 18 4
v 7 18 4
v -3 18 3
v -1 18 3
v 2 18 3
v 4 18 3
v 7 18 3
v 9 18 3
v -6 10 4
v -3 10 4
v -1 10 4
v -6 10 3
v -3 10 3
v -2 10 3
v -1 10 3
v -9 10 1
v -8 10 1
v -9 10 -0
v -8 10 -0
v -2 10 -0
v -1 10 -0
v -6 10 -1
v -2 10 -1
v -6 10 -2
v -1 10 -2
v 3 11 5
v 5 11 5
v 9 11 5
v 3 11 3
v 5 11 3
v 7 11 3
v -8 11 1
v -6 11 1
v -8 11 -0
v -6 11 -0
v 7 11 -0
v 9 11 -0
v -6 12 3
v -5 12 3
v -6 12 -1
v -5 12 -1
v -5 13 3
v -4 13 3
v -4 13 -0
v -2 13 -0
v -5 13 -1
v -2 13 -1
v -4 14 3
v -2 14 3
v -4 14 -0
v -2 14 -0
v 0 16 4
v 1 16 4
v 5 16 4
v 6 16 4
v 0 16 3
v 1 16 3
v 5 16 3
v 6 16 3
v 2 17 4
v 4 17 4
v 2 17 3
v 4 17 3
v -3 20 5
v 9 20 5
v -1 20 1
v 7 20 1
v -3 20 -5
v -1 20 -5
v 7 20 -5
v 9 20 -5
v -1 22 1
v 7 22 1
v 1 22 -1
v 5 22 -1
v -1 22 -5
v 1 22 -5
v 5 22 -5
v 7 22 -5
v 1 24 -1
v 5 24 -1
v 1 24 -5
v 5 24 -5

# faces
f 3/3/1 2/3/1 1/3/1
f 4/3/1 2/3/1 3/3/1
f 7/3/1 6/3/1 5/3/1
f 8/3/1 6/3/1 7/3/1
f 11/10/1 10/10/1 9/10/1
f 12/10/1 10/10/1 11/10/1
f 13/10/1 10/10/1 12/10/1
f 14/10/1 10/10/1 13/10/1
f 15/10/1 10/10/1 14/10/1
f 16/10/1 10/10/1 15/10/1
f 17/3/1 13/3/1 12/3/1
f 18/3/1 15/3/1 14/3/1
f 19/3/1 17/3/1 12/3/1
f 19/3/1 18/3/1 17/3/1
f 20/3/1 15/3/1 18/3/1
f 20/3/1 18/3/1 19/3/1
f 23/3/1 22/3/1 21/3/1
f 24/3/1 22/3/1 23/3/1
f 27/3/1 26/3/1 25/3/1
f 28/3/1 26/3/1 27/3/1
f 32/9/1 30/9/1 29/9/1
f 33/9/1 32/9/1 31/9/1
f 34/9/1 30/9/1 32/9/1
f 34/9/1 32/9/1 33/9/1
f 38/4/1 36/4/1 35/4/1
f 39/4/1 36/4/1 38/4/1
f 41/11/1 38/11/1 37/11/1
f 41/11/1 40/11/1 39/11/1
f 41/11/1 39/11/1 38/11/1
f 42/11/1 40/11/1 41/11/1
f 43/11/1 40/11/1 42/11/1
f 44/11/1 42/11/1 41/11/1
f 45/11/1 42/11/1 44/11/1
f 46/11/1 40/11/1 43/11/1
f 47/11/1 45/11/1 44/11/1
f 47/11/1 46/11/1 45/11/1
f 48/11/1 40/11/1 46/11/1
f 48/11/1 46/11/1 47/11/1
f 50/4/1 48/4/1 47/4/1
f 51/4/1 48/4/1 50/4/1
f 51/5/1 50/5/1 49/5/1
f 52/4/1 48/4/1 51/4/1
f 53/5/1 51/5/1 49/5/1
f 54/5/1 51/5/1 53/5/1
f 57/9/1 56/9/1 55/9/1
f 58/9/1 56/9/1 57/9/1
f 61/5/1 60/5/1 59/5/1
f 62/5/1 60/5/1 61/5/1
f 65/9/1 64/9/1 63/9/1
f 66/9/1 64/9/1 65/9/1
f 69/6/1 68/6/1 67/6/1
f 70/6/1 69/6/1 67/6/1
f 71/6/1 69/6/1 70/6/1
f 72/4/1 71/4/1 70/4/1
f 73/4/1 71/4/1 72/4/1
f 76/5/1 75/5/1 74/5/1
f 77/5/1 75/5/1 76/5/1
f 80/5/1 79/5/1 78/5/1
f 81/5/1 79/5/1 80/5/1
f 84/4/1 83/4/1 82/4/1
f 85/4/1 83/4/1 84/4/1
f 88/5/1 87/5/1 86/5/1
f 89/5/1 87/5/1 88/5/1
f 90/3/2 91/3/2 92/3/2
f 92/3/2 91/3/2 93/3/2
f 94/3/2 95/3/2 96/3/2
f 96/3/2 95/3/2 97/3/2
f 98/10/2 99/10/2 100/10/2
f 100/10/2 99/10/2 101/10/2
f 102/10/2 103/10/2 104/10/2
f 102/10/2 104/10/2 105/10/2
f 105/10/2 104/10/2 106/10/2
f 107/3/2 108/3/2 110/3/2
f 110/3/2 108/3/2 111/3/2
f 109/3/2 110/3/2 113/3/2
f 111/3/2 112/3/2 113/3/2
f 110/3/2 111/3/2 113/3/2
f 113/3/2 112/3/2 114/3/2
f 109/3/2 113/3/2 115/3/2
f 115/3/2 113/3/2 116/3/2
f 117/4/2 118/4/2 119/4/2
f 119/4/2 118/4/2 120/4/2
f 121/5/2 122/5/2 123/5/2
f 123/5/2 122/5/2 124/5/2
f 125/4/2 126/4/2 127/4/2
f 127/4/2 126/4/2 128/4/2
f 129/5/2 130/5/2 131/5/2
f 131/5/2 130/5/2 132/5/2
f 133/5/2 134/5/2 135/5/2
f 135/5/2 134/5/2 136/5/2
f 137/6/2 138/6/2 139/6/2
f 137/6/2 139/6/2 140/6/2
f 140/6/2 139/6/2 141/6/2
f 142/5/2 143/5/2 144/5/2
f 144/5/2 143/5/2 145/5/2
f 146/9/2 147/9/2 148/9/2
f 148/9/2 147/9/2 149/9/2
f 150/4/2 151/4/2 153/4/2
f 153/4/2 151/4/2 154/4/2
f 152/11/2 153/11/2 156/11/2
f 154/11/2 155/11/2 156/11/2
f 153/11/2 154/11/2 156/11/2
f 156/11/2 155/11/2 157/11/2
f 157/11/2 155/11/2 159/11/2
f 158/11/2 159/11/2 160/11/2
f 159/11/2 155/11/2 161/11/2
f 160/11/2 159/11/2 161/11/2
f 160/4/2 161/4/2 163/4/2
f 163/4/2 161/4/2 164/4/2
f 162/5/2 163/5/2 164/5/2
f 164/4/2 161/4/2 165/4/2
f 162/5/2 164/5/2 166/5/2
f 166/5/2 164/5/2 167/5/2
f 168/9/2 169/9/2 170/9/2
f 170/9/2 169/9/2 171/9/2
f 172/10/2 173/10/2 174/10/2
f 174/10/2 173/10/2 175/10/2
f 176/9/2 177/9/2 179/9/2
f 178/9/2 179/9/2 180/9/2
f 179/9/2 177/9/2 181/9/2
f 180/9/2 179/9/2 181/9/2
f 187/6/3 185/6/3 184/6/3
f 188/4/3 186/4/3 185/4/3
f 188/6/3 185/6/3 187/6/3
f 189/4/3 186/4/3 188/4/3
f 190/4/3 186/4/3 189/4/3
f 191/10/3 190/10/3 189/10/3
f 192/10/3 190/10/3 191/10/3
f 193/9/3 183/9/3 182/9/3
f 194/9/3 183/9/3 193/9/3
f 197/10/3 196/10/3 195/10/3
f 198/10/3 196/10/3 197/10/3
f 199/4/3 198/4/3 197/4/3
f 200/4/3 198/4/3 199/4/3
f 203/5/3 202/5/3 201/5/3
f 204/5/3 202/5/3 203/5/3
f 205/5/3 203/5/3 201/5/3
f 206/5/3 202/5/3 204/5/3
f 207/5/3 205/5/3 201/5/3
f 207/5/3 206/5/3 205/5/3
f 208/5/3 206/5/3 207/5/3
f 209/5/3 202/5/3 206/5/3
f 209/5/3 206/5/3 208/5/3
f 210/5/3 202/5/3 209/5/3
f 212/5/3 209/5/3 208/5/3
f 213/5/3 209/5/3 212/5/3
f 215/5/3 212/5/3 211/5/3
f 215/5/3 214/5/3 213/5/3
f 215/5/3 213/5/3 212/5/3
f 216/5/3 214/5/3 215/5/3
f 217/5/3 215/5/3 211/5/3
f 218/5/3 214/5/3 216/5/3
f 219/5/3 217/5/3 211/5/3
f 219/5/3 218/5/3 217/5/3
f 220/5/3 214/5/3 218/5/3
f 220/5/3 218/5/3 219/5/3
f 223/3/3 222/3/3 221/3/3
f 225/3/3 224/3/3 223/3/3
f 227/3/3 223/3/3 221/3/3
f 227/3/3 226/3/3 225/3/3
f 227/3/3 225/3/3 223/3/3
f 230/3/3 226/3/3 227/3/3
f 231/3/3 226/3/3 230/3/3
f 237/9/3 229/9/3 228/9/3
f 238/9/3 229/9/3 237/9/3
f 241/4/3 236/4/3 235/4/3
f 241/11/3 235/11/3 234/11/3
f 241/11/3 233/11/3 232/11/3
f 241/11/3 234/11/3 233/11/3
f 242/4/3 236/4/3 241/4/3
f 243/7/3 240/7/3 239/7/3
f 244/7/3 240/7/3 243/7/3
f 245/4/3 236/4/3 242/4/3
f 249/11/3 241/11/3 232/11/3
f 250/11/3 241/11/3 249/11/3
f 251/11/3 241/11/3 250/11/3
f 254/4/3 246/4/3 245/4/3
f 254/4/3 245/4/3 242/4/3
f 255/4/3 246/4/3 254/4/3
f 256/4/3 248/4/3 247/4/3
f 257/4/3 248/4/3 256/4/3
f 258/11/3 253/11/3 252/11/3
f 259/11/3 241/11/3 251/11/3
f 260/9/3 242/9/3 241/9/3
f 260/11/3 241/11/3 259/11/3
f 261/4/3 254/4/3 242/4/3
f 261/9/3 242/9/3 260/9/3
f 264/7/3 263/7/3 262/7/3
f 265/7/3 263/7/3 264/7/3
f 266/11/3 258/11/3 252/11/3
f 267/11/3 258/11/3 266/11/3
f 268/11/3 260/11/3 259/11/3
f 269/4/3 261/4/3 260/4/3
f 269/11/3 260/11/3 268/11/3
f 270/4/3 254/4/3 261/4/3
f 270/4/3 261/4/3 269/4/3
f 273/9/3 272/9/3 271/9/3
f 274/9/3 272/9/3 273/9/3
f 277/3/3 276/3/3 275/3/3
f 278/3/3 276/3/3 277/3/3
f 281/3/3 280/3/3 279/3/3
f 282/3/3 280/3/3 281/3/3
f 283/3/3 280/3/3 282/3/3
f 285/3/3 284/3/3 283/3/3
f 285/3/3 283/3/3 282/3/3
f 286/3/3 284/3/3 285/3/3
f 287/3/3 284/3/3 286/3/3
f 288/3/3 284/3/3 287/3/3
f 293/4/3 290/4/3 289/4/3
f 294/4/3 290/4/3 293/4/3
f 297/4/3 296/4/3 295/4/3
f 298/4/3 296/4/3 297/4/3
f 299/9/3 292/9/3 291/9/3
f 300/9/3 292/9/3 299/9/3
f 303/10/3 302/10/3 301/10/3
f 305/10/3 303/10/3 301/10/3
f 305/10/3 304/10/3 303/10/3
f 306/10/3 304/10/3 305/10/3
f 309/9/3 308/9/3 307/9/3
f 310/9/3 308/9/3 309/9/3
f 311/4/4 312/4/4 313/4/4
f 311/4/4 313/4/4 314/4/4
f 314/4/4 313/4/4 315/4/4
f 316/6/4 317/6/4 318/6/4
f 318/6/4 317/6/4 319/6/4
f 320/10/4 321/10/4 322/10/4
f 322/10/4 321/10/4 323/10/4
f 324/3/4 325/3/4 326/3/4
f 326/3/4 325/3/4 327/3/4
f 327/3/4 325/3/4 328/3/4
f 328/3/4 329/3/4 330/3/4
f 327/3/4 328/3/4 330/3/4
f 330/3/4 329/3/4 331/3/4
f 331/3/4 329/3/4 332/3/4
f 332/3/4 329/3/4 333/3/4
f 334/3/4 335/3/4 336/3/4
f 336/3/4 335/3/4 337/3/4
f 338/10/4 339/10/4 340/10/4
f 340/10/4 339/10/4 341/10/4
f 342/3/4 343/3/4 344/3/4
f 342/3/4 344/3/4 346/3/4
f 344/3/4 345/3/4 346/3/4
f 346/3/4 345/3/4 347/3/4
f 348/4/4 349/4/4 350/4/4
f 350/4/4 349/4/4 351/4/4
f 352/4/4 353/4/4 354/4/4
f 354/4/4 353/4/4 355/4/4
f 356/10/4 357/10/4 358/10/4
f 358/10/4 357/10/4 359/10/4
f 360/11/4 361/11/4 363/11/4
f 361/4/4 362/4/4 364/4/4
f 363/11/4 361/11/4 364/11/4
f 364/4/4 362/4/4 365/4/4
f 366/9/4 367/9/4 368/9/4
f 368/9/4 369/9/4 370/9/4
f 368/9/4 370/9/4 372/9/4
f 370/9/4 371/9/4 372/9/4
f 372/9/4 371/9/4 373/9/4
f 366/9/4 368/9/4 374/9/4
f 368/9/4 372/9/4 374/9/4
f 374/9/4 372/9/4 375/9/4
f 366/9/4 374/9/4 376/9/4
f 376/9/4 374/9/4 377/9/4
f 380/6/5 379/6/5 378/6/5
f 381/6/5 379/6/5 380/6/5
f 386/4/5 383/4/5 382/4/5
f 387/4/5 383/4/5 386/4/5
f 388/4/5 385/4/5 384/4/5
f 389/4/5 385/4/5 388/4/5
f 394/11/5 391/11/5 390/11/5
f 394/11/5 393/11/5 392/11/5
f 394/11/5 392/11/5 391/11/5
f 395/11/5 393/11/5 394/11/5
f 396/11/5 393/11/5 395/11/5
f 397/11/5 393/11/5 396/11/5
f 399/1/5 396/1/5 395/1/5
f 400/1/5 396/1/5 399/1/5
f 402/11/5 399/11/5 398/11/5
f 402/11/5 401/11/5 400/11/5
f 402/11/5 400/11/5 399/11/5
f 403/11/5 401/11/5 402/11/5
f 407/10/5 405/10/5 404/10/5
f 407/4/5 406/4/5 405/4/5
f 408/4/5 406/4/5 407/4/5
f 409/10/5 407/10/5 404/10/5
f 410/10/5 407/10/5 409/10/5
f 413/3/5 412/3/5 411/3/5
f 414/3/5 412/3/5 413/3/5
f 415/10/5 409/10/5 404/10/5
f 417/10/5 416/10/5 415/10/5
f 417/10/5 415/10/5 404/10/5
f 418/10/5 416/10/5 417/10/5
f 422/4/5 420/4/5 419/4/5
f 423/10/5 421/10/5 420/10/5
f 423/4/5 420/4/5 422/4/5
f 424/10/5 421/10/5 423/10/5
f 430/3/5 429/3/5 428/3/5
f 431/3/5 429/3/5 430/3/5
f 432/3/5 426/3/5 425/3/5
f 432/3/5 427/3/5 426/3/5
f 433/3/5 427/3/5 432/3/5
f 434/10/5 421/10/5 424/10/5
f 435/10/5 421/10/5 434/10/5
f 438/3/5 437/3/5 436/3/5
f 439/3/5 437/3/5 438/3/5
f 442/3/5 441/3/5 440/3/5
f 443/3/5 441/3/5 442/3/5
f 448/5/5 445/5/5 444/5/5
f 449/5/5 445/5/5 448/5/5
f 450/5/5 447/5/5 446/5/5
f 451/5/5 447/5/5 450/5/5
f 456/5/5 453/5/5 452/5/5
f 457/5/5 453/5/5 456/5/5
f 460/9/5 455/9/5 454/9/5
f 461/9/5 459/9/5 458/9/5
f 462/9/5 460/9/5 454/9/5
f 462/9/5 461/9/5 460/9/5
f 463/9/5 459/9/5 461/9/5
f 463/9/5 461/9/5 462/9/5
f 468/5/5 465/5/5 464/5/5
f 469/5/5 465/5/5 468/5/5
f 470/5/5 467/5/5 466/5/5
f 471/5/5 467/5/5 470/5/5
f 474/9/5 473/9/5 472/9/5
f 475/9/5 473/9/5 474/9/5
f 476/9/5 473/9/5 475/9/5
f 477/9/5 473/9/5 476/9/5
f 478/9/5 474/9/5 472/9/5
f 479/9/5 474/9/5 478/9/5
f 480/9/5 476/9/5 475/9/5
f 481/9/5 476/9/5 480/9/5
f 482/9/5 473/9/5 477/9/5
f 483/9/5 473/9/5 482/9/5
f 484/10/6 485/10/6 487/10/6
f 485/4/6 486/4/6 488/4/6
f 487/10/6 485/10/6 488/10/6
f 488/4/6 486/4/6 489/4/6
f 489/4/6 486/4/6 490/4/6
f 491/3/6 492/3/6 493/3/6
f 493/3/6 492/3/6 494/3/6
f 495/10/6 496/10/6 498/10/6
f 497/10/6 498/10/6 499/10/6
f 498/10/6 496/10/6 500/10/6
f 499/10/6 498/10/6 500/10/6
f 501/4/6 502/4/6 504/4/6
f 502/10/6 503/10/6 505/10/6
f 504/4/6 502/4/6 505/4/6
f 505/10/6 503/10/6 506/10/6
f 507/3/6 508/3/6 509/3/6
f 509/3/6 508/3/6 510/3/6
f 506/10/6 503/10/6 511/10/6
f 511/10/6 503/10/6 512/10/6
f 513/3/6 514/3/6 515/3/6
f 515/3/6 514/3/6 516/3/6
f 517/3/6 518/3/6 519/3/6
f 517/3/6 519/3/6 521/3/6
f 519/3/6 520/3/6 521/3/6
f 521/3/6 520/3/6 522/3/6
f 523/3/6 524/3/6 525/3/6
f 525/3/6 524/3/6 526/3/6
f 527/5/6 528/5/6 531/5/6
f 531/5/6 528/5/6 532/5/6
f 529/5/6 530/5/6 533/5/6
f 533/5/6 530/5/6 534/5/6
f 535/5/6 536/5/6 537/5/6
f 537/5/6 536/5/6 538/5/6
f 539/9/6 540/9/6 541/9/6
f 541/9/6 540/9/6 542/9/6
f 539/9/6 541/9/6 543/9/6
f 543/9/6 541/9/6 544/9/6
f 542/9/6 540/9/6 545/9/6
f 545/9/6 540/9/6 546/9/6
f 547/9/6 548/9/6 549/9/6
f 549/9/6 548/9/6 550/9/6
f 547/9/6 549/9/6 551/9/6
f 551/9/6 549/9/6 552/9/6
f 550/9/6 548/9/6 553/9/6
f 553/9/6 548/9/6 554/9/6
f 555/9/6 556/9/6 557/9/6
f 557/9/6 556/9/6 558/9/6
