# MagicaVoxel @ ephtracy

# material
mtllib FrauPeng.mtl
usemtl palette

# normals
vn -1 0 0
vn 1 0 0
vn 0 0 1
vn 0 0 -1
vn 0 -1 0
vn 0 1 0

# texcoords
vt 0.0332031 0.5
vt 0.306641 0.5
vt 0.720703 0.5
vt 0.740234 0.5
vt 0.888672 0.5
vt 0.908203 0.5
vt 0.916016 0.5
vt 0.970703 0.5
vt 0.994141 0.5

# verts
v -5 9 3.5
v -5 9 -3.5
v -5 11 4.5
v -5 11 3.5
v -5 13 4.5
v -5 13 -3.5
v -4 0 3.5
v -4 0 -4.5
v -4 1 3.5
v -4 1 -4.5
v -4 2 1.5
v -4 2 0.5
v -4 3 1.5
v -4 3 0.5
v -4 6 1.5
v -4 6 0.5
v -3 1 3.5
v -3 1 -1.5
v -3 2 1.5
v -3 2 0.5
v -3 3 3.5
v -3 3 1.5
v -3 3 0.5
v -3 3 -1.5
v -3 6 3.5
v -3 6 1.5
v -3 6 0.5
v -3 6 -1.5
v -3 7 3.5
v -3 7 -1.5
v -3 9 3.5
v -3 9 -1.5
v -3 13 4.5
v -3 13 -2.5
v -3 14 4.5
v -3 14 -2.5
v 1 0 1.5
v 1 0 0.5
v 1 2 1.5
v 1 2 0.5
v 2 0 2.5
v 2 0 1.5
v 2 0 0.5
v 2 0 -0.5
v 2 1 2.5
v 2 1 1.5
v 2 1 0.5
v 2 1 -0.5
v 2 2 2.5
v 2 2 1.5
v 2 2 0.5
v 2 2 -0.5
v -2 0 2.5
v -2 0 1.5
v -2 0 0.5
v -2 0 -0.5
v -2 1 2.5
v -2 1 1.5
v -2 1 0.5
v -2 1 -0.5
v -2 2 2.5
v -2 2 1.5
v -2 2 0.5
v -2 2 -0.5
v -1 0 1.5
v -1 0 0.5
v -1 2 1.5
v -1 2 0.5
v 3 1 3.5
v 3 1 -1.5
v 3 2 1.5
v 3 2 0.5
v 3 3 3.5
v 3 3 1.5
v 3 3 0.5
v 3 3 -1.5
v 3 6 3.5
v 3 6 1.5
v 3 6 0.5
v 3 6 -1.5
v 3 7 3.5
v 3 7 -1.5
v 3 9 3.5
v 3 9 -1.5
v 3 13 4.5
v 3 13 -2.5
v 3 14 4.5
v 3 14 -2.5
v 4 0 3.5
v 4 0 -4.5
v 4 1 3.5
v 4 1 -4.5
v 4 2 1.5
v 4 2 0.5
v 4 3 1.5
v 4 3 0.5
v 4 6 1.5
v 4 6 0.5
v 5 9 3.5
v 5 9 -3.5
v 5 11 4.5
v 5 11 3.5
v 5 13 4.5
v 5 13 -3.5
v -5 11 4.5
v -5 13 4.5
v -3 13 4.5
v -3 14 4.5
v 3 13 4.5
v 3 14 4.5
v 5 11 4.5
v 5 13 4.5
v -5 9 3.5
v -5 11 3.5
v -4 0 3.5
v -4 1 3.5
v -3 1 3.5
v -3 3 3.5
v -3 6 3.5
v -3 7 3.5
v -3 9 3.5
v -3 10 3.5
v -3 11 3.5
v -2 6 3.5
v -2 7 3.5
v -2 9 3.5
v -2 10 3.5
v -1 7 3.5
v -1 8 3.5
v -1 9 3.5
v -1 10 3.5
v -1 11 3.5
v 1 7 3.5
v 1 8 3.5
v 1 9 3.5
v 1 10 3.5
v 1 11 3.5
v 2 6 3.5
v 2 7 3.5
v 2 9 3.5
v 2 10 3.5
v 3 1 3.5
v 3 3 3.5
v 3 6 3.5
v 3 7 3.5
v 3 9 3.5
v 3 10 3.5
v 3 11 3.5
v 4 0 3.5
v 4 1 3.5
v 5 9 3.5
v 5 11 3.5
v -4 2 1.5
v -4 3 1.5
v -4 6 1.5
v -3 2 1.5
v -3 3 1.5
v -3 6 1.5
v -2 0 1.5
v -2 1 1.5
v -2 2 1.5
v -1 0 1.5
v -1 2 1.5
v 1 0 1.5
v 1 2 1.5
v 2 0 1.5
v 2 1 1.5
v 2 2 1.5
v 3 2 1.5
v 3 3 1.5
v 3 6 1.5
v 4 2 1.5
v 4 3 1.5
v 4 6 1.5
v -2 0 -0.5
v -2 1 -0.5
v -2 2 -0.5
v 2 0 -0.5
v 2 1 -0.5
v 2 2 -0.5
v -2 0 2.5
v -2 1 2.5
v -2 2 2.5
v 2 0 2.5
v 2 1 2.5
v 2 2 2.5
v -4 2 0.5
v -4 3 0.5
v -4 6 0.5
v -3 2 0.5
v -3 3 0.5
v -3 6 0.5
v -2 0 0.5
v -2 1 0.5
v -2 2 0.5
v -1 0 0.5
v -1 2 0.5
v 1 0 0.5
v 1 2 0.5
v 2 0 0.5
v 2 1 0.5
v 2 2 0.5
v 3 2 0.5
v 3 3 0.5
v 3 6 0.5
v 4 2 0.5
v 4 3 0.5
v 4 6 0.5
v -3 1 -1.5
v -3 3 -1.5
v -3 6 -1.5
v -3 7 -1.5
v -3 9 -1.5
v 3 1 -1.5
v 3 3 -1.5
v 3 6 -1.5
v 3 7 -1.5
v 3 9 -1.5
v -3 13 -2.5
v -3 14 -2.5
v 3 13 -2.5
v 3 14 -2.5
v -5 9 -3.5
v -5 13 -3.5
v 5 9 -3.5
v 5 13 -3.5
v -4 0 -4.5
v -4 1 -4.5
v 4 0 -4.5
v 4 1 -4.5
v -4 0 3.5
v 4 0 3.5
v -3 0 2.5
v -2 0 2.5
v 2 0 2.5
v 3 0 2.5
v -2 0 1.5
v -1 0 1.5
v 1 0 1.5
v 2 0 1.5
v -2 0 0.5
v -1 0 0.5
v 1 0 0.5
v 2 0 0.5
v -2 0 -0.5
v 2 0 -0.5
v -3 0 -1.5
v 3 0 -1.5
v -4 0 -4.5
v 4 0 -4.5
v -2 2 2.5
v 2 2 2.5
v -4 2 1.5
v -3 2 1.5
v -2 2 1.5
v -1 2 1.5
v 1 2 1.5
v 2 2 1.5
v 3 2 1.5
v 4 2 1.5
v -4 2 0.5
v -3 2 0.5
v -2 2 0.5
v -1 2 0.5
v 1 2 0.5
v 2 2 0.5
v 3 2 0.5
v 4 2 0.5
v -2 2 -0.5
v 2 2 -0.5
v -5 9 3.5
v -3 9 3.5
v 3 9 3.5
v 5 9 3.5
v -3 9 -1.5
v 3 9 -1.5
v -5 9 -3.5
v 5 9 -3.5
v -5 11 4.5
v 5 11 4.5
v -5 11 3.5
v -3 11 3.5
v -1 11 3.5
v 1 11 3.5
v 3 11 3.5
v 5 11 3.5
v -4 1 3.5
v -3 1 3.5
v 3 1 3.5
v 4 1 3.5
v -3 1 -1.5
v 3 1 -1.5
v -4 1 -4.5
v 4 1 -4.5
v -4 6 1.5
v -3 6 1.5
v 3 6 1.5
v 4 6 1.5
v -4 6 0.5
v -3 6 0.5
v 3 6 0.5
v 4 6 0.5
v -5 13 4.5
v -3 13 4.5
v 3 13 4.5
v 5 13 4.5
v -3 13 -2.5
v 3 13 -2.5
v -5 13 -3.5
v 5 13 -3.5
v -3 14 4.5
v 3 14 4.5
v -3 14 -2.5
v 3 14 -2.5

# faces
f 4/9/1 2/9/1 1/9/1
f 5/9/1 4/9/1 3/9/1
f 6/9/1 2/9/1 4/9/1
f 6/9/1 4/9/1 5/9/1
f 9/6/1 8/6/1 7/6/1
f 10/6/1 8/6/1 9/6/1
f 13/3/1 12/3/1 11/3/1
f 14/3/1 12/3/1 13/3/1
f 15/6/1 14/6/1 13/6/1
f 16/6/1 14/6/1 15/6/1
f 19/6/1 18/6/1 17/6/1
f 20/6/1 18/6/1 19/6/1
f 21/6/1 19/6/1 17/6/1
f 22/6/1 19/6/1 21/6/1
f 23/6/1 18/6/1 20/6/1
f 24/6/1 18/6/1 23/6/1
f 25/7/1 22/7/1 21/7/1
f 26/7/1 22/7/1 25/7/1
f 27/7/1 24/7/1 23/7/1
f 28/7/1 24/7/1 27/7/1
f 29/6/1 26/6/1 25/6/1
f 29/6/1 27/6/1 26/6/1
f 29/6/1 28/6/1 27/6/1
f 30/6/1 28/6/1 29/6/1
f 31/8/1 30/8/1 29/8/1
f 32/8/1 30/8/1 31/8/1
f 35/9/1 34/9/1 33/9/1
f 36/9/1 34/9/1 35/9/1
f 39/2/1 38/2/1 37/2/1
f 40/2/1 38/2/1 39/2/1
f 45/8/1 42/8/1 41/8/1
f 46/8/1 42/8/1 45/8/1
f 47/8/1 44/8/1 43/8/1
f 48/8/1 44/8/1 47/8/1
f 49/6/1 46/6/1 45/6/1
f 50/6/1 46/6/1 49/6/1
f 51/6/1 48/6/1 47/6/1
f 52/6/1 48/6/1 51/6/1
f 53/8/2 54/8/2 57/8/2
f 57/8/2 54/8/2 58/8/2
f 55/8/2 56/8/2 59/8/2
f 59/8/2 56/8/2 60/8/2
f 57/6/2 58/6/2 61/6/2
f 61/6/2 58/6/2 62/6/2
f 59/6/2 60/6/2 63/6/2
f 63/6/2 60/6/2 64/6/2
f 65/2/2 66/2/2 67/2/2
f 67/2/2 66/2/2 68/2/2
f 69/6/2 70/6/2 71/6/2
f 71/6/2 70/6/2 72/6/2
f 69/6/2 71/6/2 73/6/2
f 73/6/2 71/6/2 74/6/2
f 72/6/2 70/6/2 75/6/2
f 75/6/2 70/6/2 76/6/2
f 73/7/2 74/7/2 77/7/2
f 77/7/2 74/7/2 78/7/2
f 75/7/2 76/7/2 79/7/2
f 79/7/2 76/7/2 80/7/2
f 77/6/2 78/6/2 81/6/2
f 78/6/2 79/6/2 81/6/2
f 79/6/2 80/6/2 81/6/2
f 81/6/2 80/6/2 82/6/2
f 81/8/2 82/8/2 83/8/2
f 83/8/2 82/8/2 84/8/2
f 85/9/2 86/9/2 87/9/2
f 87/9/2 86/9/2 88/9/2
f 89/6/2 90/6/2 91/6/2
f 91/6/2 90/6/2 92/6/2
f 93/3/2 94/3/2 95/3/2
f 95/3/2 94/3/2 96/3/2
f 95/6/2 96/6/2 97/6/2
f 97/6/2 96/6/2 98/6/2
f 99/9/2 100/9/2 102/9/2
f 101/9/2 102/9/2 103/9/2
f 102/9/2 100/9/2 104/9/2
f 103/9/2 102/9/2 104/9/2
f 107/9/3 106/9/3 105/9/3
f 109/9/3 107/9/3 105/9/3
f 109/9/3 108/9/3 107/9/3
f 110/9/3 108/9/3 109/9/3
f 111/9/3 109/9/3 105/9/3
f 112/9/3 109/9/3 111/9/3
f 117/6/3 116/6/3 115/6/3
f 121/9/3 114/9/3 113/9/3
f 122/9/3 114/9/3 121/9/3
f 123/9/3 114/9/3 122/9/3
f 124/6/3 120/6/3 119/6/3
f 124/7/3 119/7/3 118/7/3
f 125/8/3 121/8/3 120/8/3
f 125/6/3 120/6/3 124/6/3
f 125/8/3 122/8/3 121/8/3
f 126/8/3 122/8/3 125/8/3
f 127/5/3 123/5/3 122/5/3
f 127/8/3 122/8/3 126/8/3
f 128/8/3 126/8/3 125/8/3
f 128/8/3 125/8/3 124/8/3
f 129/8/3 126/8/3 128/8/3
f 130/4/3 127/4/3 126/4/3
f 130/8/3 126/8/3 129/8/3
f 131/5/3 123/5/3 127/5/3
f 131/4/3 127/4/3 130/4/3
f 132/5/3 123/5/3 131/5/3
f 133/5/3 129/5/3 128/5/3
f 133/8/3 128/8/3 124/8/3
f 134/8/3 130/8/3 129/8/3
f 134/5/3 129/5/3 133/5/3
f 134/8/3 132/8/3 131/8/3
f 134/8/3 131/8/3 130/8/3
f 135/8/3 132/8/3 134/8/3
f 136/8/3 132/8/3 135/8/3
f 137/8/3 132/8/3 136/8/3
f 138/8/3 133/8/3 124/8/3
f 138/7/3 124/7/3 118/7/3
f 138/8/3 134/8/3 133/8/3
f 138/8/3 135/8/3 134/8/3
f 139/8/3 135/8/3 138/8/3
f 140/4/3 136/4/3 135/4/3
f 140/8/3 135/8/3 139/8/3
f 141/5/3 137/5/3 136/5/3
f 141/4/3 136/4/3 140/4/3
f 142/6/3 117/6/3 115/6/3
f 142/6/3 118/6/3 117/6/3
f 143/7/3 138/7/3 118/7/3
f 143/6/3 118/6/3 142/6/3
f 144/6/3 139/6/3 138/6/3
f 144/7/3 138/7/3 143/7/3
f 145/8/3 141/8/3 140/8/3
f 145/6/3 139/6/3 144/6/3
f 145/8/3 140/8/3 139/8/3
f 146/8/3 141/8/3 145/8/3
f 147/5/3 137/5/3 141/5/3
f 147/8/3 141/8/3 146/8/3
f 148/5/3 137/5/3 147/5/3
f 149/6/3 142/6/3 115/6/3
f 150/6/3 142/6/3 149/6/3
f 151/9/3 148/9/3 147/9/3
f 151/9/3 147/9/3 146/9/3
f 152/9/3 148/9/3 151/9/3
f 156/3/3 154/3/3 153/3/3
f 157/6/3 155/6/3 154/6/3
f 157/3/3 154/3/3 156/3/3
f 158/6/3 155/6/3 157/6/3
f 162/2/3 160/2/3 159/2/3
f 162/2/3 161/2/3 160/2/3
f 163/2/3 161/2/3 162/2/3
f 166/2/3 165/2/3 164/2/3
f 167/2/3 165/2/3 166/2/3
f 168/2/3 165/2/3 167/2/3
f 172/3/3 170/3/3 169/3/3
f 173/6/3 171/6/3 170/6/3
f 173/3/3 170/3/3 172/3/3
f 174/6/3 171/6/3 173/6/3
f 178/8/3 176/8/3 175/8/3
f 179/6/3 177/6/3 176/6/3
f 179/8/3 176/8/3 178/8/3
f 180/6/3 177/6/3 179/6/3
f 181/6/4 182/6/4 184/6/4
f 182/6/4 183/6/4 184/6/4
f 184/6/4 183/6/4 185/6/4
f 185/6/4 183/6/4 186/6/4
f 187/3/4 188/3/4 190/3/4
f 188/6/4 189/6/4 191/6/4
f 190/3/4 188/3/4 191/3/4
f 191/6/4 189/6/4 192/6/4
f 193/2/4 194/2/4 196/2/4
f 194/2/4 195/2/4 196/2/4
f 196/2/4 195/2/4 197/2/4
f 198/2/4 199/2/4 200/2/4
f 200/2/4 199/2/4 201/2/4
f 201/2/4 199/2/4 202/2/4
f 203/3/4 204/3/4 206/3/4
f 204/6/4 205/6/4 207/6/4
f 206/3/4 204/3/4 207/3/4
f 207/6/4 205/6/4 208/6/4
f 209/6/4 210/6/4 214/6/4
f 210/7/4 211/7/4 215/7/4
f 214/6/4 210/6/4 215/6/4
f 211/6/4 212/6/4 216/6/4
f 215/7/4 211/7/4 216/7/4
f 212/8/4 213/8/4 217/8/4
f 216/6/4 212/6/4 217/6/4
f 217/8/4 213/8/4 218/8/4
f 219/9/4 220/9/4 221/9/4
f 221/9/4 220/9/4 222/9/4
f 223/9/4 224/9/4 225/9/4
f 225/9/4 224/9/4 226/9/4
f 227/6/4 228/6/4 229/6/4
f 229/6/4 228/6/4 230/6/4
f 233/6/5 232/6/5 231/6/5
f 234/6/5 232/6/5 233/6/5
f 235/6/5 232/6/5 234/6/5
f 236/6/5 232/6/5 235/6/5
f 237/8/5 234/8/5 233/8/5
f 240/8/5 236/8/5 235/8/5
f 241/2/5 238/2/5 237/2/5
f 241/8/5 237/8/5 233/8/5
f 242/2/5 238/2/5 241/2/5
f 243/2/5 240/2/5 239/2/5
f 244/8/5 236/8/5 240/8/5
f 244/2/5 240/2/5 243/2/5
f 245/8/5 241/8/5 233/8/5
f 246/8/5 236/8/5 244/8/5
f 247/6/5 233/6/5 231/6/5
f 247/8/5 246/8/5 245/8/5
f 247/8/5 245/8/5 233/8/5
f 248/8/5 236/8/5 246/8/5
f 248/8/5 246/8/5 247/8/5
f 248/6/5 232/6/5 236/6/5
f 249/6/5 247/6/5 231/6/5
f 249/6/5 248/6/5 247/6/5
f 250/6/5 232/6/5 248/6/5
f 250/6/5 248/6/5 249/6/5
f 255/1/5 252/1/5 251/1/5
f 256/1/5 252/1/5 255/1/5
f 257/1/5 252/1/5 256/1/5
f 258/1/5 252/1/5 257/1/5
f 261/3/5 254/3/5 253/3/5
f 262/3/5 254/3/5 261/3/5
f 264/1/5 257/1/5 256/1/5
f 265/1/5 257/1/5 264/1/5
f 267/3/5 260/3/5 259/3/5
f 268/3/5 260/3/5 267/3/5
f 269/1/5 266/1/5 265/1/5
f 269/1/5 264/1/5 263/1/5
f 269/1/5 265/1/5 264/1/5
f 270/1/5 266/1/5 269/1/5
f 275/9/5 272/9/5 271/9/5
f 276/9/5 274/9/5 273/9/5
f 277/9/5 275/9/5 271/9/5
f 277/9/5 276/9/5 275/9/5
f 278/9/5 274/9/5 276/9/5
f 278/9/5 276/9/5 277/9/5
f 281/9/5 280/9/5 279/9/5
f 282/9/5 280/9/5 281/9/5
f 283/9/5 280/9/5 282/9/5
f 284/9/5 280/9/5 283/9/5
f 285/9/5 280/9/5 284/9/5
f 286/9/5 280/9/5 285/9/5
f 287/6/6 288/6/6 291/6/6
f 289/6/6 290/6/6 292/6/6
f 287/6/6 291/6/6 293/6/6
f 291/6/6 292/6/6 293/6/6
f 292/6/6 290/6/6 294/6/6
f 293/6/6 292/6/6 294/6/6
f 295/6/6 296/6/6 299/6/6
f 299/6/6 296/6/6 300/6/6
f 297/6/6 298/6/6 301/6/6
f 301/6/6 298/6/6 302/6/6
f 303/9/6 304/9/6 307/9/6
f 305/9/6 306/9/6 308/9/6
f 303/9/6 307/9/6 309/9/6
f 307/9/6 308/9/6 309/9/6
f 308/9/6 306/9/6 310/9/6
f 309/9/6 308/9/6 310/9/6
f 311/9/6 312/9/6 313/9/6
f 313/9/6 312/9/6 314/9/6
