# MagicaVoxel @ Ephtracy

# material
mtllib Gott.mtl
usemtl palette

# normals
vn -1 0 0
vn 1 0 0
vn 0 0 1
vn 0 0 -1
vn 0 -1 0
vn 0 1 0

# texcoords
vt 0.0605469 0.5
vt 0.138672 0.5
vt 0.345703 0.5
vt 0.662109 0.5
vt 0.970703 0.5
vt 0.974609 0.5

# verts
v -3.5 3 -1.5
v -3.5 3 -3.5
v -3.5 4 -2.5
v -3.5 4 -3.5
v -3.5 6 0.5
v -3.5 6 -0.5
v -3.5 7 0.5
v -3.5 7 -0.5
v -3.5 10 0.5
v -3.5 10 -0.5
v -3.5 12 2.5
v -3.5 12 -1.5
v -3.5 15 2.5
v -3.5 15 -2.5
v -2.5 4 0.5
v -2.5 4 -0.5
v -2.5 5 0.5
v -2.5 5 -0.5
v -2.5 6 1.5
v -2.5 6 0.5
v -2.5 6 -0.5
v -2.5 6 -1.5
v -2.5 7 0.5
v -2.5 7 -0.5
v -2.5 9 3.5
v -2.5 9 2.5
v -2.5 10 2.5
v -2.5 10 1.5
v -2.5 10 0.5
v -2.5 10 -0.5
v -2.5 10 -1.5
v -2.5 12 2.5
v -2.5 12 -1.5
v -2.5 13 3.5
v -2.5 13 2.5
v -2.5 15 2.5
v -2.5 15 -1.5
v -2.5 16 2.5
v -2.5 16 -1.5
v -1.5 8 3.5
v -1.5 8 2.5
v -1.5 9 3.5
v -1.5 9 2.5
v 1.5 4 0.5
v 1.5 4 -0.5
v 1.5 5 0.5
v 1.5 5 -0.5
v 1.5 6 0.5
v 1.5 6 -0.5
v 1.5 11 3.5
v 1.5 11 2.5
v 1.5 12 3.5
v 1.5 12 2.5
v -1.5 4 0.5
v -1.5 4 -0.5
v -1.5 5 0.5
v -1.5 5 -0.5
v -1.5 6 0.5
v -1.5 6 -0.5
v -1.5 11 3.5
v -1.5 11 2.5
v -1.5 12 3.5
v -1.5 12 2.5
v 1.5 8 3.5
v 1.5 8 2.5
v 1.5 9 3.5
v 1.5 9 2.5
v 2.5 4 0.5
v 2.5 4 -0.5
v 2.5 5 0.5
v 2.5 5 -0.5
v 2.5 6 1.5
v 2.5 6 0.5
v 2.5 6 -0.5
v 2.5 6 -1.5
v 2.5 7 0.5
v 2.5 7 -0.5
v 2.5 9 3.5
v 2.5 9 2.5
v 2.5 10 2.5
v 2.5 10 1.5
v 2.5 10 0.5
v 2.5 10 -0.5
v 2.5 10 -1.5
v 2.5 12 2.5
v 2.5 12 -1.5
v 2.5 13 3.5
v 2.5 13 2.5
v 2.5 15 2.5
v 2.5 15 -1.5
v 2.5 16 2.5
v 2.5 16 -1.5
v 3.5 3 -1.5
v 3.5 3 -3.5
v 3.5 4 -2.5
v 3.5 4 -3.5
v 3.5 6 0.5
v 3.5 6 -0.5
v 3.5 7 0.5
v 3.5 7 -0.5
v 3.5 10 0.5
v 3.5 10 -0.5
v 3.5 12 2.5
v 3.5 12 -1.5
v 3.5 15 2.5
v 3.5 15 -2.5
v -2.5 9 3.5
v -2.5 13 3.5
v -1.5 8 3.5
v -1.5 9 3.5
v -1.5 11 3.5
v -1.5 12 3.5
v 1.5 8 3.5
v 1.5 9 3.5
v 1.5 11 3.5
v 1.5 12 3.5
v 2.5 9 3.5
v 2.5 13 3.5
v -3.5 12 2.5
v -3.5 15 2.5
v -2.5 12 2.5
v -2.5 13 2.5
v -2.5 14 2.5
v -2.5 15 2.5
v -2.5 16 2.5
v -1.5 11 2.5
v -1.5 12 2.5
v -1.5 14 2.5
v -1.5 15 2.5
v 1.5 11 2.5
v 1.5 12 2.5
v 1.5 14 2.5
v 1.5 15 2.5
v 2.5 12 2.5
v 2.5 13 2.5
v 2.5 14 2.5
v 2.5 15 2.5
v 2.5 16 2.5
v 3.5 12 2.5
v 3.5 15 2.5
v -2.5 6 1.5
v -2.5 10 1.5
v 2.5 6 1.5
v 2.5 10 1.5
v -3.5 6 0.5
v -3.5 7 0.5
v -3.5 10 0.5
v -2.5 4 0.5
v -2.5 5 0.5
v -2.5 6 0.5
v -2.5 7 0.5
v -2.5 10 0.5
v -1.5 4 0.5
v -1.5 5 0.5
v -1.5 6 0.5
v 1.5 4 0.5
v 1.5 5 0.5
v 1.5 6 0.5
v 2.5 4 0.5
v 2.5 5 0.5
v 2.5 6 0.5
v 2.5 7 0.5
v 2.5 10 0.5
v 3.5 6 0.5
v 3.5 7 0.5
v 3.5 10 0.5
v -3.5 3 -1.5
v -3.5 12 -1.5
v -2.5 6 -1.5
v -2.5 10 -1.5
v -2.5 12 -1.5
v 2.5 6 -1.5
v 2.5 10 -1.5
v 2.5 12 -1.5
v 3.5 3 -1.5
v 3.5 12 -1.5
v -2.5 9 2.5
v -2.5 10 2.5
v -1.5 8 2.5
v -1.5 9 2.5
v 1.5 8 2.5
v 1.5 9 2.5
v 2.5 9 2.5
v 2.5 10 2.5
v -3.5 6 -0.5
v -3.5 7 -0.5
v -3.5 10 -0.5
v -2.5 4 -0.5
v -2.5 5 -0.5
v -2.5 6 -0.5
v -2.5 7 -0.5
v -2.5 10 -0.5
v -1.5 4 -0.5
v -1.5 5 -0.5
v -1.5 6 -0.5
v 1.5 4 -0.5
v 1.5 5 -0.5
v 1.5 6 -0.5
v 2.5 4 -0.5
v 2.5 5 -0.5
v 2.5 6 -0.5
v 2.5 7 -0.5
v 2.5 10 -0.5
v 3.5 6 -0.5
v 3.5 7 -0.5
v 3.5 10 -0.5
v -2.5 15 -1.5
v -2.5 16 -1.5
v 2.5 15 -1.5
v 2.5 16 -1.5
v -3.5 4 -2.5
v -3.5 15 -2.5
v 3.5 4 -2.5
v 3.5 15 -2.5
v -3.5 3 -3.5
v -3.5 4 -3.5
v 3.5 3 -3.5
v 3.5 4 -3.5
v -3.5 3 -1.5
v 3.5 3 -1.5
v -3.5 3 -3.5
v 3.5 3 -3.5
v -2.5 4 0.5
v -1.5 4 0.5
v 1.5 4 0.5
v 2.5 4 0.5
v -2.5 4 -0.5
v -1.5 4 -0.5
v 1.5 4 -0.5
v 2.5 4 -0.5
v -2.5 6 1.5
v 2.5 6 1.5
v -3.5 6 0.5
v -2.5 6 0.5
v -1.5 6 0.5
v 1.5 6 0.5
v 2.5 6 0.5
v 3.5 6 0.5
v -3.5 6 -0.5
v -2.5 6 -0.5
v -1.5 6 -0.5
v 1.5 6 -0.5
v 2.5 6 -0.5
v 3.5 6 -0.5
v -2.5 6 -1.5
v 2.5 6 -1.5
v -1.5 8 3.5
v 1.5 8 3.5
v -1.5 8 2.5
v 1.5 8 2.5
v -2.5 9 3.5
v -1.5 9 3.5
v 1.5 9 3.5
v 2.5 9 3.5
v -2.5 9 2.5
v -1.5 9 2.5
v 1.5 9 2.5
v 2.5 9 2.5
v -2.5 10 2.5
v 2.5 10 2.5
v -2.5 10 1.5
v 2.5 10 1.5
v -1.5 12 3.5
v 1.5 12 3.5
v -3.5 12 2.5
v -2.5 12 2.5
v -1.5 12 2.5
v 1.5 12 2.5
v 2.5 12 2.5
v 3.5 12 2.5
v -3.5 12 -1.5
v -2.5 12 -1.5
v 2.5 12 -1.5
v 3.5 12 -1.5
v -3.5 4 -2.5
v 3.5 4 -2.5
v -3.5 4 -3.5
v 3.5 4 -3.5
v -3.5 10 0.5
v -2.5 10 0.5
v 2.5 10 0.5
v 3.5 10 0.5
v -3.5 10 -0.5
v -2.5 10 -0.5
v 2.5 10 -0.5
v 3.5 10 -0.5
v -1.5 11 3.5
v 1.5 11 3.5
v -1.5 11 2.5
v 1.5 11 2.5
v -2.5 13 3.5
v 2.5 13 3.5
v -2.5 13 2.5
v 2.5 13 2.5
v -3.5 15 2.5
v -2.5 15 2.5
v 2.5 15 2.5
v 3.5 15 2.5
v -2.5 15 -1.5
v 2.5 15 -1.5
v -3.5 15 -2.5
v 3.5 15 -2.5
v -2.5 16 2.5
v 2.5 16 2.5
v -2.5 16 -1.5
v 2.5 16 -1.5

# faces
f 3/5/1 2/5/1 1/5/1
f 4/5/1 2/5/1 3/5/1
f 7/4/1 6/4/1 5/4/1
f 8/4/1 6/4/1 7/4/1
f 9/6/1 8/6/1 7/6/1
f 10/6/1 8/6/1 9/6/1
f 12/5/1 3/5/1 1/5/1
f 13/5/1 12/5/1 11/5/1
f 14/5/1 3/5/1 12/5/1
f 14/5/1 12/5/1 13/5/1
f 17/4/1 16/4/1 15/4/1
f 18/4/1 16/4/1 17/4/1
f 20/6/1 18/6/1 17/6/1
f 21/6/1 18/6/1 20/6/1
f 23/6/1 20/6/1 19/6/1
f 24/6/1 22/6/1 21/6/1
f 27/5/1 26/5/1 25/5/1
f 28/6/1 23/6/1 19/6/1
f 29/6/1 23/6/1 28/6/1
f 30/6/1 22/6/1 24/6/1
f 31/6/1 22/6/1 30/6/1
f 32/5/1 27/5/1 25/5/1
f 32/4/1 29/4/1 28/4/1
f 32/4/1 31/4/1 30/4/1
f 32/4/1 30/4/1 29/4/1
f 32/4/1 28/4/1 27/4/1
f 33/4/1 31/4/1 32/4/1
f 34/5/1 32/5/1 25/5/1
f 35/5/1 32/5/1 34/5/1
f 38/4/1 37/4/1 36/4/1
f 39/4/1 37/4/1 38/4/1
f 42/5/1 41/5/1 40/5/1
f 43/5/1 41/5/1 42/5/1
f 46/4/1 45/4/1 44/4/1
f 47/4/1 45/4/1 46/4/1
f 48/6/1 47/6/1 46/6/1
f 49/6/1 47/6/1 48/6/1
f 52/5/1 51/5/1 50/5/1
f 53/5/1 51/5/1 52/5/1
f 54/4/2 55/4/2 56/4/2
f 56/4/2 55/4/2 57/4/2
f 56/6/2 57/6/2 58/6/2
f 58/6/2 57/6/2 59/6/2
f 60/5/2 61/5/2 62/5/2
f 62/5/2 61/5/2 63/5/2
f 64/5/2 65/5/2 66/5/2
f 66/5/2 65/5/2 67/5/2
f 68/4/2 69/4/2 70/4/2
f 70/4/2 69/4/2 71/4/2
f 70/6/2 71/6/2 73/6/2
f 73/6/2 71/6/2 74/6/2
f 72/6/2 73/6/2 76/6/2
f 74/6/2 75/6/2 77/6/2
f 78/5/2 79/5/2 80/5/2
f 72/6/2 76/6/2 81/6/2
f 81/6/2 76/6/2 82/6/2
f 77/6/2 75/6/2 83/6/2
f 83/6/2 75/6/2 84/6/2
f 78/5/2 80/5/2 85/5/2
f 81/4/2 82/4/2 85/4/2
f 83/4/2 84/4/2 85/4/2
f 82/4/2 83/4/2 85/4/2
f 80/4/2 81/4/2 85/4/2
f 85/4/2 84/4/2 86/4/2
f 78/5/2 85/5/2 87/5/2
f 87/5/2 85/5/2 88/5/2
f 89/4/2 90/4/2 91/4/2
f 91/4/2 90/4/2 92/4/2
f 93/5/2 94/5/2 95/5/2
f 95/5/2 94/5/2 96/5/2
f 97/4/2 98/4/2 99/4/2
f 99/4/2 98/4/2 100/4/2
f 99/6/2 100/6/2 101/6/2
f 101/6/2 100/6/2 102/6/2
f 93/5/2 95/5/2 104/5/2
f 103/5/2 104/5/2 105/5/2
f 104/5/2 95/5/2 106/5/2
f 105/5/2 104/5/2 106/5/2
f 110/5/3 108/5/3 107/5/3
f 111/5/3 108/5/3 110/5/3
f 112/5/3 108/5/3 111/5/3
f 113/5/3 110/5/3 109/5/3
f 113/5/3 111/5/3 110/5/3
f 114/5/3 111/5/3 113/5/3
f 115/5/3 111/5/3 114/5/3
f 116/5/3 108/5/3 112/5/3
f 117/5/3 115/5/3 114/5/3
f 117/5/3 116/5/3 115/5/3
f 118/5/3 108/5/3 116/5/3
f 118/5/3 116/5/3 117/5/3
f 121/5/3 120/5/3 119/5/3
f 122/5/3 120/5/3 121/5/3
f 123/5/3 120/5/3 122/5/3
f 124/5/3 120/5/3 123/5/3
f 128/4/3 123/4/3 122/4/3
f 128/3/3 124/3/3 123/3/3
f 129/4/3 125/4/3 124/4/3
f 129/3/3 124/3/3 128/3/3
f 130/4/3 127/4/3 126/4/3
f 131/4/3 127/4/3 130/4/3
f 132/4/3 128/4/3 122/4/3
f 132/4/3 129/4/3 128/4/3
f 133/4/3 125/4/3 129/4/3
f 133/4/3 129/4/3 132/4/3
f 135/4/3 132/4/3 122/4/3
f 136/3/3 133/3/3 132/3/3
f 136/4/3 132/4/3 135/4/3
f 137/4/3 125/4/3 133/4/3
f 137/3/3 133/3/3 136/3/3
f 138/4/3 125/4/3 137/4/3
f 139/5/3 136/5/3 135/5/3
f 139/5/3 135/5/3 134/5/3
f 139/5/3 137/5/3 136/5/3
f 140/5/3 137/5/3 139/5/3
f 143/6/3 142/6/3 141/6/3
f 144/6/3 142/6/3 143/6/3
f 150/4/3 146/4/3 145/4/3
f 151/6/3 147/6/3 146/6/3
f 151/4/3 146/4/3 150/4/3
f 152/6/3 147/6/3 151/6/3
f 153/4/3 149/4/3 148/4/3
f 154/6/3 150/6/3 149/6/3
f 154/4/3 149/4/3 153/4/3
f 155/6/3 150/6/3 154/6/3
f 159/4/3 157/4/3 156/4/3
f 160/6/3 158/6/3 157/6/3
f 160/4/3 157/4/3 159/4/3
f 161/6/3 158/6/3 160/6/3
f 164/4/3 162/4/3 161/4/3
f 165/6/3 163/6/3 162/6/3
f 165/4/3 162/4/3 164/4/3
f 166/6/3 163/6/3 165/6/3
f 169/5/3 168/5/3 167/5/3
f 170/5/3 168/5/3 169/5/3
f 171/5/3 168/5/3 170/5/3
f 172/5/3 169/5/3 167/5/3
f 175/5/3 172/5/3 167/5/3
f 175/5/3 174/5/3 173/5/3
f 175/5/3 173/5/3 172/5/3
f 176/5/3 174/5/3 175/5/3
f 177/5/4 178/5/4 180/5/4
f 179/5/4 180/5/4 181/5/4
f 180/5/4 178/5/4 182/5/4
f 181/5/4 180/5/4 182/5/4
f 182/5/4 178/5/4 183/5/4
f 183/5/4 178/5/4 184/5/4
f 185/4/4 186/4/4 190/4/4
f 186/6/4 187/6/4 191/6/4
f 190/4/4 186/4/4 191/4/4
f 191/6/4 187/6/4 192/6/4
f 188/4/4 189/4/4 193/4/4
f 189/6/4 190/6/4 194/6/4
f 193/4/4 189/4/4 194/4/4
f 194/6/4 190/6/4 195/6/4
f 196/4/4 197/4/4 199/4/4
f 197/6/4 198/6/4 200/6/4
f 199/4/4 197/4/4 200/4/4
f 200/6/4 198/6/4 201/6/4
f 201/4/4 202/4/4 204/4/4
f 202/6/4 203/6/4 205/6/4
f 204/4/4 202/4/4 205/4/4
f 205/6/4 203/6/4 206/6/4
f 207/4/4 208/4/4 209/4/4
f 209/4/4 208/4/4 210/4/4
f 211/5/4 212/5/4 213/5/4
f 213/5/4 212/5/4 214/5/4
f 215/5/4 216/5/4 217/5/4
f 217/5/4 216/5/4 218/5/4
f 221/5/5 220/5/5 219/5/5
f 222/5/5 220/5/5 221/5/5
f 227/4/5 224/4/5 223/4/5
f 228/4/5 224/4/5 227/4/5
f 229/4/5 226/4/5 225/4/5
f 230/4/5 226/4/5 229/4/5
f 234/6/5 232/6/5 231/6/5
f 235/6/5 232/6/5 234/6/5
f 236/6/5 232/6/5 235/6/5
f 237/6/5 232/6/5 236/6/5
f 239/4/5 234/4/5 233/4/5
f 240/4/5 234/4/5 239/4/5
f 241/6/5 236/6/5 235/6/5
f 242/6/5 236/6/5 241/6/5
f 243/4/5 238/4/5 237/4/5
f 244/4/5 238/4/5 243/4/5
f 245/6/5 242/6/5 241/6/5
f 245/6/5 243/6/5 242/6/5
f 245/6/5 241/6/5 240/6/5
f 246/6/5 243/6/5 245/6/5
f 249/5/5 248/5/5 247/5/5
f 250/5/5 248/5/5 249/5/5
f 255/5/5 252/5/5 251/5/5
f 256/5/5 252/5/5 255/5/5
f 257/5/5 254/5/5 253/5/5
f 258/5/5 254/5/5 257/5/5
f 261/4/5 260/4/5 259/4/5
f 262/4/5 260/4/5 261/4/5
f 267/5/5 264/5/5 263/5/5
f 268/5/5 264/5/5 267/5/5
f 271/5/5 266/5/5 265/5/5
f 272/5/5 266/5/5 271/5/5
f 273/5/5 270/5/5 269/5/5
f 274/5/5 270/5/5 273/5/5
f 275/5/6 276/5/6 277/5/6
f 277/5/6 276/5/6 278/5/6
f 279/6/6 280/6/6 283/6/6
f 283/6/6 280/6/6 284/6/6
f 281/6/6 282/6/6 285/6/6
f 285/6/6 282/6/6 286/6/6
f 287/5/6 288/5/6 289/5/6
f 289/5/6 288/5/6 290/5/6
f 291/5/6 292/5/6 293/5/6
f 293/5/6 292/5/6 294/5/6
f 295/5/6 296/5/6 299/5/6
f 297/5/6 298/5/6 300/5/6
f 295/5/6 299/5/6 301/5/6
f 299/5/6 300/5/6 301/5/6
f 300/5/6 298/5/6 302/5/6
f 301/5/6 300/5/6 302/5/6
f 303/4/6 304/4/6 305/4/6
f 305/4/6 304/4/6 306/4/6
