# MagicaVoxel @ Ephtracy

# material
mtllib jan - normal.mtl
usemtl palette

# normals
vn -1 0 0
vn 1 0 0
vn 0 0 1
vn 0 0 -1
vn 0 -1 0
vn 0 1 0

# texcoords
vt 0.720703 0.5
vt 0.794922 0.5
vt 0.818359 0.5
vt 0.923828 0.5
vt 0.970703 0.5
vt 0.986328 0.5
vt 0.990234 0.5

# verts
v -3.5 2 -0
v -3.5 2 -1
v -3.5 3 -0
v -3.5 3 -1
v -3.5 6 -0
v -3.5 6 -1
v -3.5 7 -2
v -3.5 7 -3
v -3.5 9 1
v -3.5 9 -2
v -3.5 10 2
v -3.5 10 1
v -3.5 12 3
v -3.5 12 2
v -3.5 13 3
v -3.5 13 -3
v -2.5 0 -0
v -2.5 0 -1
v -2.5 2 1
v -2.5 2 -0
v -2.5 2 -1
v -2.5 2 -2
v -2.5 3 -0
v -2.5 3 -1
v -2.5 6 -0
v -2.5 6 -1
v -2.5 7 2
v -2.5 7 1
v -2.5 7 -2
v -2.5 9 1
v -2.5 9 -2
v -2.5 10 2
v -2.5 10 1
v 1.5 0 -0
v 1.5 0 -1
v 1.5 2 -0
v 1.5 2 -1
v -1.5 0 -0
v -1.5 0 -1
v -1.5 2 -0
v -1.5 2 -1
v 2.5 0 -0
v 2.5 0 -1
v 2.5 2 1
v 2.5 2 -0
v 2.5 2 -1
v 2.5 2 -2
v 2.5 3 -0
v 2.5 3 -1
v 2.5 6 -0
v 2.5 6 -1
v 2.5 7 2
v 2.5 7 1
v 2.5 7 -2
v 2.5 9 1
v 2.5 9 -2
v 2.5 10 2
v 2.5 10 1
v 3.5 2 -0
v 3.5 2 -1
v 3.5 3 -0
v 3.5 3 -1
v 3.5 6 -0
v 3.5 6 -1
v 3.5 7 -2
v 3.5 7 -3
v 3.5 9 1
v 3.5 9 -2
v 3.5 10 2
v 3.5 10 1
v 3.5 12 3
v 3.5 12 2
v 3.5 13 3
v 3.5 13 -3
v -3.5 12 3
v -3.5 13 3
v 3.5 12 3
v 3.5 13 3
v -3.5 10 2
v -3.5 12 2
v -2.5 7 2
v -2.5 10 2
v -2.5 11 2
v -1.5 7 2
v -1.5 8 2
v -1.5 9 2
v -1.5 10 2
v -0.5 9 2
v -0.5 10 2
v 0.5 9 2
v 0.5 10 2
v 1.5 7 2
v 1.5 8 2
v 1.5 9 2
v 1.5 10 2
v 2.5 7 2
v 2.5 10 2
v 2.5 11 2
v 3.5 10 2
v 3.5 12 2
v -3.5 9 1
v -3.5 10 1
v -2.5 2 1
v -2.5 7 1
v -2.5 9 1
v -2.5 10 1
v -1.5 2 1
v -1.5 4 1
v -1.5 5 1
v -1.5 6 1
v -1.5 7 1
v -0.5 3 1
v -0.5 4 1
v 0.5 3 1
v 0.5 5 1
v 1.5 2 1
v 1.5 6 1
v 1.5 7 1
v 2.5 2 1
v 2.5 7 1
v 2.5 9 1
v 2.5 10 1
v 3.5 9 1
v 3.5 10 1
v -3.5 2 -0
v -3.5 3 -0
v -3.5 6 -0
v -2.5 0 -0
v -2.5 2 -0
v -2.5 3 -0
v -2.5 6 -0
v -1.5 0 -0
v -1.5 2 -0
v 1.5 0 -0
v 1.5 2 -0
v 2.5 0 -0
v 2.5 2 -0
v 2.5 3 -0
v 2.5 6 -0
v 3.5 2 -0
v 3.5 3 -0
v 3.5 6 -0
v -3.5 7 -2
v -3.5 9 -2
v -2.5 7 -2
v -2.5 9 -2
v 2.5 7 -2
v 2.5 9 -2
v 3.5 7 -2
v 3.5 9 -2
v -3.5 2 -1
v -3.5 3 -1
v -3.5 6 -1
v -2.5 0 -1
v -2.5 2 -1
v -2.5 3 -1
v -2.5 6 -1
v -1.5 0 -1
v -1.5 2 -1
v 1.5 0 -1
v 1.5 2 -1
v 2.5 0 -1
v 2.5 2 -1
v 2.5 3 -1
v 2.5 6 -1
v 3.5 2 -1
v 3.5 3 -1
v 3.5 6 -1
v -2.5 2 -2
v -2.5 7 -2
v 2.5 2 -2
v 2.5 7 -2
v -3.5 7 -3
v -3.5 13 -3
v 3.5 7 -3
v 3.5 13 -3
v -2.5 0 -0
v -1.5 0 -0
v 1.5 0 -0
v 2.5 0 -0
v -2.5 0 -1
v -1.5 0 -1
v 1.5 0 -1
v 2.5 0 -1
v -2.5 2 1
v -1.5 2 1
v 1.5 2 1
v 2.5 2 1
v -3.5 2 -0
v -2.5 2 -0
v -1.5 2 -0
v 1.5 2 -0
v 2.5 2 -0
v 3.5 2 -0
v -3.5 2 -1
v -2.5 2 -1
v -1.5 2 -1
v 1.5 2 -1
v 2.5 2 -1
v 3.5 2 -1
v -2.5 2 -2
v 2.5 2 -2
v -2.5 7 2
v -1.5 7 2
v 1.5 7 2
v 2.5 7 2
v -2.5 7 1
v -1.5 7 1
v 1.5 7 1
v 2.5 7 1
v -3.5 7 -2
v -2.5 7 -2
v 2.5 7 -2
v 3.5 7 -2
v -3.5 7 -3
v 3.5 7 -3
v -3.5 9 1
v -2.5 9 1
v 2.5 9 1
v 3.5 9 1
v -3.5 9 -2
v -2.5 9 -2
v 2.5 9 -2
v 3.5 9 -2
v -3.5 10 2
v -2.5 10 2
v 2.5 10 2
v 3.5 10 2
v -3.5 10 1
v -2.5 10 1
v 2.5 10 1
v 3.5 10 1
v -3.5 12 3
v 3.5 12 3
v -3.5 12 2
v 3.5 12 2
v -3.5 6 -0
v -2.5 6 -0
v 2.5 6 -0
v 3.5 6 -0
v -3.5 6 -1
v -2.5 6 -1
v 2.5 6 -1
v 3.5 6 -1
v -3.5 13 3
v 3.5 13 3
v -3.5 13 -3
v 3.5 13 -3

# faces
f 3/1/1 2/1/1 1/1/1
f 4/1/1 2/1/1 3/1/1
f 5/3/1 4/3/1 3/3/1
f 6/3/1 4/3/1 5/3/1
f 10/2/1 8/2/1 7/2/1
f 12/2/1 10/2/1 9/2/1
f 14/2/1 12/2/1 11/2/1
f 15/2/1 14/2/1 13/2/1
f 16/2/1 8/2/1 10/2/1
f 16/2/1 14/2/1 15/2/1
f 16/2/1 10/2/1 12/2/1
f 16/2/1 12/2/1 14/2/1
f 20/7/1 18/7/1 17/7/1
f 21/7/1 18/7/1 20/7/1
f 23/3/1 20/3/1 19/3/1
f 24/3/1 22/3/1 21/3/1
f 25/3/1 23/3/1 19/3/1
f 26/3/1 22/3/1 24/3/1
f 28/3/1 25/3/1 19/3/1
f 28/3/1 26/3/1 25/3/1
f 29/3/1 22/3/1 26/3/1
f 29/3/1 26/3/1 28/3/1
f 30/1/1 28/1/1 27/1/1
f 30/1/1 29/1/1 28/1/1
f 31/1/1 29/1/1 30/1/1
f 32/1/1 30/1/1 27/1/1
f 33/1/1 30/1/1 32/1/1
f 36/7/1 35/7/1 34/7/1
f 37/7/1 35/7/1 36/7/1
f 38/7/2 39/7/2 40/7/2
f 40/7/2 39/7/2 41/7/2
f 42/7/2 43/7/2 45/7/2
f 45/7/2 43/7/2 46/7/2
f 44/3/2 45/3/2 48/3/2
f 46/3/2 47/3/2 49/3/2
f 44/3/2 48/3/2 50/3/2
f 49/3/2 47/3/2 51/3/2
f 44/3/2 50/3/2 53/3/2
f 50/3/2 51/3/2 53/3/2
f 51/3/2 47/3/2 54/3/2
f 53/3/2 51/3/2 54/3/2
f 52/1/2 53/1/2 55/1/2
f 53/1/2 54/1/2 55/1/2
f 55/1/2 54/1/2 56/1/2
f 52/1/2 55/1/2 57/1/2
f 57/1/2 55/1/2 58/1/2
f 59/1/2 60/1/2 61/1/2
f 61/1/2 60/1/2 62/1/2
f 61/3/2 62/3/2 63/3/2
f 63/3/2 62/3/2 64/3/2
f 65/2/2 66/2/2 68/2/2
f 67/2/2 68/2/2 70/2/2
f 69/2/2 70/2/2 72/2/2
f 71/2/2 72/2/2 73/2/2
f 68/2/2 66/2/2 74/2/2
f 73/2/2 72/2/2 74/2/2
f 70/2/2 68/2/2 74/2/2
f 72/2/2 70/2/2 74/2/2
f 77/2/3 76/2/3 75/2/3
f 78/2/3 76/2/3 77/2/3
f 82/2/3 80/2/3 79/2/3
f 83/2/3 80/2/3 82/2/3
f 84/1/3 82/1/3 81/1/3
f 84/1/3 83/1/3 82/1/3
f 85/1/3 83/1/3 84/1/3
f 86/1/3 83/1/3 85/1/3
f 87/1/3 83/1/3 86/1/3
f 88/1/3 86/1/3 85/1/3
f 88/2/3 87/2/3 86/2/3
f 89/1/3 83/1/3 87/1/3
f 89/2/3 87/2/3 88/2/3
f 90/1/3 88/1/3 85/1/3
f 90/1/3 89/1/3 88/1/3
f 91/1/3 83/1/3 89/1/3
f 91/1/3 89/1/3 90/1/3
f 92/5/3 85/5/3 84/5/3
f 93/1/3 90/1/3 85/1/3
f 93/5/3 85/5/3 92/5/3
f 94/2/3 91/2/3 90/2/3
f 94/1/3 90/1/3 93/1/3
f 95/1/3 83/1/3 91/1/3
f 95/2/3 91/2/3 94/2/3
f 96/1/3 94/1/3 93/1/3
f 96/1/3 93/1/3 92/1/3
f 96/1/3 95/1/3 94/1/3
f 97/1/3 83/1/3 95/1/3
f 97/1/3 95/1/3 96/1/3
f 98/2/3 80/2/3 83/2/3
f 98/1/3 83/1/3 97/1/3
f 99/2/3 98/2/3 97/2/3
f 100/2/3 80/2/3 98/2/3
f 100/2/3 98/2/3 99/2/3
f 105/2/3 102/2/3 101/2/3
f 106/2/3 102/2/3 105/2/3
f 107/3/3 104/3/3 103/3/3
f 108/3/3 104/3/3 107/3/3
f 109/3/3 104/3/3 108/3/3
f 110/3/3 104/3/3 109/3/3
f 111/3/3 104/3/3 110/3/3
f 112/5/3 108/5/3 107/5/3
f 113/3/3 109/3/3 108/3/3
f 113/5/3 108/5/3 112/5/3
f 114/5/3 112/5/3 107/5/3
f 114/3/3 113/3/3 112/3/3
f 115/3/3 109/3/3 113/3/3
f 115/3/3 113/3/3 114/3/3
f 115/5/3 110/5/3 109/5/3
f 116/5/3 114/5/3 107/5/3
f 116/5/3 115/5/3 114/5/3
f 117/5/3 110/5/3 115/5/3
f 117/5/3 115/5/3 116/5/3
f 117/3/3 111/3/3 110/3/3
f 118/3/3 111/3/3 117/3/3
f 119/3/3 117/3/3 116/3/3
f 119/3/3 118/3/3 117/3/3
f 120/3/3 118/3/3 119/3/3
f 123/2/3 122/2/3 121/2/3
f 124/2/3 122/2/3 123/2/3
f 129/1/3 126/1/3 125/1/3
f 130/3/3 127/3/3 126/3/3
f 130/1/3 126/1/3 129/1/3
f 131/3/3 127/3/3 130/3/3
f 132/7/3 129/7/3 128/7/3
f 133/7/3 129/7/3 132/7/3
f 136/7/3 135/7/3 134/7/3
f 137/7/3 135/7/3 136/7/3
f 140/1/3 138/1/3 137/1/3
f 141/3/3 139/3/3 138/3/3
f 141/1/3 138/1/3 140/1/3
f 142/3/3 139/3/3 141/3/3
f 145/2/3 144/2/3 143/2/3
f 146/2/3 144/2/3 145/2/3
f 149/2/3 148/2/3 147/2/3
f 150/2/3 148/2/3 149/2/3
f 151/1/4 152/1/4 155/1/4
f 152/3/4 153/3/4 156/3/4
f 155/1/4 152/1/4 156/1/4
f 156/3/4 153/3/4 157/3/4
f 154/7/4 155/7/4 158/7/4
f 158/7/4 155/7/4 159/7/4
f 160/7/4 161/7/4 162/7/4
f 162/7/4 161/7/4 163/7/4
f 163/1/4 164/1/4 166/1/4
f 164/3/4 165/3/4 167/3/4
f 166/1/4 164/1/4 167/1/4
f 167/3/4 165/3/4 168/3/4
f 169/3/4 170/3/4 171/3/4
f 171/3/4 170/3/4 172/3/4
f 173/2/4 174/2/4 175/2/4
f 175/2/4 174/2/4 176/2/4
f 181/7/5 178/7/5 177/7/5
f 182/7/5 178/7/5 181/7/5
f 183/7/5 180/7/5 179/7/5
f 184/7/5 180/7/5 183/7/5
f 190/3/5 186/3/5 185/3/5
f 191/5/5 187/5/5 186/5/5
f 191/3/5 186/3/5 190/3/5
f 192/3/5 188/3/5 187/3/5
f 192/5/5 187/5/5 191/5/5
f 193/3/5 188/3/5 192/3/5
f 195/1/5 190/1/5 189/1/5
f 196/1/5 190/1/5 195/1/5
f 197/6/5 192/6/5 191/6/5
f 198/6/5 192/6/5 197/6/5
f 199/1/5 194/1/5 193/1/5
f 200/1/5 194/1/5 199/1/5
f 201/3/5 198/3/5 197/3/5
f 201/3/5 199/3/5 198/3/5
f 201/3/5 197/3/5 196/3/5
f 202/3/5 199/3/5 201/3/5
f 207/1/5 204/1/5 203/1/5
f 208/5/5 205/5/5 204/5/5
f 208/1/5 204/1/5 207/1/5
f 209/1/5 206/1/5 205/1/5
f 209/5/5 205/5/5 208/5/5
f 210/1/5 206/1/5 209/1/5
f 215/2/5 213/2/5 212/2/5
f 215/2/5 214/2/5 213/2/5
f 215/2/5 212/2/5 211/2/5
f 216/2/5 214/2/5 215/2/5
f 221/2/5 218/2/5 217/2/5
f 222/2/5 218/2/5 221/2/5
f 223/2/5 220/2/5 219/2/5
f 224/2/5 220/2/5 223/2/5
f 229/2/5 226/2/5 225/2/5
f 230/2/5 226/2/5 229/2/5
f 231/2/5 228/2/5 227/2/5
f 232/2/5 228/2/5 231/2/5
f 235/2/5 234/2/5 233/2/5
f 236/2/5 234/2/5 235/2/5
f 237/3/6 238/3/6 241/3/6
f 241/3/6 238/3/6 242/3/6
f 239/3/6 240/3/6 243/3/6
f 243/3/6 240/3/6 244/3/6
f 245/2/6 246/2/6 247/2/6
f 247/2/6 246/2/6 248/2/6
