# MagicaVoxel @ ephtracy

# material
mtllib Leng.mtl
usemtl palette

# normals
vn -1 0 0
vn 1 0 0
vn 0 0 1
vn 0 0 -1
vn 0 -1 0
vn 0 1 0

# texcoords
vt 0.0683594 0.5
vt 0.662109 0.5
vt 0.818359 0.5
vt 0.970703 0.5
vt 0.994141 0.5

# verts
v -3.5 2 -0
v -3.5 2 -1
v -3.5 3 -0
v -3.5 3 -1
v -3.5 4 -0
v -3.5 4 -1
v -3.5 5 -0
v -3.5 5 -1
v -3.5 6 -0
v -3.5 6 -1
v -2.5 0 -0
v -2.5 0 -1
v -2.5 2 1
v -2.5 2 -0
v -2.5 2 -1
v -2.5 2 -2
v -2.5 3 1
v -2.5 3 -0
v -2.5 3 -1
v -2.5 3 -2
v -2.5 4 1
v -2.5 4 -0
v -2.5 4 -1
v -2.5 4 -2
v -2.5 5 1
v -2.5 5 -0
v -2.5 5 -1
v -2.5 5 -2
v -2.5 6 1
v -2.5 6 -0
v -2.5 6 -1
v -2.5 6 -2
v -2.5 7 2
v -2.5 7 1
v -2.5 7 -2
v -2.5 8 2
v -2.5 8 1
v -2.5 9 1
v -2.5 9 -2
v -2.5 10 1
v -2.5 10 -2
v -2.5 11 3
v -2.5 11 2
v -2.5 11 1
v -2.5 11 -2
v -2.5 12 3
v -2.5 12 -2
v 1.5 0 -0
v 1.5 0 -1
v 1.5 2 -0
v 1.5 2 -1
v -1.5 0 -0
v -1.5 0 -1
v -1.5 2 -0
v -1.5 2 -1
v 2.5 0 -0
v 2.5 0 -1
v 2.5 2 1
v 2.5 2 -0
v 2.5 2 -1
v 2.5 2 -2
v 2.5 3 1
v 2.5 3 -0
v 2.5 3 -1
v 2.5 3 -2
v 2.5 4 1
v 2.5 4 -0
v 2.5 4 -1
v 2.5 4 -2
v 2.5 5 1
v 2.5 5 -0
v 2.5 5 -1
v 2.5 5 -2
v 2.5 6 1
v 2.5 6 -0
v 2.5 6 -1
v 2.5 6 -2
v 2.5 7 2
v 2.5 7 1
v 2.5 7 -2
v 2.5 8 2
v 2.5 8 1
v 2.5 9 1
v 2.5 9 -2
v 2.5 10 1
v 2.5 10 -2
v 2.5 11 3
v 2.5 11 2
v 2.5 11 1
v 2.5 11 -2
v 2.5 12 3
v 2.5 12 -2
v 3.5 2 -0
v 3.5 2 -1
v 3.5 3 -0
v 3.5 3 -1
v 3.5 4 -0
v 3.5 4 -1
v 3.5 5 -0
v 3.5 5 -1
v 3.5 6 -0
v 3.5 6 -1
v -2.5 11 3
v -2.5 12 3
v 2.5 11 3
v 2.5 12 3
v -2.5 7 2
v -2.5 8 2
v -2.5 11 2
v -1.5 7 2
v -1.5 8 2
v -1.5 9 2
v -1.5 10 2
v -0.5 9 2
v -0.5 10 2
v 0.5 9 2
v 0.5 10 2
v 1.5 7 2
v 1.5 8 2
v 1.5 9 2
v 1.5 10 2
v 2.5 7 2
v 2.5 8 2
v 2.5 11 2
v -2.5 2 1
v -2.5 3 1
v -2.5 4 1
v -2.5 5 1
v -2.5 6 1
v -2.5 7 1
v -1.5 7 1
v 1.5 7 1
v 2.5 2 1
v 2.5 3 1
v 2.5 4 1
v 2.5 5 1
v 2.5 6 1
v 2.5 7 1
v -3.5 2 -0
v -3.5 3 -0
v -3.5 4 -0
v -3.5 5 -0
v -3.5 6 -0
v -2.5 0 -0
v -2.5 2 -0
v -2.5 3 -0
v -2.5 4 -0
v -2.5 5 -0
v -2.5 6 -0
v -1.5 0 -0
v -1.5 2 -0
v 1.5 0 -0
v 1.5 2 -0
v 2.5 0 -0
v 2.5 2 -0
v 2.5 3 -0
v 2.5 4 -0
v 2.5 5 -0
v 2.5 6 -0
v 3.5 2 -0
v 3.5 3 -0
v 3.5 4 -0
v 3.5 5 -0
v 3.5 6 -0
v -3.5 2 -1
v -3.5 3 -1
v -3.5 4 -1
v -3.5 5 -1
v -3.5 6 -1
v -2.5 0 -1
v -2.5 2 -1
v -2.5 3 -1
v -2.5 4 -1
v -2.5 5 -1
v -2.5 6 -1
v -1.5 0 -1
v -1.5 2 -1
v 1.5 0 -1
v 1.5 2 -1
v 2.5 0 -1
v 2.5 2 -1
v 2.5 3 -1
v 2.5 4 -1
v 2.5 5 -1
v 2.5 6 -1
v 3.5 2 -1
v 3.5 3 -1
v 3.5 4 -1
v 3.5 5 -1
v 3.5 6 -1
v -2.5 2 -2
v -2.5 3 -2
v -2.5 4 -2
v -2.5 5 -2
v -2.5 6 -2
v -2.5 7 -2
v -2.5 9 -2
v -2.5 10 -2
v -2.5 11 -2
v -2.5 12 -2
v 2.5 2 -2
v 2.5 3 -2
v 2.5 4 -2
v 2.5 5 -2
v 2.5 6 -2
v 2.5 7 -2
v 2.5 9 -2
v 2.5 10 -2
v 2.5 11 -2
v 2.5 12 -2
v -2.5 0 -0
v -1.5 0 -0
v 1.5 0 -0
v 2.5 0 -0
v -2.5 0 -1
v -1.5 0 -1
v 1.5 0 -1
v 2.5 0 -1
v -2.5 2 1
v 2.5 2 1
v -3.5 2 -0
v -2.5 2 -0
v -1.5 2 -0
v 1.5 2 -0
v 2.5 2 -0
v 3.5 2 -0
v -3.5 2 -1
v -2.5 2 -1
v -1.5 2 -1
v 1.5 2 -1
v 2.5 2 -1
v 3.5 2 -1
v -2.5 2 -2
v 2.5 2 -2
v -2.5 7 2
v -1.5 7 2
v 1.5 7 2
v 2.5 7 2
v -2.5 7 1
v -1.5 7 1
v 1.5 7 1
v 2.5 7 1
v -2.5 11 3
v 2.5 11 3
v -2.5 11 2
v 2.5 11 2
v -3.5 6 -0
v -2.5 6 -0
v 2.5 6 -0
v 3.5 6 -0
v -3.5 6 -1
v -2.5 6 -1
v 2.5 6 -1
v 3.5 6 -1
v -2.5 12 3
v 2.5 12 3
v -2.5 12 -2
v 2.5 12 -2

# faces
f 3/2/1 2/2/1 1/2/1
f 4/2/1 2/2/1 3/2/1
f 5/4/1 4/4/1 3/4/1
f 6/4/1 4/4/1 5/4/1
f 7/5/1 6/5/1 5/5/1
f 8/5/1 6/5/1 7/5/1
f 9/4/1 8/4/1 7/4/1
f 10/4/1 8/4/1 9/4/1
f 14/5/1 12/5/1 11/5/1
f 15/5/1 12/5/1 14/5/1
f 17/5/1 14/5/1 13/5/1
f 18/5/1 14/5/1 17/5/1
f 19/5/1 16/5/1 15/5/1
f 20/5/1 16/5/1 19/5/1
f 21/4/1 18/4/1 17/4/1
f 22/4/1 18/4/1 21/4/1
f 23/4/1 20/4/1 19/4/1
f 24/4/1 20/4/1 23/4/1
f 25/5/1 22/5/1 21/5/1
f 26/5/1 22/5/1 25/5/1
f 27/5/1 24/5/1 23/5/1
f 28/5/1 24/5/1 27/5/1
f 29/4/1 26/4/1 25/4/1
f 30/4/1 26/4/1 29/4/1
f 31/4/1 28/4/1 27/4/1
f 32/4/1 28/4/1 31/4/1
f 34/5/1 30/5/1 29/5/1
f 34/5/1 31/5/1 30/5/1
f 34/5/1 32/5/1 31/5/1
f 35/5/1 32/5/1 34/5/1
f 36/2/1 34/2/1 33/2/1
f 36/2/1 35/2/1 34/2/1
f 37/2/1 35/2/1 36/2/1
f 38/5/1 37/5/1 36/5/1
f 38/2/1 35/2/1 37/2/1
f 39/2/1 35/2/1 38/2/1
f 40/5/1 38/5/1 36/5/1
f 40/5/1 39/5/1 38/5/1
f 41/5/1 39/5/1 40/5/1
f 43/5/1 40/5/1 36/5/1
f 44/2/1 41/2/1 40/2/1
f 44/5/1 40/5/1 43/5/1
f 45/2/1 41/2/1 44/2/1
f 46/5/1 43/5/1 42/5/1
f 46/5/1 44/5/1 43/5/1
f 46/5/1 45/5/1 44/5/1
f 47/5/1 45/5/1 46/5/1
f 50/5/1 49/5/1 48/5/1
f 51/5/1 49/5/1 50/5/1
f 52/5/2 53/5/2 54/5/2
f 54/5/2 53/5/2 55/5/2
f 56/5/2 57/5/2 59/5/2
f 59/5/2 57/5/2 60/5/2
f 58/5/2 59/5/2 62/5/2
f 62/5/2 59/5/2 63/5/2
f 60/5/2 61/5/2 64/5/2
f 64/5/2 61/5/2 65/5/2
f 62/4/2 63/4/2 66/4/2
f 66/4/2 63/4/2 67/4/2
f 64/4/2 65/4/2 68/4/2
f 68/4/2 65/4/2 69/4/2
f 66/5/2 67/5/2 70/5/2
f 70/5/2 67/5/2 71/5/2
f 68/5/2 69/5/2 72/5/2
f 72/5/2 69/5/2 73/5/2
f 70/4/2 71/4/2 74/4/2
f 74/4/2 71/4/2 75/4/2
f 72/4/2 73/4/2 76/4/2
f 76/4/2 73/4/2 77/4/2
f 74/5/2 75/5/2 79/5/2
f 75/5/2 76/5/2 79/5/2
f 76/5/2 77/5/2 79/5/2
f 79/5/2 77/5/2 80/5/2
f 78/2/2 79/2/2 81/2/2
f 79/2/2 80/2/2 81/2/2
f 81/2/2 80/2/2 82/2/2
f 81/5/2 82/5/2 83/5/2
f 82/2/2 80/2/2 83/2/2
f 83/2/2 80/2/2 84/2/2
f 81/5/2 83/5/2 85/5/2
f 83/5/2 84/5/2 85/5/2
f 85/5/2 84/5/2 86/5/2
f 81/5/2 85/5/2 88/5/2
f 85/2/2 86/2/2 89/2/2
f 88/5/2 85/5/2 89/5/2
f 89/2/2 86/2/2 90/2/2
f 87/5/2 88/5/2 91/5/2
f 88/5/2 89/5/2 91/5/2
f 89/5/2 90/5/2 91/5/2
f 91/5/2 90/5/2 92/5/2
f 93/2/2 94/2/2 95/2/2
f 95/2/2 94/2/2 96/2/2
f 95/4/2 96/4/2 97/4/2
f 97/4/2 96/4/2 98/4/2
f 97/5/2 98/5/2 99/5/2
f 99/5/2 98/5/2 100/5/2
f 99/4/2 100/4/2 101/4/2
f 101/4/2 100/4/2 102/4/2
f 105/5/3 104/5/3 103/5/3
f 106/5/3 104/5/3 105/5/3
f 110/2/3 108/2/3 107/2/3
f 111/5/3 109/5/3 108/5/3
f 111/2/3 108/2/3 110/2/3
f 112/5/3 109/5/3 111/5/3
f 113/5/3 109/5/3 112/5/3
f 114/5/3 112/5/3 111/5/3
f 114/3/3 113/3/3 112/3/3
f 115/5/3 109/5/3 113/5/3
f 115/3/3 113/3/3 114/3/3
f 116/5/3 114/5/3 111/5/3
f 116/5/3 115/5/3 114/5/3
f 117/5/3 109/5/3 115/5/3
f 117/5/3 115/5/3 116/5/3
f 118/4/3 111/4/3 110/4/3
f 119/5/3 116/5/3 111/5/3
f 119/4/3 111/4/3 118/4/3
f 120/3/3 117/3/3 116/3/3
f 120/5/3 116/5/3 119/5/3
f 121/5/3 109/5/3 117/5/3
f 121/3/3 117/3/3 120/3/3
f 122/2/3 119/2/3 118/2/3
f 123/5/3 120/5/3 119/5/3
f 123/2/3 119/2/3 122/2/3
f 123/5/3 121/5/3 120/5/3
f 124/5/3 109/5/3 121/5/3
f 124/5/3 121/5/3 123/5/3
f 131/5/3 130/5/3 129/5/3
f 132/5/3 131/5/3 129/5/3
f 133/5/3 126/5/3 125/5/3
f 134/4/3 127/4/3 126/4/3
f 134/5/3 126/5/3 133/5/3
f 135/5/3 128/5/3 127/5/3
f 135/4/3 127/4/3 134/4/3
f 136/4/3 129/4/3 128/4/3
f 136/5/3 128/5/3 135/5/3
f 137/5/3 132/5/3 129/5/3
f 137/4/3 129/4/3 136/4/3
f 138/5/3 132/5/3 137/5/3
f 145/2/3 140/2/3 139/2/3
f 146/4/3 141/4/3 140/4/3
f 146/2/3 140/2/3 145/2/3
f 147/5/3 142/5/3 141/5/3
f 147/4/3 141/4/3 146/4/3
f 148/4/3 143/4/3 142/4/3
f 148/5/3 142/5/3 147/5/3
f 149/4/3 143/4/3 148/4/3
f 150/5/3 145/5/3 144/5/3
f 151/5/3 145/5/3 150/5/3
f 154/5/3 153/5/3 152/5/3
f 155/5/3 153/5/3 154/5/3
f 160/2/3 156/2/3 155/2/3
f 161/4/3 157/4/3 156/4/3
f 161/2/3 156/2/3 160/2/3
f 162/5/3 158/5/3 157/5/3
f 162/4/3 157/4/3 161/4/3
f 163/4/3 159/4/3 158/4/3
f 163/5/3 158/5/3 162/5/3
f 164/4/3 159/4/3 163/4/3
f 165/2/4 166/2/4 171/2/4
f 166/4/4 167/4/4 172/4/4
f 171/2/4 166/2/4 172/2/4
f 167/5/4 168/5/4 173/5/4
f 172/4/4 167/4/4 173/4/4
f 168/4/4 169/4/4 174/4/4
f 173/5/4 168/5/4 174/5/4
f 174/4/4 169/4/4 175/4/4
f 170/5/4 171/5/4 176/5/4
f 176/5/4 171/5/4 177/5/4
f 178/5/4 179/5/4 180/5/4
f 180/5/4 179/5/4 181/5/4
f 181/2/4 182/2/4 186/2/4
f 182/4/4 183/4/4 187/4/4
f 186/2/4 182/2/4 187/2/4
f 183/5/4 184/5/4 188/5/4
f 187/4/4 183/4/4 188/4/4
f 184/4/4 185/4/4 189/4/4
f 188/5/4 184/5/4 189/5/4
f 189/4/4 185/4/4 190/4/4
f 191/5/4 192/5/4 201/5/4
f 192/4/4 193/4/4 202/4/4
f 201/5/4 192/5/4 202/5/4
f 193/5/4 194/5/4 203/5/4
f 202/4/4 193/4/4 203/4/4
f 194/4/4 195/4/4 204/4/4
f 203/5/4 194/5/4 204/5/4
f 195/5/4 196/5/4 205/5/4
f 204/4/4 195/4/4 205/4/4
f 196/2/4 197/2/4 206/2/4
f 205/5/4 196/5/4 206/5/4
f 197/5/4 198/5/4 207/5/4
f 206/2/4 197/2/4 207/2/4
f 198/2/4 199/2/4 208/2/4
f 207/5/4 198/5/4 208/5/4
f 199/5/4 200/5/4 209/5/4
f 208/2/4 199/2/4 209/2/4
f 209/5/4 200/5/4 210/5/4
f 215/5/5 212/5/5 211/5/5
f 216/5/5 212/5/5 215/5/5
f 217/5/5 214/5/5 213/5/5
f 218/5/5 214/5/5 217/5/5
f 222/5/5 220/5/5 219/5/5
f 223/5/5 220/5/5 222/5/5
f 224/5/5 220/5/5 223/5/5
f 225/5/5 220/5/5 224/5/5
f 227/2/5 222/2/5 221/2/5
f 228/2/5 222/2/5 227/2/5
f 229/5/5 224/5/5 223/5/5
f 230/5/5 224/5/5 229/5/5
f 231/2/5 226/2/5 225/2/5
f 232/2/5 226/2/5 231/2/5
f 233/5/5 230/5/5 229/5/5
f 233/5/5 231/5/5 230/5/5
f 233/5/5 229/5/5 228/5/5
f 234/5/5 231/5/5 233/5/5
f 239/2/5 236/2/5 235/2/5
f 240/4/5 237/4/5 236/4/5
f 240/2/5 236/2/5 239/2/5
f 241/2/5 238/2/5 237/2/5
f 241/4/5 237/4/5 240/4/5
f 242/2/5 238/2/5 241/2/5
f 245/5/5 244/5/5 243/5/5
f 246/5/5 244/5/5 245/5/5
f 247/4/6 248/4/6 251/4/6
f 251/4/6 248/4/6 252/4/6
f 249/4/6 250/4/6 253/4/6
f 253/4/6 250/4/6 254/4/6
f 255/5/6 256/5/6 257/5/6
f 257/5/6 256/5/6 258/5/6
