# MagicaVoxel @ ephtracy

# material
mtllib MrWengo.mtl
usemtl palette

# normals
vn -1 0 0
vn 1 0 0
vn 0 0 1
vn 0 0 -1
vn 0 -1 0
vn 0 1 0

# texcoords
vt 0.0683594 0.5
vt 0.158203 0.5
vt 0.662109 0.5
vt 0.791016 0.5
vt 0.798828 0.5
vt 0.970703 0.5
vt 0.982422 0.5
vt 0.986328 0.5
vt 0.994141 0.5

# verts
v -4.5 7 -0.5
v -4.5 7 -2.5
v -4.5 8 1.5
v -4.5 8 0.5
v -4.5 9 3.5
v -4.5 9 1.5
v -4.5 9 0.5
v -4.5 9 -0.5
v -4.5 10 3.5
v -4.5 10 2.5
v -4.5 10 -1.5
v -4.5 10 -2.5
v -4.5 11 2.5
v -4.5 11 -1.5
v -3.5 2 0.5
v -3.5 2 -0.5
v -3.5 3 0.5
v -3.5 3 -0.5
v -3.5 6 0.5
v -3.5 6 -0.5
v -3.5 7 2.5
v -3.5 7 -0.5
v -3.5 7 -2.5
v -3.5 7 -3.5
v -3.5 8 3.5
v -3.5 8 2.5
v -3.5 8 1.5
v -3.5 8 0.5
v -3.5 8 -3.5
v -3.5 8 -4.5
v -3.5 9 4.5
v -3.5 9 3.5
v -3.5 9 1.5
v -3.5 9 0.5
v -3.5 9 -0.5
v -3.5 10 3.5
v -3.5 10 2.5
v -3.5 10 -1.5
v -3.5 10 -2.5
v -3.5 10 -4.5
v -3.5 11 4.5
v -3.5 11 2.5
v -3.5 11 0.5
v -3.5 11 -0.5
v -3.5 11 -1.5
v -3.5 11 -2.5
v -3.5 12 0.5
v -3.5 12 -0.5
v -2.5 0 0.5
v -2.5 0 -0.5
v -2.5 1 0.5
v -2.5 1 -0.5
v -2.5 2 1.5
v -2.5 2 0.5
v -2.5 2 -0.5
v -2.5 2 -1.5
v -2.5 3 1.5
v -2.5 3 0.5
v -2.5 3 -0.5
v -2.5 6 2.5
v -2.5 6 1.5
v -2.5 6 0.5
v -2.5 6 -0.5
v -2.5 6 -1.5
v -2.5 7 2.5
v -2.5 7 -1.5
v -2.5 7 -3.5
v -2.5 7 -4.5
v -2.5 8 -3.5
v -2.5 8 -4.5
v -2.5 11 2.5
v -2.5 11 0.5
v -2.5 11 -0.5
v -2.5 11 -2.5
v -2.5 12 2.5
v -2.5 12 0.5
v -2.5 12 -0.5
v -2.5 12 -2.5
v -1.5 10 4.5
v -1.5 10 3.5
v -1.5 11 4.5
v -1.5 11 3.5
v -1.5 11 2.5
v -1.5 12 3.5
v -1.5 12 2.5
v -0.5 10 -2.5
v -0.5 10 -3.5
v -0.5 11 4.5
v -0.5 11 3.5
v -0.5 11 -1.5
v -0.5 11 -2.5
v -0.5 11 -3.5
v -0.5 12 4.5
v -0.5 12 3.5
v -0.5 12 -1.5
v -0.5 12 -2.5
v 1.5 0 0.5
v 1.5 0 -0.5
v 1.5 1 0.5
v 1.5 1 -0.5
v 1.5 2 0.5
v 1.5 2 -0.5
v 1.5 9 -3.5
v 1.5 9 -4.5
v 1.5 10 -3.5
v 1.5 10 -4.5
v 2.5 8 3.5
v 2.5 8 2.5
v 2.5 9 3.5
v 2.5 9 2.5
v 2.5 10 4.5
v 2.5 10 3.5
v 2.5 10 -2.5
v 2.5 10 -3.5
v 2.5 11 4.5
v 2.5 11 3.5
v 2.5 11 -2.5
v 2.5 11 -3.5
v 3.5 9 -3.5
v 3.5 9 -4.5
v 3.5 10 -3.5
v 3.5 10 -4.5
v -2.5 8 3.5
v -2.5 8 2.5
v -2.5 9 3.5
v -2.5 9 2.5
v -2.5 10 4.5
v -2.5 10 3.5
v -2.5 11 4.5
v -2.5 11 3.5
v -1.5 0 0.5
v -1.5 0 -0.5
v -1.5 1 0.5
v -1.5 1 -0.5
v -1.5 2 0.5
v -1.5 2 -0.5
v -1.5 11 -1.5
v -1.5 11 -2.5
v -1.5 12 -1.5
v -1.5 12 -2.5
v -0.5 9 -3.5
v -0.5 9 -4.5
v -0.5 10 -3.5
v -0.5 10 -4.5
v 0.5 10 -2.5
v 0.5 10 -3.5
v 0.5 11 4.5
v 0.5 11 3.5
v 0.5 11 -1.5
v 0.5 11 -2.5
v 0.5 11 -3.5
v 0.5 12 4.5
v 0.5 12 3.5
v 0.5 12 -1.5
v 0.5 12 -2.5
v 1.5 10 4.5
v 1.5 10 3.5
v 1.5 11 4.5
v 1.5 11 3.5
v 1.5 11 2.5
v 1.5 12 3.5
v 1.5 12 2.5
v 2.5 0 0.5
v 2.5 0 -0.5
v 2.5 1 0.5
v 2.5 1 -0.5
v 2.5 2 1.5
v 2.5 2 0.5
v 2.5 2 -0.5
v 2.5 2 -1.5
v 2.5 3 1.5
v 2.5 3 0.5
v 2.5 3 -0.5
v 2.5 6 2.5
v 2.5 6 1.5
v 2.5 6 0.5
v 2.5 6 -0.5
v 2.5 6 -1.5
v 2.5 7 2.5
v 2.5 7 -1.5
v 2.5 7 -3.5
v 2.5 7 -4.5
v 2.5 8 -3.5
v 2.5 8 -4.5
v 2.5 9 -3.5
v 2.5 9 -4.5
v 2.5 10 -3.5
v 2.5 10 -4.5
v 2.5 11 2.5
v 2.5 11 0.5
v 2.5 11 -0.5
v 2.5 11 -1.5
v 2.5 12 2.5
v 2.5 12 0.5
v 2.5 12 -0.5
v 2.5 12 -1.5
v 3.5 2 0.5
v 3.5 2 -0.5
v 3.5 3 0.5
v 3.5 3 -0.5
v 3.5 6 0.5
v 3.5 6 -0.5
v 3.5 7 2.5
v 3.5 7 -0.5
v 3.5 7 -2.5
v 3.5 7 -3.5
v 3.5 8 3.5
v 3.5 8 2.5
v 3.5 8 1.5
v 3.5 8 0.5
v 3.5 8 -2.5
v 3.5 8 -3.5
v 3.5 8 -4.5
v 3.5 9 4.5
v 3.5 9 3.5
v 3.5 9 1.5
v 3.5 9 0.5
v 3.5 9 -0.5
v 3.5 9 -3.5
v 3.5 9 -4.5
v 3.5 10 3.5
v 3.5 10 2.5
v 3.5 10 -2.5
v 3.5 10 -3.5
v 3.5 11 4.5
v 3.5 11 2.5
v 3.5 11 0.5
v 3.5 11 -0.5
v 3.5 11 -2.5
v 3.5 11 -3.5
v 3.5 12 0.5
v 3.5 12 -0.5
v 4.5 7 -0.5
v 4.5 7 -2.5
v 4.5 8 1.5
v 4.5 8 0.5
v 4.5 8 -2.5
v 4.5 8 -3.5
v 4.5 9 3.5
v 4.5 9 1.5
v 4.5 9 0.5
v 4.5 9 -0.5
v 4.5 9 -3.5
v 4.5 9 -4.5
v 4.5 10 3.5
v 4.5 10 2.5
v 4.5 10 -2.5
v 4.5 10 -4.5
v 4.5 11 2.5
v 4.5 11 -2.5
v -3.5 9 4.5
v -3.5 11 4.5
v -2.5 10 4.5
v -2.5 11 4.5
v -1.5 10 4.5
v -1.5 11 4.5
v -0.5 11 4.5
v -0.5 12 4.5
v 0.5 11 4.5
v 0.5 12 4.5
v 1.5 10 4.5
v 1.5 11 4.5
v 2.5 10 4.5
v 2.5 11 4.5
v 3.5 9 4.5
v 3.5 11 4.5
v -4.5 9 3.5
v -4.5 10 3.5
v -3.5 8 3.5
v -3.5 9 3.5
v -3.5 10 3.5
v -2.5 8 3.5
v -2.5 9 3.5
v -2.5 10 3.5
v -2.5 11 3.5
v -1.5 10 3.5
v -1.5 11 3.5
v -1.5 12 3.5
v -0.5 11 3.5
v -0.5 12 3.5
v 0.5 11 3.5
v 0.5 12 3.5
v 1.5 10 3.5
v 1.5 11 3.5
v 1.5 12 3.5
v 2.5 8 3.5
v 2.5 9 3.5
v 2.5 10 3.5
v 2.5 11 3.5
v 3.5 8 3.5
v 3.5 9 3.5
v 3.5 10 3.5
v 4.5 9 3.5
v 4.5 10 3.5
v -4.5 10 2.5
v -4.5 11 2.5
v -3.5 7 2.5
v -3.5 8 2.5
v -3.5 10 2.5
v -3.5 11 2.5
v -2.5 6 2.5
v -2.5 7 2.5
v -2.5 8 2.5
v -2.5 9 2.5
v -2.5 11 2.5
v -2.5 12 2.5
v -1.5 6 2.5
v -1.5 7 2.5
v -1.5 8 2.5
v -1.5 9 2.5
v -1.5 11 2.5
v -1.5 12 2.5
v 1.5 6 2.5
v 1.5 7 2.5
v 1.5 8 2.5
v 1.5 9 2.5
v 1.5 11 2.5
v 1.5 12 2.5
v 2.5 6 2.5
v 2.5 7 2.5
v 2.5 8 2.5
v 2.5 9 2.5
v 2.5 11 2.5
v 2.5 12 2.5
v 3.5 7 2.5
v 3.5 8 2.5
v 3.5 10 2.5
v 3.5 11 2.5
v 4.5 10 2.5
v 4.5 11 2.5
v -4.5 8 1.5
v -4.5 9 1.5
v -3.5 8 1.5
v -3.5 9 1.5
v -2.5 2 1.5
v -2.5 3 1.5
v -2.5 6 1.5
v -1.5 5 1.5
v -1.5 6 1.5
v -0.5 4 1.5
v -0.5 5 1.5
v 0.5 4 1.5
v 0.5 5 1.5
v 1.5 5 1.5
v 1.5 6 1.5
v 2.5 2 1.5
v 2.5 3 1.5
v 2.5 6 1.5
v 3.5 8 1.5
v 3.5 9 1.5
v 4.5 8 1.5
v 4.5 9 1.5
v -3.5 2 0.5
v -3.5 3 0.5
v -3.5 6 0.5
v -3.5 11 0.5
v -3.5 12 0.5
v -2.5 0 0.5
v -2.5 1 0.5
v -2.5 2 0.5
v -2.5 3 0.5
v -2.5 6 0.5
v -2.5 11 0.5
v -2.5 12 0.5
v -1.5 0 0.5
v -1.5 1 0.5
v -1.5 2 0.5
v 1.5 0 0.5
v 1.5 1 0.5
v 1.5 2 0.5
v 2.5 0 0.5
v 2.5 1 0.5
v 2.5 2 0.5
v 2.5 3 0.5
v 2.5 6 0.5
v 2.5 11 0.5
v 2.5 12 0.5
v 3.5 2 0.5
v 3.5 3 0.5
v 3.5 6 0.5
v 3.5 11 0.5
v 3.5 12 0.5
v -4.5 7 -0.5
v -4.5 9 -0.5
v -3.5 7 -0.5
v -3.5 9 -0.5
v 3.5 7 -0.5
v 3.5 9 -0.5
v 4.5 7 -0.5
v 4.5 9 -0.5
v -4.5 8 0.5
v -4.5 9 0.5
v -3.5 8 0.5
v -3.5 9 0.5
v 3.5 8 0.5
v 3.5 9 0.5
v 4.5 8 0.5
v 4.5 9 0.5
v -3.5 2 -0.5
v -3.5 3 -0.5
v -3.5 6 -0.5
v -3.5 11 -0.5
v -3.5 12 -0.5
v -2.5 0 -0.5
v -2.5 1 -0.5
v -2.5 2 -0.5
v -2.5 3 -0.5
v -2.5 6 -0.5
v -2.5 11 -0.5
v -2.5 12 -0.5
v -1.5 0 -0.5
v -1.5 1 -0.5
v -1.5 2 -0.5
v 1.5 0 -0.5
v 1.5 1 -0.5
v 1.5 2 -0.5
v 2.5 0 -0.5
v 2.5 1 -0.5
v 2.5 2 -0.5
v 2.5 3 -0.5
v 2.5 6 -0.5
v 2.5 11 -0.5
v 2.5 12 -0.5
v 3.5 2 -0.5
v 3.5 3 -0.5
v 3.5 6 -0.5
v 3.5 11 -0.5
v 3.5 12 -0.5
v -4.5 10 -1.5
v -4.5 11 -1.5
v -3.5 10 -1.5
v -3.5 11 -1.5
v -2.5 2 -1.5
v -2.5 6 -1.5
v -2.5 7 -1.5
v -1.5 11 -1.5
v -1.5 12 -1.5
v -0.5 11 -1.5
v -0.5 12 -1.5
v 0.5 11 -1.5
v 0.5 12 -1.5
v 2.5 2 -1.5
v 2.5 6 -1.5
v 2.5 7 -1.5
v 2.5 11 -1.5
v 2.5 12 -1.5
v -4.5 7 -2.5
v -4.5 10 -2.5
v -3.5 7 -2.5
v -3.5 10 -2.5
v -3.5 11 -2.5
v -2.5 11 -2.5
v -2.5 12 -2.5
v -1.5 11 -2.5
v -1.5 12 -2.5
v -0.5 10 -2.5
v -0.5 11 -2.5
v -0.5 12 -2.5
v 0.5 10 -2.5
v 0.5 11 -2.5
v 0.5 12 -2.5
v 2.5 10 -2.5
v 2.5 11 -2.5
v 3.5 7 -2.5
v 3.5 8 -2.5
v 3.5 10 -2.5
v 3.5 11 -2.5
v 4.5 7 -2.5
v 4.5 8 -2.5
v 4.5 10 -2.5
v 4.5 11 -2.5
v -3.5 7 -3.5
v -3.5 8 -3.5
v -2.5 7 -3.5
v -2.5 8 -3.5
v -0.5 9 -3.5
v -0.5 10 -3.5
v -0.5 11 -3.5
v 0.5 10 -3.5
v 0.5 11 -3.5
v 1.5 9 -3.5
v 1.5 10 -3.5
v 2.5 7 -3.5
v 2.5 8 -3.5
v 2.5 9 -3.5
v 2.5 10 -3.5
v 2.5 11 -3.5
v 3.5 7 -3.5
v 3.5 8 -3.5
v 3.5 9 -3.5
v 3.5 10 -3.5
v 3.5 11 -3.5
v 4.5 8 -3.5
v 4.5 9 -3.5
v -3.5 8 -4.5
v -3.5 10 -4.5
v -2.5 7 -4.5
v -2.5 8 -4.5
v -0.5 9 -4.5
v -0.5 10 -4.5
v 1.5 9 -4.5
v 1.5 10 -4.5
v 2.5 7 -4.5
v 2.5 8 -4.5
v 2.5 9 -4.5
v 2.5 10 -4.5
v 3.5 8 -4.5
v 3.5 9 -4.5
v 3.5 10 -4.5
v 4.5 9 -4.5
v 4.5 10 -4.5
v -2.5 0 0.5
v -1.5 0 0.5
v 1.5 0 0.5
v 2.5 0 0.5
v -2.5 0 -0.5
v -1.5 0 -0.5
v 1.5 0 -0.5
v 2.5 0 -0.5
v -2.5 2 1.5
v 2.5 2 1.5
v -3.5 2 0.5
v -2.5 2 0.5
v -1.5 2 0.5
v 1.5 2 0.5
v 2.5 2 0.5
v 3.5 2 0.5
v -3.5 2 -0.5
v -2.5 2 -0.5
v -1.5 2 -0.5
v 1.5 2 -0.5
v 2.5 2 -0.5
v 3.5 2 -0.5
v -2.5 2 -1.5
v 2.5 2 -1.5
v -2.5 6 2.5
v -1.5 6 2.5
v 1.5 6 2.5
v 2.5 6 2.5
v -2.5 6 1.5
v -1.5 6 1.5
v 1.5 6 1.5
v 2.5 6 1.5
v -3.5 7 2.5
v -2.5 7 2.5
v 2.5 7 2.5
v 3.5 7 2.5
v -4.5 7 -0.5
v -3.5 7 -0.5
v 3.5 7 -0.5
v 4.5 7 -0.5
v -2.5 7 -1.5
v 2.5 7 -1.5
v -4.5 7 -2.5
v -3.5 7 -2.5
v 3.5 7 -2.5
v 4.5 7 -2.5
v -3.5 7 -3.5
v -2.5 7 -3.5
v 2.5 7 -3.5
v 3.5 7 -3.5
v -2.5 7 -4.5
v 2.5 7 -4.5
v -3.5 8 3.5
v -2.5 8 3.5
v 2.5 8 3.5
v 3.5 8 3.5
v -3.5 8 2.5
v -2.5 8 2.5
v 2.5 8 2.5
v 3.5 8 2.5
v -4.5 8 1.5
v -3.5 8 1.5
v 3.5 8 1.5
v 4.5 8 1.5
v -4.5 8 0.5
v -3.5 8 0.5
v 3.5 8 0.5
v 4.5 8 0.5
v 3.5 8 -2.5
v 4.5 8 -2.5
v -3.5 8 -3.5
v -2.5 8 -3.5
v 2.5 8 -3.5
v 3.5 8 -3.5
v 4.5 8 -3.5
v -3.5 8 -4.5
v -2.5 8 -4.5
v 2.5 8 -4.5
v 3.5 8 -4.5
v -3.5 9 4.5
v 3.5 9 4.5
v -4.5 9 3.5
v -3.5 9 3.5
v -2.5 9 3.5
v 2.5 9 3.5
v 3.5 9 3.5
v 4.5 9 3.5
v -2.5 9 2.5
v -1.5 9 2.5
v 1.5 9 2.5
v 2.5 9 2.5
v -4.5 9 1.5
v -3.5 9 1.5
v 3.5 9 1.5
v 4.5 9 1.5
v -4.5 9 0.5
v -3.5 9 0.5
v 3.5 9 0.5
v 4.5 9 0.5
v -4.5 9 -0.5
v -3.5 9 -0.5
v 3.5 9 -0.5
v 4.5 9 -0.5
v 3.5 9 -3.5
v 4.5 9 -3.5
v 3.5 9 -4.5
v 4.5 9 -4.5
v -3.5 6 0.5
v -2.5 6 0.5
v 2.5 6 0.5
v 3.5 6 0.5
v -3.5 6 -0.5
v -2.5 6 -0.5
v 2.5 6 -0.5
v 3.5 6 -0.5
v -0.5 9 -3.5
v 1.5 9 -3.5
v 2.5 9 -3.5
v 3.5 9 -3.5
v -0.5 9 -4.5
v 1.5 9 -4.5
v 2.5 9 -4.5
v 3.5 9 -4.5
v -2.5 10 4.5
v -1.5 10 4.5
v 1.5 10 4.5
v 2.5 10 4.5
v -4.5 10 3.5
v -3.5 10 3.5
v -2.5 10 3.5
v -1.5 10 3.5
v 1.5 10 3.5
v 2.5 10 3.5
v 3.5 10 3.5
v 4.5 10 3.5
v -4.5 10 2.5
v -3.5 10 2.5
v 3.5 10 2.5
v 4.5 10 2.5
v -4.5 10 -1.5
v -3.5 10 -1.5
v -4.5 10 -2.5
v -3.5 10 -2.5
v -0.5 10 -2.5
v 0.5 10 -2.5
v 2.5 10 -2.5
v 3.5 10 -2.5
v 4.5 10 -2.5
v -0.5 10 -3.5
v 0.5 10 -3.5
v 1.5 10 -3.5
v 2.5 10 -3.5
v 3.5 10 -3.5
v -3.5 10 -4.5
v -0.5 10 -4.5
v 1.5 10 -4.5
v 2.5 10 -4.5
v 3.5 10 -4.5
v 4.5 10 -4.5
v -3.5 11 4.5
v -2.5 11 4.5
v -1.5 11 4.5
v -0.5 11 4.5
v 0.5 11 4.5
v 1.5 11 4.5
v 2.5 11 4.5
v 3.5 11 4.5
v -2.5 11 3.5
v -1.5 11 3.5
v -0.5 11 3.5
v 0.5 11 3.5
v 1.5 11 3.5
v 2.5 11 3.5
v -4.5 11 2.5
v -3.5 11 2.5
v -2.5 11 2.5
v -1.5 11 2.5
v 1.5 11 2.5
v 2.5 11 2.5
v 3.5 11 2.5
v 4.5 11 2.5
v -3.5 11 0.5
v -2.5 11 0.5
v 2.5 11 0.5
v 3.5 11 0.5
v -3.5 11 -0.5
v -2.5 11 -0.5
v 2.5 11 -0.5
v 3.5 11 -0.5
v -4.5 11 -1.5
v -3.5 11 -1.5
v -1.5 11 -1.5
v -0.5 11 -1.5
v 0.5 11 -1.5
v 2.5 11 -1.5
v -3.5 11 -2.5
v -2.5 11 -2.5
v -1.5 11 -2.5
v -0.5 11 -2.5
v 0.5 11 -2.5
v 2.5 11 -2.5
v 3.5 11 -2.5
v 4.5 11 -2.5
v -0.5 11 -3.5
v 0.5 11 -3.5
v 2.5 11 -3.5
v 3.5 11 -3.5
v -0.5 12 4.5
v 0.5 12 4.5
v -1.5 12 3.5
v -0.5 12 3.5
v 0.5 12 3.5
v 1.5 12 3.5
v -2.5 12 2.5
v -1.5 12 2.5
v 1.5 12 2.5
v 2.5 12 2.5
v -3.5 12 0.5
v -2.5 12 0.5
v 2.5 12 0.5
v 3.5 12 0.5
v -3.5 12 -0.5
v -2.5 12 -0.5
v 2.5 12 -0.5
v 3.5 12 -0.5
v -1.5 12 -1.5
v -0.5 12 -1.5
v 0.5 12 -1.5
v 2.5 12 -1.5
v -2.5 12 -2.5
v -1.5 12 -2.5
v -0.5 12 -2.5
v 0.5 12 -2.5

# faces
f 6/5/1 4/5/1 3/5/1
f 7/5/1 4/5/1 6/5/1
f 8/5/1 2/5/1 1/5/1
f 9/5/1 7/5/1 6/5/1
f 9/5/1 8/5/1 7/5/1
f 9/5/1 6/5/1 5/5/1
f 10/5/1 8/5/1 9/5/1
f 11/5/1 2/5/1 8/5/1
f 11/5/1 8/5/1 10/5/1
f 12/5/1 2/5/1 11/5/1
f 13/5/1 11/5/1 10/5/1
f 14/5/1 11/5/1 13/5/1
f 17/3/1 16/3/1 15/3/1
f 18/3/1 16/3/1 17/3/1
f 19/8/1 18/8/1 17/8/1
f 20/8/1 18/8/1 19/8/1
f 26/5/1 22/5/1 21/5/1
f 27/5/1 22/5/1 26/5/1
f 28/5/1 22/5/1 27/5/1
f 29/5/1 24/5/1 23/5/1
f 32/5/1 26/5/1 25/5/1
f 32/5/1 27/5/1 26/5/1
f 33/5/1 27/5/1 32/5/1
f 34/5/1 22/5/1 28/5/1
f 35/5/1 22/5/1 34/5/1
f 36/5/1 32/5/1 31/5/1
f 39/5/1 29/5/1 23/5/1
f 39/5/1 30/5/1 29/5/1
f 40/5/1 30/5/1 39/5/1
f 41/5/1 37/5/1 36/5/1
f 41/5/1 36/5/1 31/5/1
f 42/5/1 37/5/1 41/5/1
f 45/5/1 39/5/1 38/5/1
f 46/5/1 39/5/1 45/5/1
f 47/5/1 44/5/1 43/5/1
f 48/5/1 44/5/1 47/5/1
f 51/9/1 50/9/1 49/9/1
f 52/9/1 50/9/1 51/9/1
f 54/7/1 52/7/1 51/7/1
f 55/7/1 52/7/1 54/7/1
f 57/7/1 54/7/1 53/7/1
f 58/7/1 54/7/1 57/7/1
f 59/8/1 56/8/1 55/8/1
f 61/8/1 58/8/1 57/8/1
f 62/8/1 58/8/1 61/8/1
f 63/8/1 56/8/1 59/8/1
f 64/8/1 56/8/1 63/8/1
f 65/3/1 62/3/1 61/3/1
f 65/3/1 61/3/1 60/3/1
f 65/3/1 64/3/1 63/3/1
f 65/3/1 63/3/1 62/3/1
f 66/3/1 64/3/1 65/3/1
f 69/5/1 68/5/1 67/5/1
f 70/5/1 68/5/1 69/5/1
f 75/5/1 72/5/1 71/5/1
f 76/5/1 72/5/1 75/5/1
f 77/5/1 74/5/1 73/5/1
f 78/5/1 74/5/1 77/5/1
f 81/5/1 80/5/1 79/5/1
f 82/5/1 80/5/1 81/5/1
f 84/5/1 83/5/1 82/5/1
f 85/5/1 83/5/1 84/5/1
f 91/5/1 87/5/1 86/5/1
f 92/5/1 87/5/1 91/5/1
f 93/5/1 89/5/1 88/5/1
f 94/5/1 89/5/1 93/5/1
f 95/5/1 91/5/1 90/5/1
f 96/5/1 91/5/1 95/5/1
f 99/9/1 98/9/1 97/9/1
f 100/9/1 98/9/1 99/9/1
f 101/7/1 100/7/1 99/7/1
f 102/7/1 100/7/1 101/7/1
f 105/5/1 104/5/1 103/5/1
f 106/5/1 104/5/1 105/5/1
f 109/5/1 108/5/1 107/5/1
f 110/5/1 108/5/1 109/5/1
f 115/5/1 112/5/1 111/5/1
f 116/5/1 112/5/1 115/5/1
f 117/5/1 114/5/1 113/5/1
f 118/5/1 114/5/1 117/5/1
f 121/5/1 120/5/1 119/5/1
f 122/5/1 120/5/1 121/5/1
f 123/5/2 124/5/2 125/5/2
f 125/5/2 124/5/2 126/5/2
f 127/5/2 128/5/2 129/5/2
f 129/5/2 128/5/2 130/5/2
f 131/9/2 132/9/2 133/9/2
f 133/9/2 132/9/2 134/9/2
f 133/7/2 134/7/2 135/7/2
f 135/7/2 134/7/2 136/7/2
f 137/5/2 138/5/2 139/5/2
f 139/5/2 138/5/2 140/5/2
f 141/5/2 142/5/2 143/5/2
f 143/5/2 142/5/2 144/5/2
f 145/5/2 146/5/2 150/5/2
f 150/5/2 146/5/2 151/5/2
f 147/5/2 148/5/2 152/5/2
f 152/5/2 148/5/2 153/5/2
f 149/5/2 150/5/2 154/5/2
f 154/5/2 150/5/2 155/5/2
f 156/5/2 157/5/2 158/5/2
f 158/5/2 157/5/2 159/5/2
f 159/5/2 160/5/2 161/5/2
f 161/5/2 160/5/2 162/5/2
f 163/9/2 164/9/2 165/9/2
f 165/9/2 164/9/2 166/9/2
f 165/7/2 166/7/2 168/7/2
f 168/7/2 166/7/2 169/7/2
f 167/7/2 168/7/2 171/7/2
f 171/7/2 168/7/2 172/7/2
f 169/8/2 170/8/2 173/8/2
f 171/8/2 172/8/2 175/8/2
f 175/8/2 172/8/2 176/8/2
f 173/8/2 170/8/2 177/8/2
f 177/8/2 170/8/2 178/8/2
f 175/3/2 176/3/2 179/3/2
f 174/3/2 175/3/2 179/3/2
f 177/3/2 178/3/2 179/3/2
f 176/3/2 177/3/2 179/3/2
f 179/3/2 178/3/2 180/3/2
f 181/5/2 182/5/2 183/5/2
f 183/5/2 182/5/2 184/5/2
f 185/5/2 186/5/2 187/5/2
f 187/5/2 186/5/2 188/5/2
f 189/5/2 190/5/2 193/5/2
f 193/5/2 190/5/2 194/5/2
f 191/5/2 192/5/2 195/5/2
f 195/5/2 192/5/2 196/5/2
f 197/3/2 198/3/2 199/3/2
f 199/3/2 198/3/2 200/3/2
f 199/8/2 200/8/2 201/8/2
f 201/8/2 200/8/2 202/8/2
f 203/5/2 204/5/2 208/5/2
f 208/5/2 204/5/2 209/5/2
f 209/5/2 204/5/2 210/5/2
f 205/5/2 206/5/2 211/5/2
f 211/5/2 206/5/2 212/5/2
f 207/5/2 208/5/2 215/5/2
f 208/5/2 209/5/2 215/5/2
f 215/5/2 209/5/2 216/5/2
f 210/5/2 204/5/2 217/5/2
f 217/5/2 204/5/2 218/5/2
f 212/5/2 213/5/2 219/5/2
f 219/5/2 213/5/2 220/5/2
f 214/5/2 215/5/2 221/5/2
f 214/5/2 221/5/2 225/5/2
f 221/5/2 222/5/2 225/5/2
f 225/5/2 222/5/2 226/5/2
f 223/5/2 224/5/2 229/5/2
f 229/5/2 224/5/2 230/5/2
f 227/5/2 228/5/2 231/5/2
f 231/5/2 228/5/2 232/5/2
f 233/5/2 234/5/2 237/5/2
f 235/5/2 236/5/2 240/5/2
f 240/5/2 236/5/2 241/5/2
f 237/5/2 238/5/2 242/5/2
f 233/5/2 237/5/2 242/5/2
f 242/5/2 238/5/2 243/5/2
f 240/5/2 241/5/2 245/5/2
f 243/5/2 244/5/2 245/5/2
f 242/5/2 243/5/2 245/5/2
f 241/5/2 242/5/2 245/5/2
f 239/5/2 240/5/2 245/5/2
f 245/5/2 244/5/2 246/5/2
f 246/5/2 244/5/2 247/5/2
f 247/5/2 244/5/2 248/5/2
f 246/5/2 247/5/2 249/5/2
f 249/5/2 247/5/2 250/5/2
f 253/5/3 252/5/3 251/5/3
f 254/5/3 252/5/3 253/5/3
f 255/5/3 253/5/3 251/5/3
f 257/5/3 256/5/3 255/5/3
f 259/5/3 257/5/3 255/5/3
f 259/5/3 258/5/3 257/5/3
f 260/5/3 258/5/3 259/5/3
f 261/5/3 255/5/3 251/5/3
f 261/5/3 259/5/3 255/5/3
f 262/5/3 259/5/3 261/5/3
f 263/5/3 261/5/3 251/5/3
f 265/5/3 263/5/3 251/5/3
f 265/5/3 264/5/3 263/5/3
f 266/5/3 264/5/3 265/5/3
f 270/5/3 268/5/3 267/5/3
f 271/5/3 268/5/3 270/5/3
f 272/5/3 270/5/3 269/5/3
f 273/5/3 270/5/3 272/5/3
f 276/5/3 275/5/3 274/5/3
f 277/5/3 275/5/3 276/5/3
f 279/5/3 278/5/3 277/5/3
f 280/5/3 278/5/3 279/5/3
f 284/5/3 282/5/3 281/5/3
f 285/5/3 282/5/3 284/5/3
f 288/5/3 284/5/3 283/5/3
f 289/5/3 284/5/3 288/5/3
f 290/5/3 287/5/3 286/5/3
f 291/5/3 287/5/3 290/5/3
f 293/5/3 292/5/3 291/5/3
f 294/5/3 292/5/3 293/5/3
f 299/5/3 296/5/3 295/5/3
f 300/5/3 296/5/3 299/5/3
f 302/5/3 298/5/3 297/5/3
f 303/5/3 298/5/3 302/5/3
f 307/3/3 302/3/3 301/3/3
f 307/3/3 303/3/3 302/3/3
f 308/3/3 303/3/3 307/3/3
f 309/4/3 304/4/3 303/4/3
f 309/3/3 303/3/3 308/3/3
f 310/4/3 304/4/3 309/4/3
f 311/5/3 306/5/3 305/5/3
f 312/5/3 306/5/3 311/5/3
f 313/6/3 308/6/3 307/6/3
f 314/3/3 310/3/3 309/3/3
f 314/6/3 308/6/3 313/6/3
f 314/3/3 309/3/3 308/3/3
f 315/3/3 310/3/3 314/3/3
f 316/3/3 310/3/3 315/3/3
f 319/3/3 314/3/3 313/3/3
f 319/3/3 315/3/3 314/3/3
f 320/3/3 315/3/3 319/3/3
f 321/4/3 316/4/3 315/4/3
f 321/3/3 315/3/3 320/3/3
f 322/4/3 316/4/3 321/4/3
f 323/5/3 318/5/3 317/5/3
f 324/5/3 318/5/3 323/5/3
f 325/5/3 321/5/3 320/5/3
f 326/5/3 321/5/3 325/5/3
f 329/5/3 328/5/3 327/5/3
f 330/5/3 328/5/3 329/5/3
f 333/5/3 332/5/3 331/5/3
f 334/5/3 332/5/3 333/5/3
f 338/8/3 337/8/3 336/8/3
f 339/8/3 337/8/3 338/8/3
f 340/8/3 338/8/3 336/8/3
f 341/3/3 339/3/3 338/3/3
f 341/8/3 338/8/3 340/8/3
f 342/8/3 340/8/3 336/8/3
f 342/3/3 341/3/3 340/3/3
f 343/3/3 339/3/3 341/3/3
f 343/3/3 341/3/3 342/3/3
f 344/8/3 343/8/3 342/8/3
f 344/3/3 339/3/3 343/3/3
f 345/3/3 339/3/3 344/3/3
f 346/7/3 336/7/3 335/7/3
f 347/8/3 342/8/3 336/8/3
f 347/7/3 336/7/3 346/7/3
f 347/8/3 344/8/3 342/8/3
f 347/8/3 345/8/3 344/8/3
f 348/8/3 345/8/3 347/8/3
f 351/5/3 350/5/3 349/5/3
f 352/5/3 350/5/3 351/5/3
f 360/3/3 354/3/3 353/3/3
f 361/8/3 355/8/3 354/8/3
f 361/3/3 354/3/3 360/3/3
f 362/8/3 355/8/3 361/8/3
f 363/5/3 357/5/3 356/5/3
f 364/5/3 357/5/3 363/5/3
f 365/9/3 359/9/3 358/9/3
f 366/7/3 360/7/3 359/7/3
f 366/9/3 359/9/3 365/9/3
f 367/7/3 360/7/3 366/7/3
f 371/9/3 369/9/3 368/9/3
f 372/7/3 370/7/3 369/7/3
f 372/9/3 369/9/3 371/9/3
f 373/7/3 370/7/3 372/7/3
f 378/3/3 374/3/3 373/3/3
f 379/8/3 375/8/3 374/8/3
f 379/3/3 374/3/3 378/3/3
f 380/8/3 375/8/3 379/8/3
f 381/5/3 377/5/3 376/5/3
f 382/5/3 377/5/3 381/5/3
f 385/5/3 384/5/3 383/5/3
f 386/5/3 384/5/3 385/5/3
f 389/5/3 388/5/3 387/5/3
f 390/5/3 388/5/3 389/5/3
f 391/5/4 392/5/4 393/5/4
f 393/5/4 392/5/4 394/5/4
f 395/5/4 396/5/4 397/5/4
f 397/5/4 396/5/4 398/5/4
f 399/3/4 400/3/4 406/3/4
f 400/8/4 401/8/4 407/8/4
f 406/3/4 400/3/4 407/3/4
f 407/8/4 401/8/4 408/8/4
f 402/5/4 403/5/4 409/5/4
f 409/5/4 403/5/4 410/5/4
f 404/9/4 405/9/4 411/9/4
f 405/7/4 406/7/4 412/7/4
f 411/9/4 405/9/4 412/9/4
f 412/7/4 406/7/4 413/7/4
f 414/9/4 415/9/4 417/9/4
f 415/7/4 416/7/4 418/7/4
f 417/9/4 415/9/4 418/9/4
f 418/7/4 416/7/4 419/7/4
f 419/3/4 420/3/4 424/3/4
f 420/8/4 421/8/4 425/8/4
f 424/3/4 420/3/4 425/3/4
f 425/8/4 421/8/4 426/8/4
f 422/5/4 423/5/4 427/5/4
f 427/5/4 423/5/4 428/5/4
f 429/5/4 430/5/4 431/5/4
f 431/5/4 430/5/4 432/5/4
f 436/5/4 437/5/4 438/5/4
f 438/5/4 437/5/4 439/5/4
f 433/8/4 434/8/4 442/8/4
f 434/3/4 435/3/4 443/3/4
f 442/8/4 434/8/4 443/8/4
f 443/3/4 435/3/4 444/3/4
f 440/5/4 441/5/4 445/5/4
f 445/5/4 441/5/4 446/5/4
f 447/5/4 448/5/4 449/5/4
f 449/5/4 448/5/4 450/5/4
f 450/5/4 451/5/4 452/5/4
f 450/5/4 452/5/4 454/5/4
f 452/5/4 453/5/4 454/5/4
f 454/5/4 453/5/4 455/5/4
f 450/5/4 454/5/4 456/5/4
f 456/5/4 454/5/4 457/5/4
f 457/5/4 458/5/4 460/5/4
f 460/5/4 458/5/4 461/5/4
f 459/5/4 460/5/4 462/5/4
f 462/5/4 460/5/4 463/5/4
f 464/5/4 465/5/4 468/5/4
f 468/5/4 465/5/4 469/5/4
f 466/5/4 467/5/4 470/5/4
f 470/5/4 467/5/4 471/5/4
f 472/5/4 473/5/4 474/5/4
f 474/5/4 473/5/4 475/5/4
f 476/5/4 477/5/4 479/5/4
f 477/5/4 478/5/4 479/5/4
f 479/5/4 478/5/4 480/5/4
f 476/5/4 479/5/4 481/5/4
f 481/5/4 479/5/4 482/5/4
f 483/5/4 484/5/4 488/5/4
f 488/5/4 484/5/4 489/5/4
f 485/5/4 486/5/4 490/5/4
f 486/5/4 487/5/4 490/5/4
f 490/5/4 487/5/4 491/5/4
f 491/5/4 487/5/4 492/5/4
f 489/5/4 490/5/4 493/5/4
f 493/5/4 490/5/4 494/5/4
f 495/5/4 496/5/4 498/5/4
f 498/5/4 496/5/4 499/5/4
f 497/5/4 498/5/4 499/5/4
f 499/5/4 496/5/4 500/5/4
f 497/5/4 499/5/4 501/5/4
f 497/5/4 501/5/4 503/5/4
f 501/5/4 502/5/4 503/5/4
f 503/5/4 502/5/4 504/5/4
f 504/5/4 502/5/4 505/5/4
f 505/5/4 502/5/4 506/5/4
f 504/5/4 505/5/4 507/5/4
f 507/5/4 505/5/4 508/5/4
f 508/5/4 509/5/4 510/5/4
f 510/5/4 509/5/4 511/5/4
f 516/9/5 513/9/5 512/9/5
f 517/9/5 513/9/5 516/9/5
f 518/9/5 515/9/5 514/9/5
f 519/9/5 515/9/5 518/9/5
f 523/7/5 521/7/5 520/7/5
f 524/7/5 521/7/5 523/7/5
f 525/7/5 521/7/5 524/7/5
f 526/7/5 521/7/5 525/7/5
f 528/3/5 523/3/5 522/3/5
f 529/3/5 523/3/5 528/3/5
f 530/1/5 525/1/5 524/1/5
f 531/1/5 525/1/5 530/1/5
f 532/3/5 527/3/5 526/3/5
f 533/3/5 527/3/5 532/3/5
f 534/8/5 531/8/5 530/8/5
f 534/8/5 532/8/5 531/8/5
f 534/8/5 530/8/5 529/8/5
f 535/8/5 532/8/5 534/8/5
f 540/3/5 537/3/5 536/3/5
f 541/6/5 538/6/5 537/6/5
f 541/3/5 537/3/5 540/3/5
f 542/3/5 539/3/5 538/3/5
f 542/6/5 538/6/5 541/6/5
f 543/3/5 539/3/5 542/3/5
f 549/5/5 545/5/5 544/5/5
f 550/5/5 547/5/5 546/5/5
f 552/5/5 549/5/5 548/5/5
f 552/5/5 545/5/5 549/5/5
f 553/5/5 551/5/5 550/5/5
f 553/5/5 550/5/5 546/5/5
f 554/5/5 552/5/5 548/5/5
f 554/5/5 553/5/5 552/5/5
f 555/5/5 553/5/5 554/5/5
f 556/5/5 551/5/5 553/5/5
f 556/5/5 553/5/5 555/5/5
f 557/5/5 551/5/5 556/5/5
f 558/5/5 556/5/5 555/5/5
f 559/5/5 556/5/5 558/5/5
f 560/5/5 556/5/5 559/5/5
f 561/5/5 556/5/5 560/5/5
f 562/5/5 560/5/5 559/5/5
f 563/5/5 560/5/5 562/5/5
f 568/5/5 565/5/5 564/5/5
f 569/5/5 565/5/5 568/5/5
f 570/5/5 567/5/5 566/5/5
f 571/5/5 567/5/5 570/5/5
f 576/5/5 573/5/5 572/5/5
f 577/5/5 573/5/5 576/5/5
f 578/5/5 575/5/5 574/5/5
f 579/5/5 575/5/5 578/5/5
f 585/5/5 581/5/5 580/5/5
f 586/5/5 581/5/5 585/5/5
f 587/5/5 583/5/5 582/5/5
f 588/5/5 583/5/5 587/5/5
f 589/5/5 585/5/5 584/5/5
f 590/5/5 585/5/5 589/5/5
f 594/5/5 592/5/5 591/5/5
f 595/5/5 592/5/5 594/5/5
f 596/5/5 592/5/5 595/5/5
f 597/5/5 592/5/5 596/5/5
f 599/5/5 596/5/5 595/5/5
f 600/5/5 596/5/5 599/5/5
f 601/5/5 596/5/5 600/5/5
f 602/5/5 596/5/5 601/5/5
f 603/5/5 594/5/5 593/5/5
f 604/5/5 594/5/5 603/5/5
f 605/5/5 598/5/5 597/5/5
f 606/5/5 598/5/5 605/5/5
f 611/5/5 608/5/5 607/5/5
f 612/5/5 608/5/5 611/5/5
f 613/5/5 610/5/5 609/5/5
f 614/5/5 610/5/5 613/5/5
f 617/5/5 616/5/5 615/5/5
f 618/5/5 616/5/5 617/5/5
f 619/8/6 620/8/6 623/8/6
f 623/8/6 620/8/6 624/8/6
f 621/8/6 622/8/6 625/8/6
f 625/8/6 622/8/6 626/8/6
f 627/5/6 628/5/6 631/5/6
f 631/5/6 628/5/6 632/5/6
f 629/5/6 630/5/6 633/5/6
f 633/5/6 630/5/6 634/5/6
f 635/5/6 636/5/6 641/5/6
f 641/5/6 636/5/6 642/5/6
f 637/5/6 638/5/6 643/5/6
f 643/5/6 638/5/6 644/5/6
f 639/5/6 640/5/6 647/5/6
f 647/5/6 640/5/6 648/5/6
f 645/5/6 646/5/6 649/5/6
f 649/5/6 646/5/6 650/5/6
f 651/5/6 652/5/6 653/5/6
f 653/5/6 652/5/6 654/5/6
f 654/5/6 655/5/6 660/5/6
f 656/5/6 657/5/6 661/5/6
f 661/5/6 657/5/6 662/5/6
f 662/5/6 657/5/6 663/5/6
f 658/5/6 659/5/6 664/5/6
f 654/5/6 660/5/6 665/5/6
f 665/5/6 660/5/6 666/5/6
f 662/5/6 663/5/6 667/5/6
f 667/5/6 663/5/6 668/5/6
f 664/5/6 659/5/6 669/5/6
f 669/5/6 659/5/6 670/5/6
f 671/5/6 672/5/6 679/5/6
f 673/5/6 674/5/6 680/5/6
f 680/5/6 674/5/6 681/5/6
f 675/5/6 676/5/6 682/5/6
f 682/5/6 676/5/6 683/5/6
f 677/5/6 678/5/6 684/5/6
f 671/5/6 679/5/6 686/5/6
f 679/5/6 680/5/6 686/5/6
f 686/5/6 680/5/6 687/5/6
f 687/5/6 680/5/6 688/5/6
f 683/5/6 684/5/6 689/5/6
f 684/5/6 678/5/6 690/5/6
f 689/5/6 684/5/6 690/5/6
f 690/5/6 678/5/6 691/5/6
f 685/5/6 686/5/6 693/5/6
f 686/5/6 687/5/6 693/5/6
f 693/5/6 687/5/6 694/5/6
f 691/5/6 692/5/6 695/5/6
f 690/5/6 691/5/6 695/5/6
f 695/5/6 692/5/6 696/5/6
f 685/5/6 693/5/6 697/5/6
f 696/5/6 692/5/6 700/5/6
f 697/5/6 698/5/6 701/5/6
f 685/5/6 697/5/6 701/5/6
f 701/5/6 698/5/6 702/5/6
f 699/5/6 700/5/6 706/5/6
f 702/5/6 698/5/6 707/5/6
f 707/5/6 698/5/6 708/5/6
f 703/5/6 704/5/6 709/5/6
f 709/5/6 704/5/6 710/5/6
f 705/5/6 706/5/6 711/5/6
f 706/5/6 700/5/6 712/5/6
f 711/5/6 706/5/6 712/5/6
f 700/5/6 692/5/6 713/5/6
f 712/5/6 700/5/6 713/5/6
f 713/5/6 692/5/6 714/5/6
f 710/5/6 711/5/6 715/5/6
f 715/5/6 711/5/6 716/5/6
f 712/5/6 713/5/6 717/5/6
f 717/5/6 713/5/6 718/5/6
f 719/5/6 720/5/6 722/5/6
f 722/5/6 720/5/6 723/5/6
f 721/5/6 722/5/6 726/5/6
f 723/5/6 724/5/6 726/5/6
f 722/5/6 723/5/6 726/5/6
f 726/5/6 724/5/6 727/5/6
f 725/5/6 726/5/6 730/5/6
f 727/5/6 728/5/6 730/5/6
f 726/5/6 727/5/6 730/5/6
f 730/5/6 728/5/6 731/5/6
f 729/5/6 730/5/6 733/5/6
f 731/5/6 732/5/6 733/5/6
f 730/5/6 731/5/6 733/5/6
f 733/5/6 732/5/6 734/5/6
f 734/5/6 732/5/6 735/5/6
f 735/5/6 732/5/6 736/5/6
f 734/5/6 735/5/6 737/5/6
f 737/5/6 735/5/6 738/5/6
f 738/5/6 735/5/6 739/5/6
f 739/5/6 735/5/6 740/5/6
f 734/5/6 737/5/6 741/5/6
f 741/5/6 737/5/6 742/5/6
f 738/5/6 739/5/6 743/5/6
f 743/5/6 739/5/6 744/5/6
