# MagicaVoxel @ ephtracy

# material
mtllib ShenTe.mtl
usemtl palette

# normals
vn -1 0 0
vn 1 0 0
vn 0 0 1
vn 0 0 -1
vn 0 -1 0
vn 0 1 0

# texcoords
vt 0.0332031 0.5
vt 0.306641 0.5
vt 0.791016 0.5
vt 0.888672 0.5
vt 0.908203 0.5
vt 0.916016 0.5
vt 0.939453 0.5
vt 0.958984 0.5
vt 0.994141 0.5

# verts
v -4 0 3.5
v -4 0 -3.5
v -4 1 3.5
v -4 1 -3.5
v -4 3 3.5
v -4 3 0.5
v -4 6 3.5
v -4 6 0.5
v -4 7 3.5
v -4 7 -0.5
v -4 8 -0.5
v -4 8 -1.5
v -4 9 -1.5
v -4 9 -2.5
v -4 10 -2.5
v -4 10 -3.5
v -4 12 -2.5
v -4 12 -3.5
v -4 13 3.5
v -4 13 -2.5
v -3 1 2.5
v -3 1 -2.5
v -3 3 2.5
v -3 3 0.5
v -3 6 2.5
v -3 6 0.5
v -3 7 2.5
v -3 7 -0.5
v -3 7 -2.5
v -3 8 -0.5
v -3 8 -1.5
v -3 9 -1.5
v -3 9 -2.5
v -2 13 3.5
v -2 13 0.5
v -2 14 3.5
v -2 14 0.5
v -1 14 3.5
v -1 14 1.5
v -1 15 3.5
v -1 15 1.5
v 1 0 0.5
v 1 0 -0.5
v 1 2 0.5
v 1 2 -0.5
v 2 0 1.5
v 2 0 0.5
v 2 0 -0.5
v 2 0 -1.5
v 2 2 1.5
v 2 2 0.5
v 2 2 -0.5
v 2 2 -1.5
v 3 7 3.5
v 3 7 2.5
v 3 8 2.5
v 3 9 2.5
v 3 10 2.5
v 3 11 3.5
v 3 11 2.5
v -3 7 3.5
v -3 7 2.5
v -3 8 2.5
v -3 9 2.5
v -3 10 2.5
v -3 11 3.5
v -3 11 2.5
v -2 0 1.5
v -2 0 0.5
v -2 0 -0.5
v -2 0 -1.5
v -2 2 1.5
v -2 2 0.5
v -2 2 -0.5
v -2 2 -1.5
v -1 0 0.5
v -1 0 -0.5
v -1 2 0.5
v -1 2 -0.5
v 1 14 3.5
v 1 14 1.5
v 1 15 3.5
v 1 15 1.5
v 2 13 3.5
v 2 13 0.5
v 2 14 3.5
v 2 14 0.5
v 3 1 2.5
v 3 1 -2.5
v 3 3 2.5
v 3 3 0.5
v 3 6 2.5
v 3 6 0.5
v 3 7 2.5
v 3 7 -0.5
v 3 7 -2.5
v 3 8 -0.5
v 3 8 -1.5
v 3 9 -1.5
v 3 9 -2.5
v 4 0 3.5
v 4 0 -3.5
v 4 1 3.5
v 4 1 -3.5
v 4 3 3.5
v 4 3 0.5
v 4 6 3.5
v 4 6 0.5
v 4 7 3.5
v 4 7 -0.5
v 4 8 -0.5
v 4 8 -1.5
v 4 9 -1.5
v 4 9 -2.5
v 4 10 -2.5
v 4 10 -3.5
v 4 12 -2.5
v 4 12 -3.5
v 4 13 3.5
v 4 13 -2.5
v -4 0 3.5
v -4 1 3.5
v -4 3 3.5
v -4 6 3.5
v -4 7 3.5
v -4 13 3.5
v -3 7 3.5
v -3 11 3.5
v -2 13 3.5
v -2 14 3.5
v -1 3 3.5
v -1 6 3.5
v -1 14 3.5
v -1 15 3.5
v 1 3 3.5
v 1 6 3.5
v 1 14 3.5
v 1 15 3.5
v 2 13 3.5
v 2 14 3.5
v 3 7 3.5
v 3 11 3.5
v 4 0 3.5
v 4 1 3.5
v 4 3 3.5
v 4 6 3.5
v 4 7 3.5
v 4 13 3.5
v -3 1 2.5
v -3 3 2.5
v -3 6 2.5
v -3 7 2.5
v -3 8 2.5
v -3 9 2.5
v -3 10 2.5
v -3 11 2.5
v -2 8 2.5
v -2 9 2.5
v -2 10 2.5
v -2 11 2.5
v -1 3 2.5
v -1 6 2.5
v -1 7 2.5
v -1 8 2.5
v 1 3 2.5
v 1 6 2.5
v 1 7 2.5
v 1 8 2.5
v 2 8 2.5
v 2 9 2.5
v 2 10 2.5
v 2 11 2.5
v 3 1 2.5
v 3 3 2.5
v 3 6 2.5
v 3 7 2.5
v 3 8 2.5
v 3 9 2.5
v 3 10 2.5
v 3 11 2.5
v -2 0 0.5
v -2 2 0.5
v -1 0 0.5
v -1 2 0.5
v 1 0 0.5
v 1 2 0.5
v 2 0 0.5
v 2 2 0.5
v -2 0 -1.5
v -2 2 -1.5
v 2 0 -1.5
v 2 2 -1.5
v -2 0 1.5
v -2 2 1.5
v -1 14 1.5
v -1 15 1.5
v 1 14 1.5
v 1 15 1.5
v 2 0 1.5
v 2 2 1.5
v -4 3 0.5
v -4 6 0.5
v -3 3 0.5
v -3 6 0.5
v -2 13 0.5
v -2 14 0.5
v 2 13 0.5
v 2 14 0.5
v 3 3 0.5
v 3 6 0.5
v 4 3 0.5
v 4 6 0.5
v -4 7 -0.5
v -4 8 -0.5
v -3 7 -0.5
v -3 8 -0.5
v -2 0 -0.5
v -2 2 -0.5
v -1 0 -0.5
v -1 2 -0.5
v 1 0 -0.5
v 1 2 -0.5
v 2 0 -0.5
v 2 2 -0.5
v 3 7 -0.5
v 3 8 -0.5
v 4 7 -0.5
v 4 8 -0.5
v -4 8 -1.5
v -4 9 -1.5
v -3 8 -1.5
v -3 9 -1.5
v 3 8 -1.5
v 3 9 -1.5
v 4 8 -1.5
v 4 9 -1.5
v -4 9 -2.5
v -4 10 -2.5
v -4 12 -2.5
v -4 13 -2.5
v -3 1 -2.5
v -3 7 -2.5
v -3 9 -2.5
v -3 10 -2.5
v 3 1 -2.5
v 3 7 -2.5
v 3 9 -2.5
v 3 10 -2.5
v 4 9 -2.5
v 4 10 -2.5
v 4 12 -2.5
v 4 13 -2.5
v -4 0 -3.5
v -4 1 -3.5
v -4 10 -3.5
v -4 12 -3.5
v 4 0 -3.5
v 4 1 -3.5
v 4 10 -3.5
v 4 12 -3.5
v -4 0 3.5
v 4 0 3.5
v -2 0 1.5
v 2 0 1.5
v -2 0 0.5
v -1 0 0.5
v 1 0 0.5
v 2 0 0.5
v -2 0 -0.5
v -1 0 -0.5
v 1 0 -0.5
v 2 0 -0.5
v -2 0 -1.5
v 2 0 -1.5
v -4 0 -3.5
v 4 0 -3.5
v -2 2 1.5
v 2 2 1.5
v -2 2 0.5
v -1 2 0.5
v 1 2 0.5
v 2 2 0.5
v -2 2 -0.5
v -1 2 -0.5
v 1 2 -0.5
v 2 2 -0.5
v -2 2 -1.5
v 2 2 -1.5
v -4 3 3.5
v -1 3 3.5
v 1 3 3.5
v 4 3 3.5
v -3 3 2.5
v -1 3 2.5
v 1 3 2.5
v 3 3 2.5
v -4 3 0.5
v -3 3 0.5
v 3 3 0.5
v 4 3 0.5
v -4 7 3.5
v -3 7 3.5
v 3 7 3.5
v 4 7 3.5
v -3 7 2.5
v 3 7 2.5
v -4 7 -0.5
v -3 7 -0.5
v 3 7 -0.5
v 4 7 -0.5
v -4 8 -0.5
v -3 8 -0.5
v 3 8 -0.5
v 4 8 -0.5
v -4 8 -1.5
v -3 8 -1.5
v 3 8 -1.5
v 4 8 -1.5
v -4 9 -1.5
v -3 9 -1.5
v 3 9 -1.5
v 4 9 -1.5
v -4 9 -2.5
v -3 9 -2.5
v 3 9 -2.5
v 4 9 -2.5
v -4 10 -2.5
v -3 10 -2.5
v 3 10 -2.5
v 4 10 -2.5
v -4 10 -3.5
v 4 10 -3.5
v -3 11 3.5
v 3 11 3.5
v -3 11 2.5
v -2 11 2.5
v 2 11 2.5
v 3 11 2.5
v -4 1 3.5
v 4 1 3.5
v -3 1 2.5
v 3 1 2.5
v -3 1 -2.5
v 3 1 -2.5
v -4 1 -3.5
v 4 1 -3.5
v -4 6 3.5
v -1 6 3.5
v 1 6 3.5
v 4 6 3.5
v -3 6 2.5
v -1 6 2.5
v 1 6 2.5
v 3 6 2.5
v -4 6 0.5
v -3 6 0.5
v 3 6 0.5
v 4 6 0.5
v -4 12 -2.5
v 4 12 -2.5
v -4 12 -3.5
v 4 12 -3.5
v -4 13 3.5
v -2 13 3.5
v 2 13 3.5
v 4 13 3.5
v -2 13 0.5
v 2 13 0.5
v -4 13 -2.5
v 4 13 -2.5
v -2 14 3.5
v -1 14 3.5
v 1 14 3.5
v 2 14 3.5
v -1 14 1.5
v 1 14 1.5
v -2 14 0.5
v 2 14 0.5
v -1 15 3.5
v 1 15 3.5
v -1 15 1.5
v 1 15 1.5

# faces
f 3/6/1 2/6/1 1/6/1
f 4/6/1 2/6/1 3/6/1
f 7/6/1 6/6/1 5/6/1
f 8/6/1 6/6/1 7/6/1
f 11/9/1 10/9/1 9/9/1
f 13/9/1 12/9/1 11/9/1
f 15/9/1 14/9/1 13/9/1
f 17/9/1 15/9/1 13/9/1
f 17/9/1 16/9/1 15/9/1
f 18/9/1 16/9/1 17/9/1
f 19/9/1 11/9/1 9/9/1
f 19/9/1 13/9/1 11/9/1
f 19/9/1 17/9/1 13/9/1
f 20/9/1 17/9/1 19/9/1
f 23/6/1 22/6/1 21/6/1
f 24/6/1 22/6/1 23/6/1
f 26/6/1 22/6/1 24/6/1
f 27/6/1 26/6/1 25/6/1
f 28/6/1 22/6/1 26/6/1
f 28/6/1 26/6/1 27/6/1
f 29/6/1 22/6/1 28/6/1
f 30/8/1 29/8/1 28/8/1
f 31/8/1 29/8/1 30/8/1
f 32/8/1 29/8/1 31/8/1
f 33/8/1 29/8/1 32/8/1
f 36/9/1 35/9/1 34/9/1
f 37/9/1 35/9/1 36/9/1
f 40/9/1 39/9/1 38/9/1
f 41/9/1 39/9/1 40/9/1
f 44/2/1 43/2/1 42/2/1
f 45/2/1 43/2/1 44/2/1
f 50/6/1 47/6/1 46/6/1
f 51/6/1 47/6/1 50/6/1
f 52/6/1 49/6/1 48/6/1
f 53/6/1 49/6/1 52/6/1
f 56/9/1 55/9/1 54/9/1
f 57/9/1 56/9/1 54/9/1
f 58/9/1 57/9/1 54/9/1
f 59/9/1 58/9/1 54/9/1
f 60/9/1 58/9/1 59/9/1
f 61/9/2 62/9/2 63/9/2
f 61/9/2 63/9/2 64/9/2
f 61/9/2 64/9/2 65/9/2
f 61/9/2 65/9/2 66/9/2
f 66/9/2 65/9/2 67/9/2
f 68/6/2 69/6/2 72/6/2
f 72/6/2 69/6/2 73/6/2
f 70/6/2 71/6/2 74/6/2
f 74/6/2 71/6/2 75/6/2
f 76/2/2 77/2/2 78/2/2
f 78/2/2 77/2/2 79/2/2
f 80/9/2 81/9/2 82/9/2
f 82/9/2 81/9/2 83/9/2
f 84/9/2 85/9/2 86/9/2
f 86/9/2 85/9/2 87/9/2
f 88/6/2 89/6/2 90/6/2
f 90/6/2 89/6/2 91/6/2
f 91/6/2 89/6/2 93/6/2
f 92/6/2 93/6/2 94/6/2
f 93/6/2 89/6/2 95/6/2
f 94/6/2 93/6/2 95/6/2
f 95/6/2 89/6/2 96/6/2
f 95/8/2 96/8/2 97/8/2
f 97/8/2 96/8/2 98/8/2
f 98/8/2 96/8/2 99/8/2
f 99/8/2 96/8/2 100/8/2
f 101/6/2 102/6/2 103/6/2
f 103/6/2 102/6/2 104/6/2
f 105/6/2 106/6/2 107/6/2
f 107/6/2 106/6/2 108/6/2
f 109/9/2 110/9/2 111/9/2
f 111/9/2 112/9/2 113/9/2
f 113/9/2 114/9/2 115/9/2
f 113/9/2 115/9/2 117/9/2
f 115/9/2 116/9/2 117/9/2
f 117/9/2 116/9/2 118/9/2
f 109/9/2 111/9/2 119/9/2
f 111/9/2 113/9/2 119/9/2
f 113/9/2 117/9/2 119/9/2
f 119/9/2 117/9/2 120/9/2
f 127/9/3 126/9/3 125/9/3
f 128/9/3 126/9/3 127/9/3
f 129/9/3 126/9/3 128/9/3
f 131/6/3 124/6/3 123/6/3
f 132/6/3 124/6/3 131/6/3
f 133/9/3 130/9/3 129/9/3
f 135/7/3 132/7/3 131/7/3
f 136/7/3 132/7/3 135/7/3
f 137/9/3 134/9/3 133/9/3
f 137/9/3 133/9/3 129/9/3
f 138/9/3 134/9/3 137/9/3
f 139/9/3 129/9/3 128/9/3
f 139/9/3 137/9/3 129/9/3
f 140/9/3 137/9/3 139/9/3
f 142/9/3 139/9/3 128/9/3
f 143/6/3 122/6/3 121/6/3
f 144/6/3 122/6/3 143/6/3
f 145/6/3 136/6/3 135/6/3
f 146/6/3 136/6/3 145/6/3
f 147/9/3 142/9/3 141/9/3
f 148/9/3 139/9/3 142/9/3
f 148/9/3 142/9/3 147/9/3
f 157/7/3 153/7/3 152/7/3
f 157/4/3 154/4/3 153/4/3
f 158/8/3 155/8/3 154/8/3
f 158/4/3 154/4/3 157/4/3
f 159/3/3 156/3/3 155/3/3
f 159/8/3 155/8/3 158/8/3
f 160/3/3 156/3/3 159/3/3
f 161/6/3 150/6/3 149/6/3
f 162/6/3 152/6/3 151/6/3
f 163/7/3 157/7/3 152/7/3
f 163/6/3 152/6/3 162/6/3
f 164/8/3 158/8/3 157/8/3
f 164/7/3 157/7/3 163/7/3
f 164/8/3 159/8/3 158/8/3
f 164/8/3 160/8/3 159/8/3
f 165/6/3 161/6/3 149/6/3
f 166/7/3 163/7/3 162/7/3
f 167/5/3 164/5/3 163/5/3
f 167/7/3 163/7/3 166/7/3
f 168/8/3 160/8/3 164/8/3
f 168/5/3 164/5/3 167/5/3
f 169/7/3 168/7/3 167/7/3
f 169/8/3 160/8/3 168/8/3
f 170/8/3 160/8/3 169/8/3
f 171/8/3 160/8/3 170/8/3
f 172/8/3 160/8/3 171/8/3
f 173/6/3 165/6/3 149/6/3
f 174/6/3 165/6/3 173/6/3
f 175/6/3 167/6/3 166/6/3
f 176/7/3 169/7/3 167/7/3
f 176/6/3 167/6/3 175/6/3
f 177/4/3 170/4/3 169/4/3
f 177/7/3 169/7/3 176/7/3
f 178/8/3 171/8/3 170/8/3
f 178/4/3 170/4/3 177/4/3
f 179/3/3 172/3/3 171/3/3
f 179/8/3 171/8/3 178/8/3
f 180/3/3 172/3/3 179/3/3
f 183/2/3 182/2/3 181/2/3
f 184/2/3 182/2/3 183/2/3
f 187/2/3 186/2/3 185/2/3
f 188/2/3 186/2/3 187/2/3
f 191/6/3 190/6/3 189/6/3
f 192/6/3 190/6/3 191/6/3
f 195/9/4 196/9/4 197/9/4
f 197/9/4 196/9/4 198/9/4
f 193/6/4 194/6/4 199/6/4
f 199/6/4 194/6/4 200/6/4
f 201/6/4 202/6/4 203/6/4
f 203/6/4 202/6/4 204/6/4
f 205/9/4 206/9/4 207/9/4
f 207/9/4 206/9/4 208/9/4
f 209/6/4 210/6/4 211/6/4
f 211/6/4 210/6/4 212/6/4
f 213/9/4 214/9/4 215/9/4
f 215/9/4 214/9/4 216/9/4
f 217/2/4 218/2/4 219/2/4
f 219/2/4 218/2/4 220/2/4
f 221/2/4 222/2/4 223/2/4
f 223/2/4 222/2/4 224/2/4
f 225/9/4 226/9/4 227/9/4
f 227/9/4 226/9/4 228/9/4
f 229/9/4 230/9/4 231/9/4
f 231/9/4 230/9/4 232/9/4
f 233/9/4 234/9/4 235/9/4
f 235/9/4 234/9/4 236/9/4
f 237/9/4 238/9/4 243/9/4
f 243/9/4 238/9/4 244/9/4
f 241/6/4 242/6/4 245/6/4
f 242/8/4 243/8/4 246/8/4
f 245/6/4 242/6/4 246/6/4
f 243/8/4 244/8/4 246/8/4
f 246/8/4 244/8/4 247/8/4
f 247/8/4 244/8/4 248/8/4
f 247/9/4 248/9/4 249/9/4
f 249/9/4 248/9/4 250/9/4
f 239/9/4 240/9/4 251/9/4
f 251/9/4 240/9/4 252/9/4
f 253/6/4 254/6/4 257/6/4
f 257/6/4 254/6/4 258/6/4
f 255/9/4 256/9/4 259/9/4
f 259/9/4 256/9/4 260/9/4
f 263/6/5 262/6/5 261/6/5
f 264/6/5 262/6/5 263/6/5
f 265/6/5 263/6/5 261/6/5
f 268/6/5 262/6/5 264/6/5
f 269/2/5 266/2/5 265/2/5
f 269/6/5 265/6/5 261/6/5
f 270/2/5 266/2/5 269/2/5
f 271/2/5 268/2/5 267/2/5
f 272/6/5 262/6/5 268/6/5
f 272/2/5 268/2/5 271/2/5
f 273/6/5 269/6/5 261/6/5
f 274/6/5 262/6/5 272/6/5
f 275/6/5 273/6/5 261/6/5
f 275/6/5 274/6/5 273/6/5
f 276/6/5 262/6/5 274/6/5
f 276/6/5 274/6/5 275/6/5
f 279/1/5 278/1/5 277/1/5
f 280/1/5 278/1/5 279/1/5
f 281/1/5 278/1/5 280/1/5
f 282/1/5 278/1/5 281/1/5
f 284/1/5 281/1/5 280/1/5
f 285/1/5 281/1/5 284/1/5
f 287/1/5 284/1/5 283/1/5
f 287/1/5 286/1/5 285/1/5
f 287/1/5 285/1/5 284/1/5
f 288/1/5 286/1/5 287/1/5
f 293/6/5 290/6/5 289/6/5
f 294/7/5 291/7/5 290/7/5
f 294/6/5 290/6/5 293/6/5
f 295/6/5 292/6/5 291/6/5
f 295/7/5 291/7/5 294/7/5
f 296/6/5 292/6/5 295/6/5
f 297/6/5 293/6/5 289/6/5
f 298/6/5 293/6/5 297/6/5
f 299/6/5 292/6/5 296/6/5
f 300/6/5 292/6/5 299/6/5
f 305/9/5 302/9/5 301/9/5
f 306/9/5 304/9/5 303/9/5
f 307/9/5 305/9/5 301/9/5
f 308/9/5 305/9/5 307/9/5
f 309/9/5 304/9/5 306/9/5
f 310/9/5 304/9/5 309/9/5
f 315/9/5 312/9/5 311/9/5
f 316/9/5 312/9/5 315/9/5
f 317/9/5 314/9/5 313/9/5
f 318/9/5 314/9/5 317/9/5
f 323/9/5 320/9/5 319/9/5
f 324/9/5 320/9/5 323/9/5
f 325/9/5 322/9/5 321/9/5
f 326/9/5 322/9/5 325/9/5
f 331/9/5 328/9/5 327/9/5
f 331/9/5 330/9/5 329/9/5
f 331/9/5 329/9/5 328/9/5
f 332/9/5 330/9/5 331/9/5
f 335/9/5 334/9/5 333/9/5
f 336/9/5 334/9/5 335/9/5
f 337/9/5 334/9/5 336/9/5
f 338/9/5 334/9/5 337/9/5
f 339/6/6 340/6/6 341/6/6
f 341/6/6 340/6/6 342/6/6
f 339/6/6 341/6/6 343/6/6
f 342/6/6 340/6/6 344/6/6
f 339/6/6 343/6/6 345/6/6
f 343/6/6 344/6/6 345/6/6
f 344/6/6 340/6/6 346/6/6
f 345/6/6 344/6/6 346/6/6
f 347/6/6 348/6/6 351/6/6
f 348/7/6 349/7/6 352/7/6
f 351/6/6 348/6/6 352/6/6
f 349/6/6 350/6/6 353/6/6
f 352/7/6 349/7/6 353/7/6
f 353/6/6 350/6/6 354/6/6
f 347/6/6 351/6/6 355/6/6
f 355/6/6 351/6/6 356/6/6
f 354/6/6 350/6/6 357/6/6
f 357/6/6 350/6/6 358/6/6
f 359/9/6 360/9/6 361/9/6
f 361/9/6 360/9/6 362/9/6
f 363/9/6 364/9/6 367/9/6
f 365/9/6 366/9/6 368/9/6
f 363/9/6 367/9/6 369/9/6
f 367/9/6 368/9/6 369/9/6
f 368/9/6 366/9/6 370/9/6
f 369/9/6 368/9/6 370/9/6
f 371/9/6 372/9/6 375/9/6
f 373/9/6 374/9/6 376/9/6
f 371/9/6 375/9/6 377/9/6
f 375/9/6 376/9/6 377/9/6
f 376/9/6 374/9/6 378/9/6
f 377/9/6 376/9/6 378/9/6
f 379/9/6 380/9/6 381/9/6
f 381/9/6 380/9/6 382/9/6
