# MagicaVoxel @ ephtracy

# material
mtllib Verkäufer 2.mtl
usemtl palette

# normals
vn -1 0 0
vn 1 0 0
vn 0 0 1
vn 0 0 -1
vn 0 -1 0
vn 0 1 0

# texcoords
vt 0.720703 0.5
vt 0.740234 0.5
vt 0.791016 0.5
vt 0.794922 0.5
vt 0.818359 0.5
vt 0.919922 0.5
vt 0.923828 0.5
vt 0.970703 0.5
vt 0.986328 0.5
vt 0.990234 0.5
vt 0.994141 0.5

# verts
v -5.5 11 2.5
v -5.5 11 -2.5
v -5.5 13 2.5
v -5.5 13 -2.5
v -4.5 11 3.5
v -4.5 11 2.5
v -4.5 11 -2.5
v -4.5 11 -3.5
v -4.5 13 3.5
v -4.5 13 2.5
v -4.5 13 -2.5
v -4.5 13 -3.5
v -4.5 14 2.5
v -4.5 14 -2.5
v -3.5 2 0.5
v -3.5 2 -0.5
v -3.5 3 0.5
v -3.5 3 -0.5
v -3.5 6 0.5
v -3.5 6 -0.5
v -3.5 8 2.5
v -3.5 8 -2.5
v -3.5 11 4.5
v -3.5 11 3.5
v -3.5 11 2.5
v -3.5 11 -2.5
v -3.5 11 -3.5
v -3.5 11 -4.5
v -3.5 12 2.5
v -3.5 12 -2.5
v -3.5 13 4.5
v -3.5 13 3.5
v -3.5 13 2.5
v -3.5 13 -2.5
v -3.5 13 -3.5
v -3.5 13 -4.5
v -3.5 14 3.5
v -3.5 14 2.5
v -3.5 14 -2.5
v -3.5 14 -3.5
v -2.5 0 0.5
v -2.5 0 -0.5
v -2.5 1 0.5
v -2.5 1 -0.5
v -2.5 2 1.5
v -2.5 2 0.5
v -2.5 2 -0.5
v -2.5 2 -1.5
v -2.5 3 0.5
v -2.5 3 -0.5
v -2.5 6 0.5
v -2.5 6 -0.5
v -2.5 7 2.5
v -2.5 7 1.5
v -2.5 7 -1.5
v -2.5 8 2.5
v -2.5 8 -1.5
v -2.5 11 5.5
v -2.5 11 4.5
v -2.5 11 -4.5
v -2.5 11 -5.5
v -2.5 13 5.5
v -2.5 13 4.5
v -2.5 13 3.5
v -2.5 13 -3.5
v -2.5 13 -4.5
v -2.5 13 -5.5
v -2.5 14 4.5
v -2.5 14 3.5
v -2.5 14 -3.5
v -2.5 14 -4.5
v -1.5 6 3.5
v -1.5 6 2.5
v -1.5 7 2.5
v -1.5 8 3.5
v -1.5 8 2.5
v -1.5 14 1.5
v -1.5 14 -1.5
v -1.5 16 1.5
v -1.5 16 -1.5
v -0.5 16 0.5
v -0.5 16 -0.5
v -0.5 17 0.5
v -0.5 17 -0.5
v 0.5 6 3.5
v 0.5 6 2.5
v 0.5 7 3.5
v 0.5 7 2.5
v 1.5 0 0.5
v 1.5 0 -0.5
v 1.5 1 0.5
v 1.5 1 -0.5
v 1.5 2 0.5
v 1.5 2 -0.5
v 2.5 11 4.5
v 2.5 11 3.5
v 2.5 11 -3.5
v 2.5 11 -4.5
v 2.5 12 4.5
v 2.5 12 3.5
v 2.5 12 -3.5
v 2.5 12 -4.5
v 3.5 11 3.5
v 3.5 11 2.5
v 3.5 11 -2.5
v 3.5 11 -3.5
v 3.5 12 3.5
v 3.5 12 2.5
v 3.5 12 -2.5
v 3.5 12 -3.5
v 4.5 11 2.5
v 4.5 11 -2.5
v 4.5 12 2.5
v 4.5 12 -2.5
v -4.5 11 2.5
v -4.5 11 -2.5
v -4.5 12 2.5
v -4.5 12 -2.5
v -3.5 11 3.5
v -3.5 11 2.5
v -3.5 11 -2.5
v -3.5 11 -3.5
v -3.5 12 3.5
v -3.5 12 2.5
v -3.5 12 -2.5
v -3.5 12 -3.5
v -2.5 11 4.5
v -2.5 11 3.5
v -2.5 11 -3.5
v -2.5 11 -4.5
v -2.5 12 4.5
v -2.5 12 3.5
v -2.5 12 -3.5
v -2.5 12 -4.5
v -1.5 0 0.5
v -1.5 0 -0.5
v -1.5 1 0.5
v -1.5 1 -0.5
v -1.5 2 0.5
v -1.5 2 -0.5
v -0.5 6 3.5
v -0.5 6 2.5
v -0.5 7 3.5
v -0.5 7 2.5
v 0.5 16 0.5
v 0.5 16 -0.5
v 0.5 17 0.5
v 0.5 17 -0.5
v 1.5 6 3.5
v 1.5 6 2.5
v 1.5 7 2.5
v 1.5 8 3.5
v 1.5 8 2.5
v 1.5 14 1.5
v 1.5 14 -1.5
v 1.5 16 1.5
v 1.5 16 -1.5
v 2.5 0 0.5
v 2.5 0 -0.5
v 2.5 1 0.5
v 2.5 1 -0.5
v 2.5 2 1.5
v 2.5 2 0.5
v 2.5 2 -0.5
v 2.5 2 -1.5
v 2.5 3 0.5
v 2.5 3 -0.5
v 2.5 6 0.5
v 2.5 6 -0.5
v 2.5 7 2.5
v 2.5 7 1.5
v 2.5 7 -1.5
v 2.5 8 2.5
v 2.5 8 -1.5
v 2.5 11 5.5
v 2.5 11 4.5
v 2.5 11 -4.5
v 2.5 11 -5.5
v 2.5 13 5.5
v 2.5 13 4.5
v 2.5 13 3.5
v 2.5 13 -3.5
v 2.5 13 -4.5
v 2.5 13 -5.5
v 2.5 14 4.5
v 2.5 14 3.5
v 2.5 14 -3.5
v 2.5 14 -4.5
v 3.5 2 0.5
v 3.5 2 -0.5
v 3.5 3 0.5
v 3.5 3 -0.5
v 3.5 6 0.5
v 3.5 6 -0.5
v 3.5 8 2.5
v 3.5 8 -2.5
v 3.5 11 4.5
v 3.5 11 3.5
v 3.5 11 2.5
v 3.5 11 -2.5
v 3.5 11 -3.5
v 3.5 11 -4.5
v 3.5 12 2.5
v 3.5 12 -2.5
v 3.5 13 4.5
v 3.5 13 3.5
v 3.5 13 2.5
v 3.5 13 -2.5
v 3.5 13 -3.5
v 3.5 13 -4.5
v 3.5 14 3.5
v 3.5 14 2.5
v 3.5 14 -2.5
v 3.5 14 -3.5
v 4.5 11 3.5
v 4.5 11 2.5
v 4.5 11 -2.5
v 4.5 11 -3.5
v 4.5 13 3.5
v 4.5 13 2.5
v 4.5 13 -2.5
v 4.5 13 -3.5
v 4.5 14 2.5
v 4.5 14 -2.5
v 5.5 11 2.5
v 5.5 11 -2.5
v 5.5 13 2.5
v 5.5 13 -2.5
v -2.5 11 5.5
v -2.5 13 5.5
v 2.5 11 5.5
v 2.5 13 5.5
v -3.5 11 4.5
v -3.5 13 4.5
v -2.5 11 4.5
v -2.5 13 4.5
v -2.5 14 4.5
v 2.5 11 4.5
v 2.5 13 4.5
v 2.5 14 4.5
v 3.5 11 4.5
v 3.5 13 4.5
v -4.5 11 3.5
v -4.5 13 3.5
v -3.5 11 3.5
v -3.5 13 3.5
v -3.5 14 3.5
v -2.5 13 3.5
v -2.5 14 3.5
v -1.5 6 3.5
v -1.5 8 3.5
v -0.5 6 3.5
v -0.5 7 3.5
v 0.5 6 3.5
v 0.5 7 3.5
v 1.5 6 3.5
v 1.5 8 3.5
v 2.5 13 3.5
v 2.5 14 3.5
v 3.5 11 3.5
v 3.5 13 3.5
v 3.5 14 3.5
v 4.5 11 3.5
v 4.5 13 3.5
v -5.5 11 2.5
v -5.5 13 2.5
v -4.5 11 2.5
v -4.5 13 2.5
v -4.5 14 2.5
v -3.5 8 2.5
v -3.5 11 2.5
v -3.5 12 2.5
v -3.5 13 2.5
v -3.5 14 2.5
v -2.5 7 2.5
v -2.5 8 2.5
v -2.5 11 2.5
v -1.5 7 2.5
v -1.5 8 2.5
v -1.5 9 2.5
v -1.5 10 2.5
v -0.5 9 2.5
v -0.5 10 2.5
v 0.5 9 2.5
v 0.5 10 2.5
v 1.5 7 2.5
v 1.5 8 2.5
v 1.5 9 2.5
v 1.5 10 2.5
v 2.5 7 2.5
v 2.5 8 2.5
v 2.5 11 2.5
v 3.5 8 2.5
v 3.5 11 2.5
v 3.5 12 2.5
v 3.5 13 2.5
v 3.5 14 2.5
v 4.5 11 2.5
v 4.5 13 2.5
v 4.5 14 2.5
v 5.5 11 2.5
v 5.5 13 2.5
v -2.5 2 1.5
v -2.5 7 1.5
v -1.5 7 1.5
v -1.5 14 1.5
v -1.5 16 1.5
v -0.5 2 1.5
v -0.5 6 1.5
v 0.5 2 1.5
v 0.5 6 1.5
v 1.5 7 1.5
v 1.5 14 1.5
v 1.5 16 1.5
v 2.5 2 1.5
v 2.5 7 1.5
v -3.5 2 0.5
v -3.5 3 0.5
v -3.5 6 0.5
v -2.5 0 0.5
v -2.5 1 0.5
v -2.5 2 0.5
v -2.5 3 0.5
v -2.5 6 0.5
v -1.5 0 0.5
v -1.5 1 0.5
v -1.5 2 0.5
v -0.5 16 0.5
v -0.5 17 0.5
v 0.5 16 0.5
v 0.5 17 0.5
v 1.5 0 0.5
v 1.5 1 0.5
v 1.5 2 0.5
v 2.5 0 0.5
v 2.5 1 0.5
v 2.5 2 0.5
v 2.5 3 0.5
v 2.5 6 0.5
v 3.5 2 0.5
v 3.5 3 0.5
v 3.5 6 0.5
v -4.5 11 -2.5
v -4.5 12 -2.5
v -3.5 11 -2.5
v -3.5 12 -2.5
v 3.5 11 -2.5
v 3.5 12 -2.5
v 4.5 11 -2.5
v 4.5 12 -2.5
v -3.5 11 -3.5
v -3.5 12 -3.5
v -2.5 11 -3.5
v -2.5 12 -3.5
v 2.5 11 -3.5
v 2.5 12 -3.5
v 3.5 11 -3.5
v 3.5 12 -3.5
v -2.5 11 -4.5
v -2.5 12 -4.5
v 2.5 11 -4.5
v 2.5 12 -4.5
v -2.5 11 4.5
v -2.5 12 4.5
v 2.5 11 4.5
v 2.5 12 4.5
v -3.5 11 3.5
v -3.5 12 3.5
v -2.5 11 3.5
v -2.5 12 3.5
v 2.5 11 3.5
v 2.5 12 3.5
v 3.5 11 3.5
v 3.5 12 3.5
v -4.5 11 2.5
v -4.5 12 2.5
v -3.5 11 2.5
v -3.5 12 2.5
v -1.5 6 2.5
v -1.5 7 2.5
v -0.5 6 2.5
v -0.5 7 2.5
v 0.5 6 2.5
v 0.5 7 2.5
v 1.5 6 2.5
v 1.5 7 2.5
v 3.5 11 2.5
v 3.5 12 2.5
v 4.5 11 2.5
v 4.5 12 2.5
v -3.5 2 -0.5
v -3.5 3 -0.5
v -3.5 6 -0.5
v -2.5 0 -0.5
v -2.5 1 -0.5
v -2.5 2 -0.5
v -2.5 3 -0.5
v -2.5 6 -0.5
v -1.5 0 -0.5
v -1.5 1 -0.5
v -1.5 2 -0.5
v -0.5 16 -0.5
v -0.5 17 -0.5
v 0.5 16 -0.5
v 0.5 17 -0.5
v 1.5 0 -0.5
v 1.5 1 -0.5
v 1.5 2 -0.5
v 2.5 0 -0.5
v 2.5 1 -0.5
v 2.5 2 -0.5
v 2.5 3 -0.5
v 2.5 6 -0.5
v 3.5 2 -0.5
v 3.5 3 -0.5
v 3.5 6 -0.5
v -2.5 2 -1.5
v -2.5 7 -1.5
v -2.5 8 -1.5
v -1.5 14 -1.5
v -1.5 16 -1.5
v 1.5 14 -1.5
v 1.5 16 -1.5
v 2.5 2 -1.5
v 2.5 7 -1.5
v 2.5 8 -1.5
v -5.5 11 -2.5
v -5.5 13 -2.5
v -4.5 11 -2.5
v -4.5 13 -2.5
v -4.5 14 -2.5
v -3.5 8 -2.5
v -3.5 11 -2.5
v -3.5 12 -2.5
v -3.5 13 -2.5
v -3.5 14 -2.5
v 3.5 8 -2.5
v 3.5 11 -2.5
v 3.5 12 -2.5
v 3.5 13 -2.5
v 3.5 14 -2.5
v 4.5 11 -2.5
v 4.5 13 -2.5
v 4.5 14 -2.5
v 5.5 11 -2.5
v 5.5 13 -2.5
v -4.5 11 -3.5
v -4.5 13 -3.5
v -3.5 11 -3.5
v -3.5 13 -3.5
v -3.5 14 -3.5
v -2.5 13 -3.5
v -2.5 14 -3.5
v 2.5 13 -3.5
v 2.5 14 -3.5
v 3.5 11 -3.5
v 3.5 13 -3.5
v 3.5 14 -3.5
v 4.5 11 -3.5
v 4.5 13 -3.5
v -3.5 11 -4.5
v -3.5 13 -4.5
v -2.5 11 -4.5
v -2.5 13 -4.5
v -2.5 14 -4.5
v 2.5 11 -4.5
v 2.5 13 -4.5
v 2.5 14 -4.5
v 3.5 11 -4.5
v 3.5 13 -4.5
v -2.5 11 -5.5
v -2.5 13 -5.5
v 2.5 11 -5.5
v 2.5 13 -5.5
v -2.5 0 0.5
v -1.5 0 0.5
v 1.5 0 0.5
v 2.5 0 0.5
v -2.5 0 -0.5
v -1.5 0 -0.5
v 1.5 0 -0.5
v 2.5 0 -0.5
v -2.5 2 1.5
v -0.5 2 1.5
v 0.5 2 1.5
v 2.5 2 1.5
v -3.5 2 0.5
v -2.5 2 0.5
v -1.5 2 0.5
v -0.5 2 0.5
v 0.5 2 0.5
v 1.5 2 0.5
v 2.5 2 0.5
v 3.5 2 0.5
v -3.5 2 -0.5
v -2.5 2 -0.5
v -1.5 2 -0.5
v 1.5 2 -0.5
v 2.5 2 -0.5
v 3.5 2 -0.5
v -2.5 2 -1.5
v 2.5 2 -1.5
v -1.5 6 3.5
v -0.5 6 3.5
v 0.5 6 3.5
v 1.5 6 3.5
v -1.5 6 2.5
v -0.5 6 2.5
v 0.5 6 2.5
v 1.5 6 2.5
v -0.5 7 3.5
v 0.5 7 3.5
v -2.5 7 2.5
v -1.5 7 2.5
v -0.5 7 2.5
v 0.5 7 2.5
v 1.5 7 2.5
v 2.5 7 2.5
v -2.5 7 1.5
v -1.5 7 1.5
v 1.5 7 1.5
v 2.5 7 1.5
v -3.5 8 2.5
v -2.5 8 2.5
v 2.5 8 2.5
v 3.5 8 2.5
v -2.5 8 -1.5
v 2.5 8 -1.5
v -3.5 8 -2.5
v 3.5 8 -2.5
v -2.5 11 5.5
v 2.5 11 5.5
v -3.5 11 4.5
v -2.5 11 4.5
v 2.5 11 4.5
v 3.5 11 4.5
v -4.5 11 3.5
v -3.5 11 3.5
v -2.5 11 3.5
v 2.5 11 3.5
v 3.5 11 3.5
v 4.5 11 3.5
v -5.5 11 2.5
v -4.5 11 2.5
v -3.5 11 2.5
v 3.5 11 2.5
v 4.5 11 2.5
v 5.5 11 2.5
v -5.5 11 -2.5
v -4.5 11 -2.5
v -3.5 11 -2.5
v 3.5 11 -2.5
v 4.5 11 -2.5
v 5.5 11 -2.5
v -4.5 11 -3.5
v -3.5 11 -3.5
v -2.5 11 -3.5
v 2.5 11 -3.5
v 3.5 11 -3.5
v 4.5 11 -3.5
v -3.5 11 -4.5
v -2.5 11 -4.5
v 2.5 11 -4.5
v 3.5 11 -4.5
v -2.5 11 -5.5
v 2.5 11 -5.5
v -2.5 12 4.5
v 2.5 12 4.5
v -3.5 12 3.5
v -2.5 12 3.5
v 2.5 12 3.5
v 3.5 12 3.5
v -4.5 12 2.5
v -3.5 12 2.5
v 3.5 12 2.5
v 4.5 12 2.5
v -4.5 12 -2.5
v -3.5 12 -2.5
v 3.5 12 -2.5
v 4.5 12 -2.5
v -3.5 12 -3.5
v -2.5 12 -3.5
v 2.5 12 -3.5
v 3.5 12 -3.5
v -2.5 12 -4.5
v 2.5 12 -4.5
v -3.5 6 0.5
v -2.5 6 0.5
v 2.5 6 0.5
v 3.5 6 0.5
v -3.5 6 -0.5
v -2.5 6 -0.5
v 2.5 6 -0.5
v 3.5 6 -0.5
v -1.5 8 3.5
v 1.5 8 3.5
v -1.5 8 2.5
v 1.5 8 2.5
v -2.5 13 5.5
v 2.5 13 5.5
v -3.5 13 4.5
v -2.5 13 4.5
v 2.5 13 4.5
v 3.5 13 4.5
v -4.5 13 3.5
v -3.5 13 3.5
v -2.5 13 3.5
v 2.5 13 3.5
v 3.5 13 3.5
v 4.5 13 3.5
v -5.5 13 2.5
v -4.5 13 2.5
v -3.5 13 2.5
v 3.5 13 2.5
v 4.5 13 2.5
v 5.5 13 2.5
v -5.5 13 -2.5
v -4.5 13 -2.5
v -3.5 13 -2.5
v 3.5 13 -2.5
v 4.5 13 -2.5
v 5.5 13 -2.5
v -4.5 13 -3.5
v -3.5 13 -3.5
v -2.5 13 -3.5
v 2.5 13 -3.5
v 3.5 13 -3.5
v 4.5 13 -3.5
v -3.5 13 -4.5
v -2.5 13 -4.5
v 2.5 13 -4.5
v 3.5 13 -4.5
v -2.5 13 -5.5
v 2.5 13 -5.5
v -2.5 14 4.5
v 2.5 14 4.5
v -3.5 14 3.5
v -2.5 14 3.5
v 2.5 14 3.5
v 3.5 14 3.5
v -4.5 14 2.5
v -3.5 14 2.5
v 3.5 14 2.5
v 4.5 14 2.5
v -1.5 14 1.5
v 1.5 14 1.5
v -1.5 14 -1.5
v 1.5 14 -1.5
v -4.5 14 -2.5
v -3.5 14 -2.5
v 3.5 14 -2.5
v 4.5 14 -2.5
v -3.5 14 -3.5
v -2.5 14 -3.5
v 2.5 14 -3.5
v 3.5 14 -3.5
v -2.5 14 -4.5
v 2.5 14 -4.5
v -1.5 16 1.5
v 1.5 16 1.5
v -0.5 16 0.5
v 0.5 16 0.5
v -0.5 16 -0.5
v 0.5 16 -0.5
v -1.5 16 -1.5
v 1.5 16 -1.5
v -0.5 17 0.5
v 0.5 17 0.5
v -0.5 17 -0.5
v 0.5 17 -0.5

# faces
f 3/2/1 2/2/1 1/2/1
f 4/2/1 2/2/1 3/2/1
f 9/2/1 6/2/1 5/2/1
f 10/2/1 6/2/1 9/2/1
f 11/2/1 8/2/1 7/2/1
f 12/2/1 8/2/1 11/2/1
f 13/2/1 11/2/1 10/2/1
f 14/2/1 11/2/1 13/2/1
f 17/1/1 16/1/1 15/1/1
f 18/1/1 16/1/1 17/1/1
f 19/3/1 18/3/1 17/3/1
f 20/3/1 18/3/1 19/3/1
f 25/11/1 22/11/1 21/11/1
f 26/11/1 22/11/1 25/11/1
f 29/11/1 26/11/1 25/11/1
f 30/11/1 26/11/1 29/11/1
f 31/2/1 24/2/1 23/2/1
f 32/2/1 24/2/1 31/2/1
f 35/2/1 28/2/1 27/2/1
f 36/2/1 28/2/1 35/2/1
f 37/2/1 33/2/1 32/2/1
f 38/2/1 33/2/1 37/2/1
f 39/2/1 35/2/1 34/2/1
f 40/2/1 35/2/1 39/2/1
f 43/1/1 42/1/1 41/1/1
f 44/1/1 42/1/1 43/1/1
f 46/10/1 44/10/1 43/10/1
f 47/10/1 44/10/1 46/10/1
f 49/3/1 46/3/1 45/3/1
f 50/3/1 48/3/1 47/3/1
f 51/3/1 49/3/1 45/3/1
f 52/3/1 48/3/1 50/3/1
f 54/3/1 51/3/1 45/3/1
f 54/3/1 52/3/1 51/3/1
f 55/3/1 48/3/1 52/3/1
f 55/3/1 52/3/1 54/3/1
f 56/1/1 54/1/1 53/1/1
f 56/1/1 55/1/1 54/1/1
f 57/1/1 55/1/1 56/1/1
f 62/2/1 59/2/1 58/2/1
f 63/2/1 59/2/1 62/2/1
f 66/2/1 61/2/1 60/2/1
f 67/2/1 61/2/1 66/2/1
f 68/2/1 64/2/1 63/2/1
f 69/2/1 64/2/1 68/2/1
f 70/2/1 66/2/1 65/2/1
f 71/2/1 66/2/1 70/2/1
f 74/11/1 73/11/1 72/11/1
f 75/11/1 74/11/1 72/11/1
f 76/11/1 74/11/1 75/11/1
f 79/2/1 78/2/1 77/2/1
f 80/2/1 78/2/1 79/2/1
f 83/2/1 82/2/1 81/2/1
f 84/2/1 82/2/1 83/2/1
f 87/11/1 86/11/1 85/11/1
f 88/11/1 86/11/1 87/11/1
f 91/1/1 90/1/1 89/1/1
f 92/1/1 90/1/1 91/1/1
f 93/10/1 92/10/1 91/10/1
f 94/10/1 92/10/1 93/10/1
f 99/2/1 96/2/1 95/2/1
f 100/2/1 96/2/1 99/2/1
f 101/2/1 98/2/1 97/2/1
f 102/2/1 98/2/1 101/2/1
f 107/2/1 104/2/1 103/2/1
f 108/2/1 104/2/1 107/2/1
f 109/2/1 106/2/1 105/2/1
f 110/2/1 106/2/1 109/2/1
f 113/2/1 112/2/1 111/2/1
f 114/2/1 112/2/1 113/2/1
f 115/2/2 116/2/2 117/2/2
f 117/2/2 116/2/2 118/2/2
f 119/2/2 120/2/2 123/2/2
f 123/2/2 120/2/2 124/2/2
f 121/2/2 122/2/2 125/2/2
f 125/2/2 122/2/2 126/2/2
f 127/2/2 128/2/2 131/2/2
f 131/2/2 128/2/2 132/2/2
f 129/2/2 130/2/2 133/2/2
f 133/2/2 130/2/2 134/2/2
f 135/1/2 136/1/2 137/1/2
f 137/1/2 136/1/2 138/1/2
f 137/10/2 138/10/2 139/10/2
f 139/10/2 138/10/2 140/10/2
f 141/11/2 142/11/2 143/11/2
f 143/11/2 142/11/2 144/11/2
f 145/2/2 146/2/2 147/2/2
f 147/2/2 146/2/2 148/2/2
f 149/11/2 150/11/2 151/11/2
f 149/11/2 151/11/2 152/11/2
f 152/11/2 151/11/2 153/11/2
f 154/2/2 155/2/2 156/2/2
f 156/2/2 155/2/2 157/2/2
f 158/1/2 159/1/2 160/1/2
f 160/1/2 159/1/2 161/1/2
f 160/10/2 161/10/2 163/10/2
f 163/10/2 161/10/2 164/10/2
f 162/3/2 163/3/2 166/3/2
f 164/3/2 165/3/2 167/3/2
f 162/3/2 166/3/2 168/3/2
f 167/3/2 165/3/2 169/3/2
f 162/3/2 168/3/2 171/3/2
f 168/3/2 169/3/2 171/3/2
f 169/3/2 165/3/2 172/3/2
f 171/3/2 169/3/2 172/3/2
f 170/1/2 171/1/2 173/1/2
f 171/1/2 172/1/2 173/1/2
f 173/1/2 172/1/2 174/1/2
f 175/2/2 176/2/2 179/2/2
f 179/2/2 176/2/2 180/2/2
f 177/2/2 178/2/2 183/2/2
f 183/2/2 178/2/2 184/2/2
f 180/2/2 181/2/2 185/2/2
f 185/2/2 181/2/2 186/2/2
f 182/2/2 183/2/2 187/2/2
f 187/2/2 183/2/2 188/2/2
f 189/1/2 190/1/2 191/1/2
f 191/1/2 190/1/2 192/1/2
f 191/3/2 192/3/2 193/3/2
f 193/3/2 192/3/2 194/3/2
f 195/11/2 196/11/2 199/11/2
f 199/11/2 196/11/2 200/11/2
f 199/11/2 200/11/2 203/11/2
f 203/11/2 200/11/2 204/11/2
f 197/2/2 198/2/2 205/2/2
f 205/2/2 198/2/2 206/2/2
f 201/2/2 202/2/2 209/2/2
f 209/2/2 202/2/2 210/2/2
f 206/2/2 207/2/2 211/2/2
f 211/2/2 207/2/2 212/2/2
f 208/2/2 209/2/2 213/2/2
f 213/2/2 209/2/2 214/2/2
f 215/2/2 216/2/2 219/2/2
f 219/2/2 216/2/2 220/2/2
f 217/2/2 218/2/2 221/2/2
f 221/2/2 218/2/2 222/2/2
f 220/2/2 221/2/2 223/2/2
f 223/2/2 221/2/2 224/2/2
f 225/2/2 226/2/2 227/2/2
f 227/2/2 226/2/2 228/2/2
f 231/2/3 230/2/3 229/2/3
f 232/2/3 230/2/3 231/2/3
f 235/2/3 234/2/3 233/2/3
f 236/2/3 234/2/3 235/2/3
f 239/2/3 237/2/3 236/2/3
f 240/2/3 237/2/3 239/2/3
f 241/2/3 239/2/3 238/2/3
f 242/2/3 239/2/3 241/2/3
f 245/2/3 244/2/3 243/2/3
f 246/2/3 244/2/3 245/2/3
f 248/2/3 247/2/3 246/2/3
f 249/2/3 247/2/3 248/2/3
f 252/11/3 251/11/3 250/11/3
f 253/11/3 251/11/3 252/11/3
f 255/11/3 251/11/3 253/11/3
f 256/11/3 255/11/3 254/11/3
f 257/11/3 251/11/3 255/11/3
f 257/11/3 255/11/3 256/11/3
f 261/2/3 259/2/3 258/2/3
f 262/2/3 259/2/3 261/2/3
f 263/2/3 261/2/3 260/2/3
f 264/2/3 261/2/3 263/2/3
f 267/2/3 266/2/3 265/2/3
f 268/2/3 266/2/3 267/2/3
f 273/2/3 269/2/3 268/2/3
f 274/2/3 269/2/3 273/2/3
f 276/11/3 272/11/3 271/11/3
f 276/11/3 271/11/3 270/11/3
f 277/11/3 272/11/3 276/11/3
f 278/1/3 276/1/3 275/1/3
f 278/1/3 277/1/3 276/1/3
f 279/1/3 277/1/3 278/1/3
f 280/1/3 277/1/3 279/1/3
f 281/1/3 277/1/3 280/1/3
f 282/1/3 280/1/3 279/1/3
f 282/4/3 281/4/3 280/4/3
f 283/1/3 277/1/3 281/1/3
f 283/4/3 281/4/3 282/4/3
f 284/1/3 282/1/3 279/1/3
f 284/1/3 283/1/3 282/1/3
f 285/1/3 277/1/3 283/1/3
f 285/1/3 283/1/3 284/1/3
f 287/1/3 284/1/3 279/1/3
f 288/4/3 285/4/3 284/4/3
f 288/1/3 284/1/3 287/1/3
f 289/1/3 277/1/3 285/1/3
f 289/4/3 285/4/3 288/4/3
f 290/1/3 288/1/3 287/1/3
f 290/1/3 287/1/3 286/1/3
f 290/1/3 289/1/3 288/1/3
f 291/1/3 289/1/3 290/1/3
f 292/11/3 272/11/3 277/11/3
f 292/1/3 289/1/3 291/1/3
f 292/1/3 277/1/3 289/1/3
f 293/11/3 292/11/3 291/11/3
f 294/11/3 272/11/3 292/11/3
f 294/11/3 292/11/3 293/11/3
f 295/11/3 272/11/3 294/11/3
f 299/2/3 297/2/3 296/2/3
f 300/2/3 297/2/3 299/2/3
f 301/2/3 299/2/3 298/2/3
f 302/2/3 299/2/3 301/2/3
f 305/3/3 304/3/3 303/3/3
f 308/3/3 305/3/3 303/3/3
f 309/3/3 305/3/3 308/3/3
f 310/4/3 309/4/3 308/4/3
f 311/3/3 305/3/3 309/3/3
f 311/4/3 309/4/3 310/4/3
f 312/3/3 311/3/3 310/3/3
f 312/3/3 305/3/3 311/3/3
f 313/2/3 307/2/3 306/2/3
f 314/2/3 307/2/3 313/2/3
f 315/3/3 312/3/3 310/3/3
f 316/3/3 312/3/3 315/3/3
f 322/1/3 318/1/3 317/1/3
f 323/3/3 319/3/3 318/3/3
f 323/1/3 318/1/3 322/1/3
f 324/3/3 319/3/3 323/3/3
f 325/1/3 321/1/3 320/1/3
f 326/10/3 322/10/3 321/10/3
f 326/1/3 321/1/3 325/1/3
f 327/10/3 322/10/3 326/10/3
f 330/2/3 329/2/3 328/2/3
f 331/2/3 329/2/3 330/2/3
f 335/1/3 333/1/3 332/1/3
f 336/10/3 334/10/3 333/10/3
f 336/1/3 333/1/3 335/1/3
f 337/10/3 334/10/3 336/10/3
f 340/1/3 338/1/3 337/1/3
f 341/3/3 339/3/3 338/3/3
f 341/1/3 338/1/3 340/1/3
f 342/3/3 339/3/3 341/3/3
f 345/2/3 344/2/3 343/2/3
f 346/2/3 344/2/3 345/2/3
f 349/2/3 348/2/3 347/2/3
f 350/2/3 348/2/3 349/2/3
f 353/2/3 352/2/3 351/2/3
f 354/2/3 352/2/3 353/2/3
f 357/2/3 356/2/3 355/2/3
f 358/2/3 356/2/3 357/2/3
f 361/2/3 360/2/3 359/2/3
f 362/2/3 360/2/3 361/2/3
f 363/2/4 364/2/4 365/2/4
f 365/2/4 364/2/4 366/2/4
f 367/2/4 368/2/4 369/2/4
f 369/2/4 368/2/4 370/2/4
f 371/2/4 372/2/4 373/2/4
f 373/2/4 372/2/4 374/2/4
f 375/2/4 376/2/4 377/2/4
f 377/2/4 376/2/4 378/2/4
f 379/11/4 380/11/4 381/11/4
f 381/11/4 380/11/4 382/11/4
f 383/11/4 384/11/4 385/11/4
f 385/11/4 384/11/4 386/11/4
f 387/2/4 388/2/4 389/2/4
f 389/2/4 388/2/4 390/2/4
f 391/1/4 392/1/4 396/1/4
f 392/3/4 393/3/4 397/3/4
f 396/1/4 392/1/4 397/1/4
f 397/3/4 393/3/4 398/3/4
f 394/1/4 395/1/4 399/1/4
f 395/10/4 396/10/4 400/10/4
f 399/1/4 395/1/4 400/1/4
f 400/10/4 396/10/4 401/10/4
f 402/2/4 403/2/4 404/2/4
f 404/2/4 403/2/4 405/2/4
f 406/1/4 407/1/4 409/1/4
f 407/10/4 408/10/4 410/10/4
f 409/1/4 407/1/4 410/1/4
f 410/10/4 408/10/4 411/10/4
f 411/1/4 412/1/4 414/1/4
f 412/3/4 413/3/4 415/3/4
f 414/1/4 412/1/4 415/1/4
f 415/3/4 413/3/4 416/3/4
f 420/2/4 421/2/4 422/2/4
f 422/2/4 421/2/4 423/2/4
f 417/3/4 418/3/4 424/3/4
f 418/1/4 419/1/4 425/1/4
f 424/3/4 418/3/4 425/3/4
f 425/1/4 419/1/4 426/1/4
f 427/2/4 428/2/4 429/2/4
f 429/2/4 428/2/4 430/2/4
f 430/2/4 431/2/4 435/2/4
f 435/2/4 431/2/4 436/2/4
f 433/11/4 434/11/4 437/11/4
f 432/11/4 433/11/4 437/11/4
f 437/11/4 434/11/4 438/11/4
f 438/11/4 434/11/4 439/11/4
f 440/2/4 441/2/4 443/2/4
f 443/2/4 441/2/4 444/2/4
f 442/2/4 443/2/4 445/2/4
f 445/2/4 443/2/4 446/2/4
f 447/2/4 448/2/4 449/2/4
f 449/2/4 448/2/4 450/2/4
f 450/2/4 451/2/4 452/2/4
f 452/2/4 451/2/4 453/2/4
f 454/2/4 455/2/4 457/2/4
f 457/2/4 455/2/4 458/2/4
f 456/2/4 457/2/4 459/2/4
f 459/2/4 457/2/4 460/2/4
f 461/2/4 462/2/4 463/2/4
f 463/2/4 462/2/4 464/2/4
f 464/2/4 465/2/4 467/2/4
f 467/2/4 465/2/4 468/2/4
f 466/2/4 467/2/4 469/2/4
f 469/2/4 467/2/4 470/2/4
f 471/2/4 472/2/4 473/2/4
f 473/2/4 472/2/4 474/2/4
f 479/1/5 476/1/5 475/1/5
f 480/1/5 476/1/5 479/1/5
f 481/1/5 478/1/5 477/1/5
f 482/1/5 478/1/5 481/1/5
f 488/3/5 484/3/5 483/3/5
f 489/3/5 484/3/5 488/3/5
f 490/4/5 485/4/5 484/4/5
f 490/3/5 484/3/5 489/3/5
f 491/3/5 486/3/5 485/3/5
f 491/4/5 485/4/5 490/4/5
f 492/3/5 486/3/5 491/3/5
f 493/3/5 486/3/5 492/3/5
f 495/1/5 488/1/5 487/1/5
f 496/1/5 488/1/5 495/1/5
f 497/4/5 490/4/5 489/4/5
f 497/4/5 492/4/5 491/4/5
f 497/4/5 491/4/5 490/4/5
f 498/4/5 492/4/5 497/4/5
f 499/1/5 494/1/5 493/1/5
f 500/1/5 494/1/5 499/1/5
f 501/3/5 498/3/5 497/3/5
f 501/3/5 499/3/5 498/3/5
f 501/3/5 497/3/5 496/3/5
f 502/3/5 499/3/5 501/3/5
f 507/11/5 504/11/5 503/11/5
f 508/11/5 504/11/5 507/11/5
f 509/11/5 506/11/5 505/11/5
f 510/11/5 506/11/5 509/11/5
f 515/11/5 512/11/5 511/11/5
f 516/11/5 512/11/5 515/11/5
f 519/1/5 514/1/5 513/1/5
f 520/8/5 515/8/5 514/8/5
f 520/1/5 514/1/5 519/1/5
f 520/8/5 516/8/5 515/8/5
f 520/8/5 517/8/5 516/8/5
f 521/1/5 518/1/5 517/1/5
f 521/8/5 517/8/5 520/8/5
f 522/1/5 518/1/5 521/1/5
f 527/11/5 524/11/5 523/11/5
f 528/11/5 526/11/5 525/11/5
f 529/11/5 527/11/5 523/11/5
f 529/11/5 528/11/5 527/11/5
f 530/11/5 526/11/5 528/11/5
f 530/11/5 528/11/5 529/11/5
f 534/2/5 532/2/5 531/2/5
f 535/2/5 532/2/5 534/2/5
f 538/2/5 534/2/5 533/2/5
f 539/2/5 534/2/5 538/2/5
f 540/2/5 536/2/5 535/2/5
f 541/2/5 536/2/5 540/2/5
f 544/2/5 538/2/5 537/2/5
f 545/2/5 538/2/5 544/2/5
f 546/2/5 542/2/5 541/2/5
f 547/2/5 542/2/5 546/2/5
f 549/2/5 544/2/5 543/2/5
f 550/2/5 544/2/5 549/2/5
f 553/2/5 548/2/5 547/2/5
f 554/2/5 548/2/5 553/2/5
f 555/2/5 551/2/5 550/2/5
f 556/2/5 551/2/5 555/2/5
f 559/2/5 553/2/5 552/2/5
f 560/2/5 553/2/5 559/2/5
f 561/2/5 557/2/5 556/2/5
f 562/2/5 557/2/5 561/2/5
f 563/2/5 559/2/5 558/2/5
f 564/2/5 559/2/5 563/2/5
f 565/2/5 563/2/5 562/2/5
f 566/2/5 563/2/5 565/2/5
f 570/2/5 568/2/5 567/2/5
f 571/2/5 568/2/5 570/2/5
f 574/2/5 570/2/5 569/2/5
f 574/2/5 572/2/5 571/2/5
f 574/2/5 571/2/5 570/2/5
f 575/2/5 572/2/5 574/2/5
f 577/2/5 574/2/5 573/2/5
f 578/2/5 574/2/5 577/2/5
f 579/2/5 576/2/5 575/2/5
f 580/2/5 576/2/5 579/2/5
f 581/2/5 579/2/5 578/2/5
f 582/2/5 579/2/5 581/2/5
f 583/2/5 579/2/5 582/2/5
f 584/2/5 579/2/5 583/2/5
f 585/2/5 583/2/5 582/2/5
f 586/2/5 583/2/5 585/2/5
f 587/3/6 588/3/6 591/3/6
f 591/3/6 588/3/6 592/3/6
f 589/3/6 590/3/6 593/3/6
f 593/3/6 590/3/6 594/3/6
f 595/11/6 596/11/6 597/11/6
f 597/11/6 596/11/6 598/11/6
f 599/2/6 600/2/6 602/2/6
f 602/2/6 600/2/6 603/2/6
f 601/2/6 602/2/6 606/2/6
f 606/2/6 602/2/6 607/2/6
f 603/2/6 604/2/6 608/2/6
f 608/2/6 604/2/6 609/2/6
f 605/2/6 606/2/6 612/2/6
f 612/2/6 606/2/6 613/2/6
f 609/2/6 610/2/6 614/2/6
f 614/2/6 610/2/6 615/2/6
f 611/2/6 612/2/6 617/2/6
f 617/2/6 612/2/6 618/2/6
f 615/2/6 616/2/6 621/2/6
f 621/2/6 616/2/6 622/2/6
f 618/2/6 619/2/6 623/2/6
f 623/2/6 619/2/6 624/2/6
f 620/2/6 621/2/6 627/2/6
f 627/2/6 621/2/6 628/2/6
f 624/2/6 625/2/6 629/2/6
f 629/2/6 625/2/6 630/2/6
f 626/2/6 627/2/6 631/2/6
f 631/2/6 627/2/6 632/2/6
f 630/2/6 631/2/6 633/2/6
f 633/2/6 631/2/6 634/2/6
f 635/2/6 636/2/6 638/2/6
f 638/2/6 636/2/6 639/2/6
f 637/2/6 638/2/6 642/2/6
f 639/2/6 640/2/6 642/2/6
f 638/2/6 639/2/6 642/2/6
f 642/2/6 640/2/6 643/2/6
f 641/2/6 642/2/6 645/2/6
f 643/2/6 644/2/6 645/2/6
f 642/2/6 643/2/6 645/2/6
f 645/2/6 644/2/6 646/2/6
f 641/2/6 645/2/6 647/2/6
f 646/2/6 644/2/6 648/2/6
f 641/2/6 647/2/6 649/2/6
f 647/2/6 648/2/6 649/2/6
f 649/2/6 648/2/6 650/2/6
f 648/2/6 644/2/6 651/2/6
f 650/2/6 648/2/6 651/2/6
f 651/2/6 644/2/6 652/2/6
f 650/2/6 651/2/6 653/2/6
f 653/2/6 651/2/6 654/2/6
f 654/2/6 651/2/6 655/2/6
f 655/2/6 651/2/6 656/2/6
f 654/2/6 655/2/6 657/2/6
f 657/2/6 655/2/6 658/2/6
f 659/2/6 660/2/6 661/2/6
f 661/2/6 660/2/6 662/2/6
f 659/2/6 661/2/6 663/2/6
f 662/2/6 660/2/6 664/2/6
f 659/2/6 663/2/6 665/2/6
f 663/2/6 664/2/6 665/2/6
f 664/2/6 660/2/6 666/2/6
f 665/2/6 664/2/6 666/2/6
f 667/2/6 668/2/6 669/2/6
f 669/2/6 668/2/6 670/2/6
