# MagicaVoxel @ ephtracy

# material
mtllib Verkäufer.mtl
usemtl palette

# normals
vn -1 0 0
vn 1 0 0
vn 0 0 1
vn 0 0 -1
vn 0 -1 0
vn 0 1 0

# texcoords
vt 0.720703 0.5
vt 0.794922 0.5
vt 0.818359 0.5
vt 0.919922 0.5
vt 0.923828 0.5
vt 0.943359 0.5
vt 0.970703 0.5
vt 0.986328 0.5
vt 0.990234 0.5

# verts
v -3.5 2 -0
v -3.5 2 -1
v -3.5 3 -0
v -3.5 3 -1
v -3.5 4 -0
v -3.5 4 -1
v -3.5 6 -0
v -3.5 6 -1
v -3.5 8 1
v -3.5 8 -3
v -3.5 10 1
v -3.5 10 -3
v -2.5 0 -0
v -2.5 0 -1
v -2.5 1 -0
v -2.5 1 -1
v -2.5 2 1
v -2.5 2 -0
v -2.5 2 -1
v -2.5 2 -2
v -2.5 3 -0
v -2.5 3 -1
v -2.5 4 -0
v -2.5 4 -1
v -2.5 6 1
v -2.5 6 -0
v -2.5 6 -1
v -2.5 6 -2
v -2.5 7 2
v -2.5 7 1
v -2.5 7 -2
v -2.5 8 1
v -2.5 8 -2
v -2.5 10 1
v -2.5 10 -2
v -2.5 11 2
v -2.5 11 -2
v -1.5 5 3
v -1.5 5 2
v -1.5 7 2
v -1.5 8 3
v -1.5 8 2
v 0.5 5 3
v 0.5 5 2
v 0.5 7 3
v 0.5 7 2
v 1.5 0 -0
v 1.5 0 -1
v 1.5 1 -0
v 1.5 1 -1
v 1.5 2 -0
v 1.5 2 -1
v -1.5 0 -0
v -1.5 0 -1
v -1.5 1 -0
v -1.5 1 -1
v -1.5 2 -0
v -1.5 2 -1
v -0.5 5 3
v -0.5 5 2
v -0.5 7 3
v -0.5 7 2
v 1.5 5 3
v 1.5 5 2
v 1.5 7 2
v 1.5 8 3
v 1.5 8 2
v 2.5 0 -0
v 2.5 0 -1
v 2.5 1 -0
v 2.5 1 -1
v 2.5 2 1
v 2.5 2 -0
v 2.5 2 -1
v 2.5 2 -2
v 2.5 3 1
v 2.5 3 -0
v 2.5 3 -1
v 2.5 4 -0
v 2.5 4 -1
v 2.5 6 1
v 2.5 6 -0
v 2.5 6 -1
v 2.5 6 -2
v 2.5 7 2
v 2.5 7 1
v 2.5 7 -2
v 2.5 8 1
v 2.5 8 -2
v 2.5 10 1
v 2.5 10 -2
v 2.5 11 2
v 2.5 11 -2
v 3.5 2 -0
v 3.5 2 -1
v 3.5 3 -0
v 3.5 3 -1
v 3.5 4 -0
v 3.5 4 -1
v 3.5 6 -0
v 3.5 6 -1
v 3.5 8 1
v 3.5 8 -3
v 3.5 10 1
v 3.5 10 -3
v -1.5 5 3
v -1.5 8 3
v -0.5 5 3
v -0.5 7 3
v 0.5 5 3
v 0.5 7 3
v 1.5 5 3
v 1.5 8 3
v -2.5 7 2
v -2.5 11 2
v -1.5 7 2
v -1.5 8 2
v -1.5 9 2
v -1.5 10 2
v -0.5 9 2
v -0.5 10 2
v 0.5 9 2
v 0.5 10 2
v 1.5 7 2
v 1.5 8 2
v 1.5 9 2
v 1.5 10 2
v 2.5 7 2
v 2.5 11 2
v -3.5 8 1
v -3.5 10 1
v -2.5 2 1
v -2.5 6 1
v -2.5 7 1
v -2.5 8 1
v -2.5 10 1
v -1.5 5 1
v -1.5 6 1
v -1.5 7 1
v -0.5 4 1
v -0.5 5 1
v -0.5 6 1
v 0.5 3 1
v 0.5 4 1
v 0.5 5 1
v 0.5 6 1
v 1.5 2 1
v 1.5 3 1
v 1.5 4 1
v 1.5 5 1
v 1.5 6 1
v 1.5 7 1
v 2.5 2 1
v 2.5 3 1
v 2.5 6 1
v 2.5 7 1
v 2.5 8 1
v 2.5 10 1
v 3.5 8 1
v 3.5 10 1
v -3.5 2 -0
v -3.5 3 -0
v -3.5 4 -0
v -3.5 6 -0
v -2.5 0 -0
v -2.5 1 -0
v -2.5 2 -0
v -2.5 3 -0
v -2.5 4 -0
v -2.5 6 -0
v -1.5 0 -0
v -1.5 1 -0
v -1.5 2 -0
v 1.5 0 -0
v 1.5 1 -0
v 1.5 2 -0
v 2.5 0 -0
v 2.5 1 -0
v 2.5 2 -0
v 2.5 3 -0
v 2.5 4 -0
v 2.5 6 -0
v 3.5 2 -0
v 3.5 3 -0
v 3.5 4 -0
v 3.5 6 -0
v -1.5 5 2
v -1.5 7 2
v -0.5 5 2
v -0.5 7 2
v 0.5 5 2
v 0.5 7 2
v 1.5 5 2
v 1.5 7 2
v -3.5 2 -1
v -3.5 3 -1
v -3.5 4 -1
v -3.5 6 -1
v -2.5 0 -1
v -2.5 1 -1
v -2.5 2 -1
v -2.5 3 -1
v -2.5 4 -1
v -2.5 6 -1
v -1.5 0 -1
v -1.5 1 -1
v -1.5 2 -1
v 1.5 0 -1
v 1.5 1 -1
v 1.5 2 -1
v 2.5 0 -1
v 2.5 1 -1
v 2.5 2 -1
v 2.5 3 -1
v 2.5 4 -1
v 2.5 6 -1
v 3.5 2 -1
v 3.5 3 -1
v 3.5 4 -1
v 3.5 6 -1
v -2.5 2 -2
v -2.5 6 -2
v -2.5 7 -2
v -2.5 8 -2
v -2.5 10 -2
v -2.5 11 -2
v 2.5 2 -2
v 2.5 6 -2
v 2.5 7 -2
v 2.5 8 -2
v 2.5 10 -2
v 2.5 11 -2
v -3.5 8 -3
v -3.5 10 -3
v 3.5 8 -3
v 3.5 10 -3
v -2.5 0 -0
v -1.5 0 -0
v 1.5 0 -0
v 2.5 0 -0
v -2.5 0 -1
v -1.5 0 -1
v 1.5 0 -1
v 2.5 0 -1
v -2.5 2 1
v 1.5 2 1
v 2.5 2 1
v -3.5 2 -0
v -2.5 2 -0
v -1.5 2 -0
v 1.5 2 -0
v 2.5 2 -0
v 3.5 2 -0
v -3.5 2 -1
v -2.5 2 -1
v -1.5 2 -1
v 1.5 2 -1
v 2.5 2 -1
v 3.5 2 -1
v -2.5 2 -2
v 2.5 2 -2
v -1.5 5 3
v -0.5 5 3
v 0.5 5 3
v 1.5 5 3
v -1.5 5 2
v -0.5 5 2
v 0.5 5 2
v 1.5 5 2
v -0.5 7 3
v 0.5 7 3
v -2.5 7 2
v -1.5 7 2
v -0.5 7 2
v 0.5 7 2
v 1.5 7 2
v 2.5 7 2
v -2.5 7 1
v -1.5 7 1
v 1.5 7 1
v 2.5 7 1
v -3.5 8 1
v -2.5 8 1
v 2.5 8 1
v 3.5 8 1
v -2.5 8 -2
v 2.5 8 -2
v -3.5 8 -3
v 3.5 8 -3
v -3.5 6 -0
v -2.5 6 -0
v 2.5 6 -0
v 3.5 6 -0
v -3.5 6 -1
v -2.5 6 -1
v 2.5 6 -1
v 3.5 6 -1
v -1.5 8 3
v 1.5 8 3
v -1.5 8 2
v 1.5 8 2
v -3.5 10 1
v -2.5 10 1
v 2.5 10 1
v 3.5 10 1
v -2.5 10 -2
v 2.5 10 -2
v -3.5 10 -3
v 3.5 10 -3
v -2.5 11 2
v 2.5 11 2
v -2.5 11 -2
v 2.5 11 -2

# faces
f 3/1/1 2/1/1 1/1/1
f 4/1/1 2/1/1 3/1/1
f 5/6/1 4/6/1 3/6/1
f 6/6/1 4/6/1 5/6/1
f 7/4/1 6/4/1 5/4/1
f 8/4/1 6/4/1 7/4/1
f 11/7/1 10/7/1 9/7/1
f 12/7/1 10/7/1 11/7/1
f 15/1/1 14/1/1 13/1/1
f 16/1/1 14/1/1 15/1/1
f 18/9/1 16/9/1 15/9/1
f 19/9/1 16/9/1 18/9/1
f 21/4/1 18/4/1 17/4/1
f 22/4/1 20/4/1 19/4/1
f 23/4/1 21/4/1 17/4/1
f 24/4/1 20/4/1 22/4/1
f 25/4/1 23/4/1 17/4/1
f 26/4/1 23/4/1 25/4/1
f 27/4/1 20/4/1 24/4/1
f 28/4/1 20/4/1 27/4/1
f 30/6/1 26/6/1 25/6/1
f 30/6/1 27/6/1 26/6/1
f 30/6/1 28/6/1 27/6/1
f 31/6/1 28/6/1 30/6/1
f 32/1/1 30/1/1 29/1/1
f 32/1/1 31/1/1 30/1/1
f 33/1/1 31/1/1 32/1/1
f 34/1/1 32/1/1 29/1/1
f 36/1/1 34/1/1 29/1/1
f 36/1/1 35/1/1 34/1/1
f 37/1/1 35/1/1 36/1/1
f 40/7/1 39/7/1 38/7/1
f 41/7/1 40/7/1 38/7/1
f 42/7/1 40/7/1 41/7/1
f 45/7/1 44/7/1 43/7/1
f 46/7/1 44/7/1 45/7/1
f 49/1/1 48/1/1 47/1/1
f 50/1/1 48/1/1 49/1/1
f 51/9/1 50/9/1 49/9/1
f 52/9/1 50/9/1 51/9/1
f 53/1/2 54/1/2 55/1/2
f 55/1/2 54/1/2 56/1/2
f 55/9/2 56/9/2 57/9/2
f 57/9/2 56/9/2 58/9/2
f 59/7/2 60/7/2 61/7/2
f 61/7/2 60/7/2 62/7/2
f 63/7/2 64/7/2 65/7/2
f 63/7/2 65/7/2 66/7/2
f 66/7/2 65/7/2 67/7/2
f 68/1/2 69/1/2 70/1/2
f 70/1/2 69/1/2 71/1/2
f 70/9/2 71/9/2 73/9/2
f 73/9/2 71/9/2 74/9/2
f 72/6/2 73/6/2 76/6/2
f 76/6/2 73/6/2 77/6/2
f 74/4/2 75/4/2 78/4/2
f 76/4/2 77/4/2 79/4/2
f 78/4/2 75/4/2 80/4/2
f 76/4/2 79/4/2 81/4/2
f 81/4/2 79/4/2 82/4/2
f 80/4/2 75/4/2 83/4/2
f 83/4/2 75/4/2 84/4/2
f 81/6/2 82/6/2 86/6/2
f 82/6/2 83/6/2 86/6/2
f 83/6/2 84/6/2 86/6/2
f 86/6/2 84/6/2 87/6/2
f 85/1/2 86/1/2 88/1/2
f 86/1/2 87/1/2 88/1/2
f 88/1/2 87/1/2 89/1/2
f 85/1/2 88/1/2 90/1/2
f 85/1/2 90/1/2 92/1/2
f 90/1/2 91/1/2 92/1/2
f 92/1/2 91/1/2 93/1/2
f 94/1/2 95/1/2 96/1/2
f 96/1/2 95/1/2 97/1/2
f 96/6/2 97/6/2 98/6/2
f 98/6/2 97/6/2 99/6/2
f 98/4/2 99/4/2 100/4/2
f 100/4/2 99/4/2 101/4/2
f 102/7/2 103/7/2 104/7/2
f 104/7/2 103/7/2 105/7/2
f 108/7/3 107/7/3 106/7/3
f 109/7/3 107/7/3 108/7/3
f 111/7/3 107/7/3 109/7/3
f 112/7/3 111/7/3 110/7/3
f 113/7/3 107/7/3 111/7/3
f 113/7/3 111/7/3 112/7/3
f 116/1/3 115/1/3 114/1/3
f 117/1/3 115/1/3 116/1/3
f 118/1/3 115/1/3 117/1/3
f 119/1/3 115/1/3 118/1/3
f 120/1/3 118/1/3 117/1/3
f 120/2/3 119/2/3 118/2/3
f 121/1/3 115/1/3 119/1/3
f 121/2/3 119/2/3 120/2/3
f 122/1/3 120/1/3 117/1/3
f 122/1/3 121/1/3 120/1/3
f 123/1/3 115/1/3 121/1/3
f 123/1/3 121/1/3 122/1/3
f 125/1/3 122/1/3 117/1/3
f 126/2/3 123/2/3 122/2/3
f 126/1/3 122/1/3 125/1/3
f 127/1/3 115/1/3 123/1/3
f 127/2/3 123/2/3 126/2/3
f 128/1/3 126/1/3 125/1/3
f 128/1/3 125/1/3 124/1/3
f 128/1/3 127/1/3 126/1/3
f 129/1/3 115/1/3 127/1/3
f 129/1/3 127/1/3 128/1/3
f 135/7/3 131/7/3 130/7/3
f 136/7/3 131/7/3 135/7/3
f 137/4/3 133/4/3 132/4/3
f 138/6/3 134/6/3 133/6/3
f 138/4/3 133/4/3 137/4/3
f 139/6/3 134/6/3 138/6/3
f 140/4/3 137/4/3 132/4/3
f 141/6/3 138/6/3 137/6/3
f 141/4/3 137/4/3 140/4/3
f 142/1/3 139/1/3 138/1/3
f 142/6/3 138/6/3 141/6/3
f 143/4/3 140/4/3 132/4/3
f 144/6/3 141/6/3 140/6/3
f 144/4/3 140/4/3 143/4/3
f 145/1/3 142/1/3 141/1/3
f 145/6/3 141/6/3 144/6/3
f 146/1/3 139/1/3 142/1/3
f 146/1/3 142/1/3 145/1/3
f 147/4/3 143/4/3 132/4/3
f 148/6/3 144/6/3 143/6/3
f 148/4/3 143/4/3 147/4/3
f 149/4/3 145/4/3 144/4/3
f 149/6/3 144/6/3 148/6/3
f 150/6/3 146/6/3 145/6/3
f 150/4/3 145/4/3 149/4/3
f 151/1/3 139/1/3 146/1/3
f 151/6/3 146/6/3 150/6/3
f 152/1/3 139/1/3 151/1/3
f 153/6/3 148/6/3 147/6/3
f 154/4/3 150/4/3 149/4/3
f 154/6/3 148/6/3 153/6/3
f 154/4/3 149/4/3 148/4/3
f 154/4/3 151/4/3 150/4/3
f 155/6/3 152/6/3 151/6/3
f 155/4/3 151/4/3 154/4/3
f 156/6/3 152/6/3 155/6/3
f 159/7/3 158/7/3 157/7/3
f 160/7/3 158/7/3 159/7/3
f 167/1/3 162/1/3 161/1/3
f 168/6/3 163/6/3 162/6/3
f 168/1/3 162/1/3 167/1/3
f 169/4/3 164/4/3 163/4/3
f 169/6/3 163/6/3 168/6/3
f 170/4/3 164/4/3 169/4/3
f 171/1/3 166/1/3 165/1/3
f 172/9/3 167/9/3 166/9/3
f 172/1/3 166/1/3 171/1/3
f 173/9/3 167/9/3 172/9/3
f 177/1/3 175/1/3 174/1/3
f 178/9/3 176/9/3 175/9/3
f 178/1/3 175/1/3 177/1/3
f 179/9/3 176/9/3 178/9/3
f 183/1/3 180/1/3 179/1/3
f 184/6/3 181/6/3 180/6/3
f 184/1/3 180/1/3 183/1/3
f 185/4/3 182/4/3 181/4/3
f 185/6/3 181/6/3 184/6/3
f 186/4/3 182/4/3 185/4/3
f 187/7/4 188/7/4 189/7/4
f 189/7/4 188/7/4 190/7/4
f 191/7/4 192/7/4 193/7/4
f 193/7/4 192/7/4 194/7/4
f 195/1/4 196/1/4 201/1/4
f 196/6/4 197/6/4 202/6/4
f 201/1/4 196/1/4 202/1/4
f 197/4/4 198/4/4 203/4/4
f 202/6/4 197/6/4 203/6/4
f 203/4/4 198/4/4 204/4/4
f 199/1/4 200/1/4 205/1/4
f 200/9/4 201/9/4 206/9/4
f 205/1/4 200/1/4 206/1/4
f 206/9/4 201/9/4 207/9/4
f 208/1/4 209/1/4 211/1/4
f 209/9/4 210/9/4 212/9/4
f 211/1/4 209/1/4 212/1/4
f 212/9/4 210/9/4 213/9/4
f 213/1/4 214/1/4 217/1/4
f 214/6/4 215/6/4 218/6/4
f 217/1/4 214/1/4 218/1/4
f 215/4/4 216/4/4 219/4/4
f 218/6/4 215/6/4 219/6/4
f 219/4/4 216/4/4 220/4/4
f 221/4/4 222/4/4 227/4/4
f 222/6/4 223/6/4 228/6/4
f 227/4/4 222/4/4 228/4/4
f 223/1/4 224/1/4 229/1/4
f 228/6/4 223/6/4 229/6/4
f 229/1/4 224/1/4 230/1/4
f 225/1/4 226/1/4 231/1/4
f 231/1/4 226/1/4 232/1/4
f 233/7/4 234/7/4 235/7/4
f 235/7/4 234/7/4 236/7/4
f 241/1/5 238/1/5 237/1/5
f 242/1/5 238/1/5 241/1/5
f 243/1/5 240/1/5 239/1/5
f 244/1/5 240/1/5 243/1/5
f 249/4/5 246/4/5 245/4/5
f 250/4/5 246/4/5 249/4/5
f 251/6/5 247/6/5 246/6/5
f 251/4/5 246/4/5 250/4/5
f 252/6/5 247/6/5 251/6/5
f 254/1/5 249/1/5 248/1/5
f 255/1/5 249/1/5 254/1/5
f 256/8/5 251/8/5 250/8/5
f 257/8/5 251/8/5 256/8/5
f 258/1/5 253/1/5 252/1/5
f 259/1/5 253/1/5 258/1/5
f 260/4/5 257/4/5 256/4/5
f 260/4/5 258/4/5 257/4/5
f 260/4/5 256/4/5 255/4/5
f 261/4/5 258/4/5 260/4/5
f 266/7/5 263/7/5 262/7/5
f 267/7/5 263/7/5 266/7/5
f 268/7/5 265/7/5 264/7/5
f 269/7/5 265/7/5 268/7/5
f 274/7/5 271/7/5 270/7/5
f 275/7/5 271/7/5 274/7/5
f 278/1/5 273/1/5 272/1/5
f 279/7/5 274/7/5 273/7/5
f 279/1/5 273/1/5 278/1/5
f 279/7/5 275/7/5 274/7/5
f 279/7/5 276/7/5 275/7/5
f 280/1/5 277/1/5 276/1/5
f 280/7/5 276/7/5 279/7/5
f 281/1/5 277/1/5 280/1/5
f 286/7/5 283/7/5 282/7/5
f 287/7/5 285/7/5 284/7/5
f 288/7/5 286/7/5 282/7/5
f 288/7/5 287/7/5 286/7/5
f 289/7/5 285/7/5 287/7/5
f 289/7/5 287/7/5 288/7/5
f 290/4/6 291/4/6 294/4/6
f 294/4/6 291/4/6 295/4/6
f 292/4/6 293/4/6 296/4/6
f 296/4/6 293/4/6 297/4/6
f 298/7/6 299/7/6 300/7/6
f 300/7/6 299/7/6 301/7/6
f 302/7/6 303/7/6 306/7/6
f 304/7/6 305/7/6 307/7/6
f 302/7/6 306/7/6 308/7/6
f 306/7/6 307/7/6 308/7/6
f 307/7/6 305/7/6 309/7/6
f 308/7/6 307/7/6 309/7/6
f 310/1/6 311/1/6 312/1/6
f 312/1/6 311/1/6 313/1/6
