# MagicaVoxel @ ephtracy

# material
mtllib Wache.mtl
usemtl palette

# normals
vn -1 0 0
vn 1 0 0
vn 0 0 1
vn 0 0 -1
vn 0 -1 0
vn 0 1 0

# texcoords
vt 0.658203 0.5
vt 0.791016 0.5
vt 0.802734 0.5
vt 0.908203 0.5
vt 0.939453 0.5
vt 0.970703 0.5
vt 0.986328 0.5

# verts
v -5.5 5 -0.5
v -5.5 5 -2.5
v -5.5 6 -0.5
v -5.5 6 -2.5
v -5.5 8 0.5
v -5.5 8 -3.5
v -5.5 11 1.5
v -5.5 11 0.5
v -5.5 13 1.5
v -5.5 13 -3.5
v -4.5 2 0.5
v -4.5 2 -2.5
v -4.5 4 -2.5
v -4.5 4 -3.5
v -4.5 5 -0.5
v -4.5 5 -2.5
v -4.5 5 -3.5
v -4.5 6 -0.5
v -4.5 6 -2.5
v -4.5 7 0.5
v -4.5 7 -2.5
v -4.5 8 0.5
v -4.5 8 -2.5
v -4.5 13 1.5
v -4.5 13 -3.5
v -4.5 14 1.5
v -4.5 14 -3.5
v -3.5 0 -0.5
v -3.5 0 -1.5
v -3.5 2 -0.5
v -3.5 2 -1.5
v -3.5 13 2.5
v -3.5 13 1.5
v -3.5 14 1.5
v -3.5 14 -3.5
v -3.5 15 1.5
v -3.5 15 -3.5
v -3.5 16 2.5
v -3.5 16 1.5
v -2.5 10 1.5
v -2.5 10 0.5
v -2.5 11 1.5
v -2.5 11 0.5
v -2.5 12 2.5
v -2.5 12 1.5
v -2.5 13 2.5
v -2.5 13 1.5
v -0.5 0 -0.5
v -0.5 0 -1.5
v -0.5 2 -0.5
v -0.5 2 -1.5
v -0.5 3 -0.5
v -0.5 3 -1.5
v -0.5 14 2.5
v -0.5 14 1.5
v -0.5 15 1.5
v -0.5 16 2.5
v -0.5 16 1.5
v 0.5 12 3.5
v 0.5 12 2.5
v 0.5 13 2.5
v 0.5 14 3.5
v 0.5 14 2.5
v 2.5 0 3.5
v 2.5 0 2.5
v 2.5 5 2.5
v 2.5 5 1.5
v 2.5 5 -0.5
v 2.5 6 2.5
v 2.5 6 1.5
v 2.5 6 -0.5
v 2.5 12 3.5
v 2.5 12 2.5
v 2.5 13 3.5
v 2.5 13 2.5
v 2.5 16 3.5
v 2.5 16 2.5
v 4.5 13 3.5
v 4.5 13 2.5
v 4.5 14 3.5
v 4.5 14 2.5
v -2.5 0 -0.5
v -2.5 0 -1.5
v -2.5 2 -0.5
v -2.5 2 -1.5
v -2.5 3 -0.5
v -2.5 3 -1.5
v -2.5 4 -2.5
v -2.5 4 -3.5
v -2.5 5 -2.5
v -2.5 5 -3.5
v -2.5 14 2.5
v -2.5 14 1.5
v -2.5 15 1.5
v -2.5 16 2.5
v -2.5 16 1.5
v -0.5 10 1.5
v -0.5 10 0.5
v -0.5 11 1.5
v -0.5 11 0.5
v -0.5 12 2.5
v -0.5 12 1.5
v -0.5 13 2.5
v -0.5 13 1.5
v 0.5 0 -0.5
v 0.5 0 -1.5
v 0.5 2 -0.5
v 0.5 2 -1.5
v 0.5 13 2.5
v 0.5 13 1.5
v 0.5 14 2.5
v 0.5 14 1.5
v 0.5 14 -3.5
v 0.5 15 1.5
v 0.5 15 -3.5
v 0.5 16 2.5
v 0.5 16 1.5
v 1.5 2 0.5
v 1.5 2 -0.5
v 1.5 2 -1.5
v 1.5 2 -2.5
v 1.5 3 0.5
v 1.5 3 -0.5
v 1.5 3 -1.5
v 1.5 4 0.5
v 1.5 4 -0.5
v 1.5 5 -0.5
v 1.5 5 -1.5
v 1.5 6 -0.5
v 1.5 6 -1.5
v 1.5 7 0.5
v 1.5 7 -2.5
v 1.5 8 0.5
v 1.5 8 -2.5
v 1.5 13 3.5
v 1.5 13 2.5
v 1.5 13 1.5
v 1.5 13 -3.5
v 1.5 14 3.5
v 1.5 14 2.5
v 1.5 14 1.5
v 1.5 14 -3.5
v 2.5 8 0.5
v 2.5 8 -3.5
v 2.5 11 1.5
v 2.5 11 0.5
v 2.5 13 1.5
v 2.5 13 -3.5
v 3.5 0 3.5
v 3.5 0 2.5
v 3.5 5 2.5
v 3.5 5 1.5
v 3.5 5 -1.5
v 3.5 6 2.5
v 3.5 6 1.5
v 3.5 6 -1.5
v 3.5 12 3.5
v 3.5 12 2.5
v 3.5 13 3.5
v 3.5 13 2.5
v 3.5 16 3.5
v 3.5 16 2.5
v 5.5 12 3.5
v 5.5 12 2.5
v 5.5 14 3.5
v 5.5 14 2.5
v 0.5 12 3.5
v 0.5 14 3.5
v 1.5 13 3.5
v 1.5 14 3.5
v 2.5 0 3.5
v 2.5 12 3.5
v 2.5 13 3.5
v 2.5 16 3.5
v 3.5 0 3.5
v 3.5 12 3.5
v 3.5 13 3.5
v 3.5 16 3.5
v 4.5 13 3.5
v 4.5 14 3.5
v 5.5 12 3.5
v 5.5 14 3.5
v -3.5 13 2.5
v -3.5 16 2.5
v -2.5 12 2.5
v -2.5 13 2.5
v -2.5 14 2.5
v -2.5 16 2.5
v -0.5 12 2.5
v -0.5 13 2.5
v -0.5 14 2.5
v -0.5 16 2.5
v 0.5 13 2.5
v 0.5 14 2.5
v 0.5 16 2.5
v -5.5 11 1.5
v -5.5 13 1.5
v -4.5 13 1.5
v -4.5 14 1.5
v -3.5 13 1.5
v -3.5 14 1.5
v -2.5 10 1.5
v -2.5 11 1.5
v -2.5 12 1.5
v -2.5 13 1.5
v -2.5 14 1.5
v -2.5 15 1.5
v -0.5 10 1.5
v -0.5 11 1.5
v -0.5 12 1.5
v -0.5 13 1.5
v -0.5 14 1.5
v -0.5 15 1.5
v 0.5 13 1.5
v 0.5 14 1.5
v 1.5 13 1.5
v 1.5 14 1.5
v 2.5 11 1.5
v 2.5 13 1.5
v -5.5 8 0.5
v -5.5 11 0.5
v -4.5 2 0.5
v -4.5 7 0.5
v -4.5 8 0.5
v -4.5 11 0.5
v -3.5 10 0.5
v -3.5 11 0.5
v -2.5 6 0.5
v -2.5 7 0.5
v -2.5 8 0.5
v -2.5 10 0.5
v -2.5 11 0.5
v -1.5 5 0.5
v -1.5 6 0.5
v -0.5 4 0.5
v -0.5 5 0.5
v -0.5 7 0.5
v -0.5 8 0.5
v -0.5 10 0.5
v -0.5 11 0.5
v 0.5 3 0.5
v 0.5 4 0.5
v 0.5 5 0.5
v 0.5 10 0.5
v 0.5 11 0.5
v 1.5 2 0.5
v 1.5 3 0.5
v 1.5 4 0.5
v 1.5 7 0.5
v 1.5 8 0.5
v 1.5 11 0.5
v 2.5 8 0.5
v 2.5 11 0.5
v -5.5 5 -0.5
v -5.5 6 -0.5
v -4.5 5 -0.5
v -4.5 6 -0.5
v -3.5 0 -0.5
v -3.5 2 -0.5
v -2.5 0 -0.5
v -2.5 2 -0.5
v -0.5 0 -0.5
v -0.5 2 -0.5
v 0.5 0 -0.5
v 0.5 2 -0.5
v 1.5 5 -0.5
v 1.5 6 -0.5
v 2.5 5 -0.5
v 2.5 6 -0.5
v -2.5 2 -1.5
v -2.5 3 -1.5
v -0.5 2 -1.5
v -0.5 3 -1.5
v 0.5 12 2.5
v 0.5 13 2.5
v 0.5 14 2.5
v 1.5 13 2.5
v 1.5 14 2.5
v 2.5 0 2.5
v 2.5 5 2.5
v 2.5 6 2.5
v 2.5 12 2.5
v 2.5 13 2.5
v 2.5 16 2.5
v 3.5 0 2.5
v 3.5 5 2.5
v 3.5 6 2.5
v 3.5 12 2.5
v 3.5 13 2.5
v 3.5 16 2.5
v 4.5 13 2.5
v 4.5 14 2.5
v 5.5 12 2.5
v 5.5 14 2.5
v -3.5 15 1.5
v -3.5 16 1.5
v -2.5 15 1.5
v -2.5 16 1.5
v -0.5 15 1.5
v -0.5 16 1.5
v 0.5 15 1.5
v 0.5 16 1.5
v -2.5 2 -0.5
v -2.5 3 -0.5
v -0.5 2 -0.5
v -0.5 3 -0.5
v -3.5 0 -1.5
v -3.5 2 -1.5
v -2.5 0 -1.5
v -2.5 2 -1.5
v -0.5 0 -1.5
v -0.5 2 -1.5
v 0.5 0 -1.5
v 0.5 2 -1.5
v 1.5 5 -1.5
v 1.5 6 -1.5
v 3.5 5 -1.5
v 3.5 6 -1.5
v -5.5 5 -2.5
v -5.5 6 -2.5
v -4.5 2 -2.5
v -4.5 4 -2.5
v -4.5 5 -2.5
v -4.5 6 -2.5
v -4.5 7 -2.5
v -4.5 8 -2.5
v -3.5 4 -2.5
v -3.5 5 -2.5
v -2.5 4 -2.5
v -2.5 5 -2.5
v 1.5 2 -2.5
v 1.5 7 -2.5
v 1.5 8 -2.5
v -5.5 8 -3.5
v -5.5 13 -3.5
v -4.5 4 -3.5
v -4.5 5 -3.5
v -4.5 13 -3.5
v -4.5 14 -3.5
v -3.5 4 -3.5
v -3.5 5 -3.5
v -3.5 14 -3.5
v -3.5 15 -3.5
v -2.5 4 -3.5
v -2.5 5 -3.5
v 0.5 14 -3.5
v 0.5 15 -3.5
v 1.5 13 -3.5
v 1.5 14 -3.5
v 2.5 8 -3.5
v 2.5 13 -3.5
v 2.5 0 3.5
v 3.5 0 3.5
v 2.5 0 2.5
v 3.5 0 2.5
v -3.5 0 -0.5
v -2.5 0 -0.5
v -0.5 0 -0.5
v 0.5 0 -0.5
v -3.5 0 -1.5
v -2.5 0 -1.5
v -0.5 0 -1.5
v 0.5 0 -1.5
v -4.5 2 0.5
v 1.5 2 0.5
v -3.5 2 -0.5
v -2.5 2 -0.5
v -0.5 2 -0.5
v 0.5 2 -0.5
v 1.5 2 -0.5
v -3.5 2 -1.5
v -2.5 2 -1.5
v -0.5 2 -1.5
v 0.5 2 -1.5
v 1.5 2 -1.5
v -4.5 2 -2.5
v 1.5 2 -2.5
v -2.5 3 -0.5
v -0.5 3 -0.5
v -2.5 3 -1.5
v -0.5 3 -1.5
v -4.5 4 -2.5
v -3.5 4 -2.5
v -2.5 4 -2.5
v -4.5 4 -3.5
v -3.5 4 -3.5
v -2.5 4 -3.5
v 2.5 5 2.5
v 3.5 5 2.5
v 2.5 5 1.5
v 3.5 5 1.5
v -5.5 5 -0.5
v -4.5 5 -0.5
v 1.5 5 -0.5
v 2.5 5 -0.5
v 1.5 5 -1.5
v 3.5 5 -1.5
v -5.5 5 -2.5
v -4.5 5 -2.5
v -5.5 8 0.5
v -4.5 8 0.5
v 1.5 8 0.5
v 2.5 8 0.5
v -4.5 8 -2.5
v 1.5 8 -2.5
v -5.5 8 -3.5
v 2.5 8 -3.5
v -2.5 10 1.5
v -0.5 10 1.5
v -2.5 10 0.5
v -0.5 10 0.5
v -5.5 11 1.5
v -2.5 11 1.5
v -0.5 11 1.5
v 2.5 11 1.5
v -5.5 11 0.5
v -4.5 11 0.5
v -3.5 11 0.5
v -2.5 11 0.5
v -0.5 11 0.5
v 0.5 11 0.5
v 1.5 11 0.5
v 2.5 11 0.5
v 0.5 12 3.5
v 2.5 12 3.5
v 3.5 12 3.5
v 5.5 12 3.5
v -2.5 12 2.5
v -0.5 12 2.5
v 0.5 12 2.5
v 2.5 12 2.5
v 3.5 12 2.5
v 5.5 12 2.5
v -2.5 12 1.5
v -0.5 12 1.5
v -3.5 13 2.5
v -2.5 13 2.5
v -0.5 13 2.5
v 0.5 13 2.5
v -3.5 13 1.5
v -2.5 13 1.5
v -0.5 13 1.5
v 0.5 13 1.5
v -4.5 5 -2.5
v -3.5 5 -2.5
v -2.5 5 -2.5
v -4.5 5 -3.5
v -3.5 5 -3.5
v -2.5 5 -3.5
v 2.5 6 2.5
v 3.5 6 2.5
v 2.5 6 1.5
v 3.5 6 1.5
v -5.5 6 -0.5
v -4.5 6 -0.5
v 1.5 6 -0.5
v 2.5 6 -0.5
v 1.5 6 -1.5
v 3.5 6 -1.5
v -5.5 6 -2.5
v -4.5 6 -2.5
v 1.5 13 3.5
v 2.5 13 3.5
v 3.5 13 3.5
v 4.5 13 3.5
v 1.5 13 2.5
v 2.5 13 2.5
v 3.5 13 2.5
v 4.5 13 2.5
v -5.5 13 1.5
v -4.5 13 1.5
v 1.5 13 1.5
v 2.5 13 1.5
v -5.5 13 -3.5
v -4.5 13 -3.5
v 1.5 13 -3.5
v 2.5 13 -3.5
v 0.5 14 3.5
v 1.5 14 3.5
v 4.5 14 3.5
v 5.5 14 3.5
v -2.5 14 2.5
v -0.5 14 2.5
v 0.5 14 2.5
v 1.5 14 2.5
v 4.5 14 2.5
v 5.5 14 2.5
v -4.5 14 1.5
v -3.5 14 1.5
v -2.5 14 1.5
v -0.5 14 1.5
v 0.5 14 1.5
v 1.5 14 1.5
v -4.5 14 -3.5
v -3.5 14 -3.5
v 0.5 14 -3.5
v 1.5 14 -3.5
v -3.5 15 1.5
v -2.5 15 1.5
v -0.5 15 1.5
v 0.5 15 1.5
v -3.5 15 -3.5
v 0.5 15 -3.5
v 2.5 16 3.5
v 3.5 16 3.5
v -3.5 16 2.5
v -2.5 16 2.5
v -0.5 16 2.5
v 0.5 16 2.5
v 2.5 16 2.5
v 3.5 16 2.5
v -3.5 16 1.5
v -2.5 16 1.5
v -0.5 16 1.5
v 0.5 16 1.5

# faces
f 3/4/1 2/4/1 1/4/1
f 4/4/1 2/4/1 3/4/1
f 8/7/1 6/7/1 5/7/1
f 9/7/1 8/7/1 7/7/1
f 10/7/1 6/7/1 8/7/1
f 10/7/1 8/7/1 9/7/1
f 13/4/1 12/4/1 11/4/1
f 15/4/1 13/4/1 11/4/1
f 15/4/1 14/4/1 13/4/1
f 16/4/1 14/4/1 15/4/1
f 17/4/1 14/4/1 16/4/1
f 18/4/1 15/4/1 11/4/1
f 20/4/1 18/4/1 11/4/1
f 20/4/1 19/4/1 18/4/1
f 21/4/1 19/4/1 20/4/1
f 22/5/1 21/5/1 20/5/1
f 23/5/1 21/5/1 22/5/1
f 26/7/1 25/7/1 24/7/1
f 27/7/1 25/7/1 26/7/1
f 30/3/1 29/3/1 28/3/1
f 31/3/1 29/3/1 30/3/1
f 34/7/1 33/7/1 32/7/1
f 36/7/1 34/7/1 32/7/1
f 36/7/1 35/7/1 34/7/1
f 37/7/1 35/7/1 36/7/1
f 38/7/1 36/7/1 32/7/1
f 39/7/1 36/7/1 38/7/1
f 42/7/1 41/7/1 40/7/1
f 43/7/1 41/7/1 42/7/1
f 46/7/1 45/7/1 44/7/1
f 47/7/1 45/7/1 46/7/1
f 50/3/1 49/3/1 48/3/1
f 51/3/1 49/3/1 50/3/1
f 52/3/1 51/3/1 50/3/1
f 53/3/1 51/3/1 52/3/1
f 56/7/1 55/7/1 54/7/1
f 57/7/1 56/7/1 54/7/1
f 58/7/1 56/7/1 57/7/1
f 61/3/1 60/3/1 59/3/1
f 62/3/1 61/3/1 59/3/1
f 63/3/1 61/3/1 62/3/1
f 66/3/1 65/3/1 64/3/1
f 69/3/1 66/3/1 64/3/1
f 69/5/1 67/5/1 66/5/1
f 70/4/1 68/4/1 67/4/1
f 70/5/1 67/5/1 69/5/1
f 71/4/1 68/4/1 70/4/1
f 72/3/1 69/3/1 64/3/1
f 73/3/1 69/3/1 72/3/1
f 76/3/1 75/3/1 74/3/1
f 77/3/1 75/3/1 76/3/1
f 80/3/1 79/3/1 78/3/1
f 81/3/1 79/3/1 80/3/1
f 82/3/2 83/3/2 84/3/2
f 84/3/2 83/3/2 85/3/2
f 84/3/2 85/3/2 86/3/2
f 86/3/2 85/3/2 87/3/2
f 88/5/2 89/5/2 90/5/2
f 90/5/2 89/5/2 91/5/2
f 92/7/2 93/7/2 94/7/2
f 92/7/2 94/7/2 95/7/2
f 95/7/2 94/7/2 96/7/2
f 97/7/2 98/7/2 99/7/2
f 99/7/2 98/7/2 100/7/2
f 101/7/2 102/7/2 103/7/2
f 103/7/2 102/7/2 104/7/2
f 105/3/2 106/3/2 107/3/2
f 107/3/2 106/3/2 108/3/2
f 109/7/2 110/7/2 111/7/2
f 111/7/2 110/7/2 112/7/2
f 111/7/2 112/7/2 114/7/2
f 112/7/2 113/7/2 114/7/2
f 114/7/2 113/7/2 115/7/2
f 111/7/2 114/7/2 116/7/2
f 116/7/2 114/7/2 117/7/2
f 118/4/2 119/4/2 122/4/2
f 119/5/2 120/5/2 123/5/2
f 122/4/2 119/4/2 123/4/2
f 120/4/2 121/4/2 124/4/2
f 123/5/2 120/5/2 124/5/2
f 122/5/2 123/5/2 125/5/2
f 123/4/2 124/4/2 126/4/2
f 125/5/2 123/5/2 126/5/2
f 125/4/2 126/4/2 127/4/2
f 126/4/2 124/4/2 127/4/2
f 124/4/2 121/4/2 128/4/2
f 127/4/2 124/4/2 128/4/2
f 125/4/2 127/4/2 129/4/2
f 128/4/2 121/4/2 130/4/2
f 125/4/2 129/4/2 131/4/2
f 129/4/2 130/4/2 131/4/2
f 130/4/2 121/4/2 132/4/2
f 131/4/2 130/4/2 132/4/2
f 131/5/2 132/5/2 133/5/2
f 133/5/2 132/5/2 134/5/2
f 135/3/2 136/3/2 139/3/2
f 139/3/2 136/3/2 140/3/2
f 137/7/2 138/7/2 141/7/2
f 141/7/2 138/7/2 142/7/2
f 143/7/2 144/7/2 146/7/2
f 145/7/2 146/7/2 147/7/2
f 146/7/2 144/7/2 148/7/2
f 147/7/2 146/7/2 148/7/2
f 149/3/2 150/3/2 151/3/2
f 149/3/2 151/3/2 154/3/2
f 151/5/2 152/5/2 154/5/2
f 152/4/2 153/4/2 155/4/2
f 154/5/2 152/5/2 155/5/2
f 155/4/2 153/4/2 156/4/2
f 149/3/2 154/3/2 157/3/2
f 157/3/2 154/3/2 158/3/2
f 159/3/2 160/3/2 161/3/2
f 161/3/2 160/3/2 162/3/2
f 163/3/2 164/3/2 165/3/2
f 165/3/2 164/3/2 166/3/2
f 169/3/3 168/3/3 167/3/3
f 170/3/3 168/3/3 169/3/3
f 172/3/3 169/3/3 167/3/3
f 173/3/3 169/3/3 172/3/3
f 175/3/3 173/3/3 172/3/3
f 175/3/3 174/3/3 173/3/3
f 175/3/3 172/3/3 171/3/3
f 176/3/3 174/3/3 175/3/3
f 177/3/3 174/3/3 176/3/3
f 178/3/3 174/3/3 177/3/3
f 179/3/3 177/3/3 176/3/3
f 181/3/3 179/3/3 176/3/3
f 181/3/3 180/3/3 179/3/3
f 182/3/3 180/3/3 181/3/3
f 186/7/3 184/7/3 183/7/3
f 187/7/3 184/7/3 186/7/3
f 188/7/3 184/7/3 187/7/3
f 189/7/3 186/7/3 185/7/3
f 189/7/3 187/7/3 186/7/3
f 190/7/3 187/7/3 189/7/3
f 191/7/3 187/7/3 190/7/3
f 193/7/3 192/7/3 191/7/3
f 193/7/3 191/7/3 190/7/3
f 194/7/3 192/7/3 193/7/3
f 195/7/3 192/7/3 194/7/3
f 198/7/3 197/7/3 196/7/3
f 200/7/3 198/7/3 196/7/3
f 200/7/3 199/7/3 198/7/3
f 201/7/3 199/7/3 200/7/3
f 203/7/3 200/7/3 196/7/3
f 204/7/3 200/7/3 203/7/3
f 205/7/3 200/7/3 204/7/3
f 208/7/3 203/7/3 202/7/3
f 208/7/3 204/7/3 203/7/3
f 209/7/3 204/7/3 208/7/3
f 210/7/3 204/7/3 209/7/3
f 212/7/3 207/7/3 206/7/3
f 213/7/3 207/7/3 212/7/3
f 214/7/3 211/7/3 210/7/3
f 214/7/3 210/7/3 209/7/3
f 216/7/3 214/7/3 209/7/3
f 216/7/3 215/7/3 214/7/3
f 217/7/3 215/7/3 216/7/3
f 218/7/3 216/7/3 209/7/3
f 219/7/3 216/7/3 218/7/3
f 224/7/3 221/7/3 220/7/3
f 225/7/3 221/7/3 224/7/3
f 226/1/3 225/1/3 224/1/3
f 227/1/3 225/1/3 226/1/3
f 228/4/3 223/4/3 222/4/3
f 229/5/3 224/5/3 223/5/3
f 229/4/3 223/4/3 228/4/3
f 230/1/3 226/1/3 224/1/3
f 230/5/3 224/5/3 229/5/3
f 231/2/3 227/2/3 226/2/3
f 231/1/3 226/1/3 230/1/3
f 232/2/3 227/2/3 231/2/3
f 233/4/3 228/4/3 222/4/3
f 234/5/3 229/5/3 228/5/3
f 234/4/3 228/4/3 233/4/3
f 235/4/3 233/4/3 222/4/3
f 236/5/3 234/5/3 233/5/3
f 236/4/3 233/4/3 235/4/3
f 237/5/3 229/5/3 234/5/3
f 237/5/3 234/5/3 236/5/3
f 237/6/3 230/6/3 229/6/3
f 238/1/3 231/1/3 230/1/3
f 238/6/3 230/6/3 237/6/3
f 239/1/3 231/1/3 238/1/3
f 241/4/3 235/4/3 222/4/3
f 242/5/3 236/5/3 235/5/3
f 242/4/3 235/4/3 241/4/3
f 243/4/3 237/4/3 236/4/3
f 243/5/3 236/5/3 242/5/3
f 244/2/3 240/2/3 239/2/3
f 244/1/3 239/1/3 238/1/3
f 245/2/3 240/2/3 244/2/3
f 246/4/3 241/4/3 222/4/3
f 247/5/3 242/5/3 241/5/3
f 247/4/3 241/4/3 246/4/3
f 248/4/3 243/4/3 242/4/3
f 248/5/3 242/5/3 247/5/3
f 249/4/3 237/4/3 243/4/3
f 249/4/3 243/4/3 248/4/3
f 249/5/3 238/5/3 237/5/3
f 250/1/3 245/1/3 244/1/3
f 250/5/3 238/5/3 249/5/3
f 250/1/3 244/1/3 238/1/3
f 251/1/3 245/1/3 250/1/3
f 252/7/3 251/7/3 250/7/3
f 253/7/3 251/7/3 252/7/3
f 256/4/3 255/4/3 254/4/3
f 257/4/3 255/4/3 256/4/3
f 260/3/3 259/3/3 258/3/3
f 261/3/3 259/3/3 260/3/3
f 264/3/3 263/3/3 262/3/3
f 265/3/3 263/3/3 264/3/3
f 268/4/3 267/4/3 266/4/3
f 269/4/3 267/4/3 268/4/3
f 272/4/3 271/4/3 270/4/3
f 273/4/3 271/4/3 272/4/3
f 274/3/4 275/3/4 277/3/4
f 275/3/4 276/3/4 277/3/4
f 277/3/4 276/3/4 278/3/4
f 274/3/4 277/3/4 282/3/4
f 282/3/4 277/3/4 283/3/4
f 279/3/4 280/3/4 285/3/4
f 285/3/4 280/3/4 286/3/4
f 283/3/4 284/3/4 287/3/4
f 282/3/4 283/3/4 287/3/4
f 281/3/4 282/3/4 287/3/4
f 287/3/4 284/3/4 288/3/4
f 288/3/4 284/3/4 289/3/4
f 289/3/4 284/3/4 290/3/4
f 288/3/4 289/3/4 291/3/4
f 288/3/4 291/3/4 293/3/4
f 291/3/4 292/3/4 293/3/4
f 293/3/4 292/3/4 294/3/4
f 295/7/4 296/7/4 297/7/4
f 297/7/4 296/7/4 298/7/4
f 299/7/4 300/7/4 301/7/4
f 301/7/4 300/7/4 302/7/4
f 303/4/4 304/4/4 305/4/4
f 305/4/4 304/4/4 306/4/4
f 307/3/4 308/3/4 309/3/4
f 309/3/4 308/3/4 310/3/4
f 311/3/4 312/3/4 313/3/4
f 313/3/4 312/3/4 314/3/4
f 315/4/4 316/4/4 317/4/4
f 317/4/4 316/4/4 318/4/4
f 319/4/4 320/4/4 323/4/4
f 323/4/4 320/4/4 324/4/4
f 321/4/4 322/4/4 327/4/4
f 323/4/4 324/4/4 328/4/4
f 324/4/4 325/4/4 328/4/4
f 321/4/4 327/4/4 329/4/4
f 328/4/4 325/4/4 330/4/4
f 321/4/4 329/4/4 331/4/4
f 329/4/4 330/4/4 331/4/4
f 325/5/4 326/5/4 332/5/4
f 331/4/4 330/4/4 332/4/4
f 330/4/4 325/4/4 332/4/4
f 332/5/4 326/5/4 333/5/4
f 334/7/4 335/7/4 338/7/4
f 336/4/4 337/4/4 340/4/4
f 340/4/4 337/4/4 341/4/4
f 338/7/4 339/7/4 342/7/4
f 340/5/4 341/5/4 344/5/4
f 344/5/4 341/5/4 345/5/4
f 342/7/4 343/7/4 346/7/4
f 338/7/4 342/7/4 346/7/4
f 346/7/4 343/7/4 347/7/4
f 334/7/4 338/7/4 348/7/4
f 338/7/4 346/7/4 348/7/4
f 348/7/4 346/7/4 349/7/4
f 334/7/4 348/7/4 350/7/4
f 350/7/4 348/7/4 351/7/4
f 354/3/5 353/3/5 352/3/5
f 355/3/5 353/3/5 354/3/5
f 360/3/5 357/3/5 356/3/5
f 361/3/5 357/3/5 360/3/5
f 362/3/5 359/3/5 358/3/5
f 363/3/5 359/3/5 362/3/5
f 366/4/5 365/4/5 364/4/5
f 367/4/5 365/4/5 366/4/5
f 368/4/5 365/4/5 367/4/5
f 369/4/5 365/4/5 368/4/5
f 370/4/5 365/4/5 369/4/5
f 371/4/5 366/4/5 364/4/5
f 374/5/5 370/5/5 369/5/5
f 375/5/5 370/5/5 374/5/5
f 376/4/5 373/4/5 372/4/5
f 376/4/5 371/4/5 364/4/5
f 376/4/5 375/4/5 374/4/5
f 376/4/5 374/4/5 373/4/5
f 376/4/5 372/4/5 371/4/5
f 377/4/5 375/4/5 376/4/5
f 380/4/5 379/4/5 378/4/5
f 381/4/5 379/4/5 380/4/5
f 385/4/5 383/4/5 382/4/5
f 386/5/5 384/5/5 383/5/5
f 386/4/5 383/4/5 385/4/5
f 387/5/5 384/5/5 386/5/5
f 390/5/5 389/5/5 388/5/5
f 391/5/5 389/5/5 390/5/5
f 395/4/5 391/4/5 390/4/5
f 396/4/5 395/4/5 394/4/5
f 397/4/5 391/4/5 395/4/5
f 397/4/5 395/4/5 396/4/5
f 398/4/5 393/4/5 392/4/5
f 399/4/5 393/4/5 398/4/5
f 404/7/5 401/7/5 400/7/5
f 405/7/5 403/7/5 402/7/5
f 406/7/5 404/7/5 400/7/5
f 406/7/5 405/7/5 404/7/5
f 407/7/5 403/7/5 405/7/5
f 407/7/5 405/7/5 406/7/5
f 410/7/5 409/7/5 408/7/5
f 411/7/5 409/7/5 410/7/5
f 416/7/5 413/7/5 412/7/5
f 417/7/5 413/7/5 416/7/5
f 418/7/5 413/7/5 417/7/5
f 419/7/5 413/7/5 418/7/5
f 420/7/5 415/7/5 414/7/5
f 421/7/5 415/7/5 420/7/5
f 422/7/5 415/7/5 421/7/5
f 423/7/5 415/7/5 422/7/5
f 430/3/5 425/3/5 424/3/5
f 431/3/5 425/3/5 430/3/5
f 432/3/5 427/3/5 426/3/5
f 433/3/5 427/3/5 432/3/5
f 434/7/5 429/7/5 428/7/5
f 435/7/5 429/7/5 434/7/5
f 440/7/5 437/7/5 436/7/5
f 441/7/5 437/7/5 440/7/5
f 442/7/5 439/7/5 438/7/5
f 443/7/5 439/7/5 442/7/5
f 444/4/6 445/4/6 447/4/6
f 445/5/6 446/5/6 448/5/6
f 447/4/6 445/4/6 448/4/6
f 448/5/6 446/5/6 449/5/6
f 450/5/6 451/5/6 452/5/6
f 452/5/6 451/5/6 453/5/6
f 452/4/6 453/4/6 457/4/6
f 456/4/6 457/4/6 458/4/6
f 457/4/6 453/4/6 459/4/6
f 458/4/6 457/4/6 459/4/6
f 454/4/6 455/4/6 460/4/6
f 460/4/6 455/4/6 461/4/6
f 462/3/6 463/3/6 466/3/6
f 466/3/6 463/3/6 467/3/6
f 464/3/6 465/3/6 468/3/6
f 468/3/6 465/3/6 469/3/6
f 470/7/6 471/7/6 474/7/6
f 474/7/6 471/7/6 475/7/6
f 472/7/6 473/7/6 476/7/6
f 476/7/6 473/7/6 477/7/6
f 478/3/6 479/3/6 484/3/6
f 484/3/6 479/3/6 485/3/6
f 480/3/6 481/3/6 486/3/6
f 486/3/6 481/3/6 487/3/6
f 482/7/6 483/7/6 490/7/6
f 490/7/6 483/7/6 491/7/6
f 488/7/6 489/7/6 494/7/6
f 494/7/6 489/7/6 495/7/6
f 492/7/6 493/7/6 496/7/6
f 496/7/6 493/7/6 497/7/6
f 498/7/6 499/7/6 502/7/6
f 500/7/6 501/7/6 502/7/6
f 499/7/6 500/7/6 502/7/6
f 502/7/6 501/7/6 503/7/6
f 504/3/6 505/3/6 510/3/6
f 510/3/6 505/3/6 511/3/6
f 506/7/6 507/7/6 512/7/6
f 512/7/6 507/7/6 513/7/6
f 508/7/6 509/7/6 514/7/6
f 514/7/6 509/7/6 515/7/6
